<svg version="1" xmlns="http://www.w3.org/2000/svg" width="1280" height="1280" viewBox="0 0 960.000000 960.000000"><path d="M457.3 1.6c-3.5 1.8-8 6.4-10.4 10.9-1.3 2.4-6.8 17.6-7.5 20.7-.1.5-.3 1-.4 1.3-.1.3-.3.8-.5 1.2-.1.5-.5 1.5-.8 2.3-1.9 4.3-3.5 10-2.9 10 .4 0 .2.4-.3.8-.6.4-1.7 2.7-2.4 5.1-.7 2.5-1.8 5.6-2.4 7-.5 1.4-1.1 3-1.3 3.6-.1.5-1.4 4.4-2.9 8.5-1.4 4.1-2.8 8.2-3 9-.5 1.5-8.5 24.6-16.4 47.5-2.3 6.6-4.4 12.7-4.6 13.6-.2.8-1 3.2-1.9 5.2-.8 2.1-1.5 3.8-1.5 4 0 .1-.2.9-.5 1.7-1.9 5.4-7.8 22.7-8 23.5-.2.5-.6 1.7-.9 2.5-.3.8-2.2 6.4-4.2 12.5-2 6-4.3 12.5-5.2 14.3-.8 1.8-1.5 4.2-1.6 5.2-.1 1.1-.6 2-1.1 2-.5 0-.7.3-.3.6.5.6 0 2.4-2.9 9.9-.4 1.1-.8 2.2-.9 2.5-.1.3-.4 1.2-.7 2-2.1 5.7-5 14.4-5.3 16.2-.3 1.2-.8 2.4-1.2 2.7-.5.3-.8 1-.8 1.6 0 1.2-6.5 20.5-7.4 22-.3.5-.7 1.7-.8 2.6-.1.9-.8 2.9-1.4 4.5-.7 1.6-1.3 3.3-1.5 3.9-1.6 6.1-13.1 38.2-13.9 38.7-.5.4-.7.8-.3.8.4 0-.5 3.3-1.8 7.2-1.4 4-2.6 7.7-2.8 8.3-.1.5-.4 1.4-.7 2-.9 1.4-3.3 9-2.9 9 .2 0-.2 1-.9 2.3-.7 1.3-1.4 3.1-1.6 4-.4 1.6-10.6 30.9-14 40.2-.9 2.5-1.7 4.9-1.9 5.5-.6 2.6-1.8 6.2-2.6 8-.9 2.2-.9 2.4-10 29-3.4 9.9-6.4 18.7-6.7 19.5-.3.8-.7 1.9-.9 2.5-.1.5-1.9 5.7-3.9 11.5-2.1 5.8-3.8 10.9-4 11.5-.1.5-.5 1.7-.8 2.5-.3.8-1.6 4.4-2.7 8-1.2 3.6-2.6 7.3-3.1 8.4-.6 1-1.3 3-1.5 4.4-.3 1.3-1.2 3.8-2 5.3-.8 1.6-1.4 3-1.3 3.1.3.5-1.1 4.8-3.7 11.9-1.4 3.6-2.7 7.4-2.9 8.5-.2 1-1.6 5-2.9 8.9-8.8 24.9-15.8 45.2-16.1 46.5-.2.8-.4 1.5-.4 1.5-.3 0-9.3 26.2-9.4 27.2 0 .7-.5 1.3-1 1.3-.6 0-.8.3-.4.6.5.5-4.7 16.8-7.3 22.9-.5 1.1-1.4 3.8-2.1 6-.6 2.2-1.4 4.4-1.8 5-.3.5-.6 1.4-.7 2-.2 1.4-5.3 16.6-6.4 19-1.2 2.7-11 31.5-11.5 33.8-.2.9-.7 2.3-1.2 3-.4.6-.9 2-1 3-.2 1-1 3.1-1.8 4.8-.9 1.6-1.3 2.9-1.1 2.9.3 0-1.1 4.4-3.1 9.7-1.9 5.4-3.6 10.2-3.7 10.8-.2.5-.8 2.3-1.4 3.8-.7 1.5-1.5 4-1.8 5.5-.4 1.5-.9 3.1-1.3 3.7-.3.5-.6 1.4-.7 2-.2.5-1.9 5.5-3.9 11s-3.7 10.4-3.9 11c-7.6 26.7-22.5 55.9-39.4 76.9-8 9.9-23.4 25-30.2 29.6-1.2.8-2.8 2-3.4 2.5-3.9 3.5-27.1 17.2-30.6 18-.3 0-2.5 1-5 2.1s-6.7 2.9-9.5 3.8c-2.7 1-5.7 2.1-6.5 2.4-.8.3-1.9.6-2.5.7-.5 0-1.9.6-3 1.2s-2.2 1.1-2.5 1c-1.6-.2-16.2 3.9-20 5.7-8 3.7-11.8 10.6-10.6 19.3.9 6.8 4.3 11.5 10.6 14.5 3.3 1.6 13.2 1.7 142.2 1.5 138.3-.2 138.7-.2 141.5-2.3 4.4-3.2 6.7-8.9 6.7-16.4-.1-8-2.1-12.9-6.7-16.4-3.7-2.9-3.1-2.8-24.7-4-4.1-.3-8.6-.7-10-1-1.4-.3-4.7-1.1-7.5-1.7-6.7-1.5-23.8-9.8-30-14.6-5.8-4.5-15.5-14-15.5-15.3 0-.4-.4-1-.8-1.2-1.2-.4-7.2-9.5-7.2-10.7 0-.6-.3-1.1-.7-1.1-.5 0-1.7-1.9-2.7-4.3-1.1-2.3-2.5-5.5-3.3-7.1-.7-1.6-1-3.2-.7-3.7.3-.5 0-.9-.5-.9-.6 0-1-.3-.9-.8.1-.4-.4-3.2-1-6.2-3.9-18.2-3.4-29.6 2-48.5 1.1-3.9 2.2-7.9 2.5-9 .2-1.1.7-2.7 1.1-3.5.3-.8.6-1.7.7-2 .1-.3.7-1.8 1.3-3.3.7-1.6 1.2-3.1 1.2-3.5 0-.8 4.9-16.8 6.1-19.7.8-2 14-42.9 14.6-45.3.6-2.5 1-3.7 1.7-5.7.5-1.1 1-2.7 1.3-3.5.4-.8.7-2 .7-2.5.1-.6 1.6-5.5 3.5-11 1.8-5.5 3.4-10.5 3.5-11 .1-.6 3.1-9.6 6.5-20 3.5-10.5 6.4-19.5 6.5-20 .1-.6 1.3-4.2 2.5-8l2.3-7 171.9.1c94.5 0 172.1.2 172.3.5.5.5 10.5 28.6 11.1 31.1.2.9.9 2.6 1.5 3.7.6 1.2.9 2.1.6 2.1-.3 0 .4 2 1.5 4.5s2.2 5.4 2.4 6.3c.3 1.5 3.7 11.2 12.1 34.7 1.4 3.8 2.7 7.4 2.8 8 .2.5.6 1.7.9 2.5.5 1.4 5.7 16.2 7.9 22.5.5 1.6 1.4 3.9 1.9 5 .9 2.1 4.6 12.9 5.4 15.5.2.8 2.2 6.7 4.5 13s5.2 14.6 6.5 18.5c2.2 6.8 8.1 23.5 9.2 26.5.3.8.8 2.4 1 3.4.2 1.1.8 2.5 1.3 3.1.5.6 1.1 2 1.3 3.1.2 1 .9 3.2 1.6 4.9.7 1.6 1.5 4.2 1.8 5.7.3 1.6 1 2.8 1.6 2.8.6 0 .8.3.5.6-.5.5 5.3 18.1 6.6 20.3 1.2 2 2 8.4 2 17.2-.1 8.6-.4 10.2-3.2 16.3-2 4.3-5.1 8.6-8.5 12-8.5 8.2-10.6 8.6-46.3 8.9-32.2.3-32.4.3-38.5 5.9-4.7 4.4-6.5 13.4-4 20.8 1.8 5.4 4.3 8.1 9.9 10.3 3.9 1.6 15.9 1.7 164.6 1.7 166.8 0 162.6.1 168.2-4 5.3-3.9 7-17.7 3.1-25.5-4-8-7.6-9.1-31.3-9.3-20.7-.3-21.8-.4-28.4-2.2-8.1-2.2-19.6-8.4-20.8-11.3-.2-.4-.9-.7-1.5-.8-2.1-.1-12.1-12.6-15.8-19.6-4-7.6-6.9-15.1-7.2-18.2-.1-1.2-.4-2.1-.7-2.1-.4 0-.7-.6-.8-1.3 0-.9-4.4-13.7-8.5-24.7-.3-.8-.7-2.4-1-3.5-.3-1.1-1.5-4.7-2.7-8-1.2-3.3-2.4-6.7-2.6-7.5-.2-.8-2.2-6.7-4.4-13-2.3-6.3-5.6-16-7.5-21.5-2.9-8.8-18.4-53.6-19.8-57.5-.3-.8-1.1-3.3-1.7-5.5-.6-2.2-1.5-4.9-2-6-1-2.1-5.3-14.7-12.6-36.5-2.5-7.4-4.9-14.4-5.4-15.5-.4-1.1-1.1-2.9-1.4-4-.2-1.1-2.8-8.5-5.6-16.5s-5.3-15.2-5.5-16c-.2-.8-.4-1.6-.5-1.8-.2-.1-.3-.5-.4-1-.1-.4-.4-1.2-.7-1.7-.4-.6-1-2.4-1.4-4-1.2-4.5-1.2-4.5-3.9-11.7-1.4-3.7-2.8-8-3-9.5-.3-1.4-.9-2.9-1.3-3.2-.4-.3-.9-1.5-1.1-2.6-.1-1.1-.7-2.9-1.2-4-.4-1.1-2.9-8.1-5.4-15.5-2.5-7.4-6.6-19.4-9.1-26.5-4.9-13.9-4.8-13.5-6-18-.4-1.7-1.1-3.5-1.5-4-.9-1.3-3.4-9.8-3.2-10.8.1-.4-.3-.7-.9-.7-.5 0-.8-.4-.5-.8.2-.4-.1-2.1-.8-3.7-.7-1.7-1.8-4.8-2.5-7s-1.6-4.9-2.1-6c-.4-1.1-3.1-9-6-17.5-2.8-8.5-5.4-16.2-5.7-17-.4-.8-.7-1.8-.8-2.3-.2-.4-.3-.8-.5-1-.1-.1-.3-.9-.5-1.7-.2-.8-2.9-8.7-6-17.5s-6.7-19.4-8.1-23.5c-1.3-4.1-2.8-8.2-3.1-9-.3-.8-.7-1.7-.8-2-1.2-3.9-3.5-10.9-9.5-28-3.9-11.3-7.2-21-7.4-21.5-.2-.6-.6-1.7-.9-2.5-.3-.8-1.9-5.6-3.6-10.5-3-9-16.7-48.9-26.2-76.5-2.8-8-6.8-19.7-8.9-26-6.8-20.3-15.6-45.6-16.3-46.6-.3-.6-.8-2.1-1.1-3.5-.4-2.1-6.6-20.7-8.3-24.9-.3-.8-.7-2-.9-2.5-.2-.8-6.4-19-9-26.5-.3-.8-.5-1.7-.5-2-.1-.3-.5-1.1-1.1-1.8-.6-.6-.8-1.2-.5-1.2.3 0-.6-3-2-6.8-1.3-3.7-2.6-7.2-2.7-7.7-.1-.6-.7-2.4-1.3-4-1.1-3-1.9-5.4-2.2-6.7-.1-.4-.9-2.7-1.7-5-7.2-19.7-16.1-46.8-15.6-47.2.3-.3-.1-.6-.8-.6-.7 0-1-.3-.7-.7.4-.3.3-1.1-.1-1.7-.5-.6-1.7-3.8-2.7-7.1-1-3.3-2.3-7.1-2.8-8.5-.6-1.4-1.1-2.7-1.2-3-5.2-16.9-7.5-20.6-14.8-23.5-5.1-2-6.5-2.3-14.2-3-3.3-.3-7.8-.7-10-1-4.2-.6-11.9-1.5-25-2.9-1.6-.2-3-.4-3-.5 0-.1-1.8-.3-4-.5s-6.9-.6-10.5-1c-5-.5-7.2-.3-9.7 1zM450 150.5c2.3 6.6 4.2 12.4 4.4 13 .6 2.6 4.9 15.2 5.7 17 .6 1.2 1.2 3 1.4 4 .2 1.1.4 2 .5 2 .1 0 .3.7.5 1.5.6 2.7 6.6 19.5 7.6 21.3.5 1 .7 2.2.4 2.7-.4.6-.1 1 .4 1 .6 0 1 .3.9.7-.2.9 1.7 6.8 5.7 18.3 1.5 4.1 2.8 8.2 3 9 .2.8.4 1.6.5 1.7.2.2.3.6.5 1 .1.5.4 1.5.8 2.3 1.4 3.5 5.9 16.6 6.2 18 .2.8 1.5 4.9 3 9s2.8 8.2 3 9c.2.8.4 1.6.5 1.7.2.2.3.6.5 1 .1.5.4 1.5.8 2.3.3.8 2.9 8.5 5.7 17 2.8 8.5 5.5 16.4 6 17.5.7 1.6 7.1 20.7 7.5 22.5.1.3.5 1.2.8 2 .4.8 2.7 7.6 5.1 15 2.5 7.4 9 26.8 14.6 43s10.6 30.8 11 32.5c.5 1.6 2.1 6.6 3.7 11s3 8.3 3.2 8.7c.1.4.4 1.5.6 2.3.3.8.7 2.2 1 3 .2.8.4 1.7.5 2 0 .3.7 1.9 1.5 3.5.9 1.7 1.3 3 1.1 3-.2 0 .6 2.7 1.9 5.9 1.3 3.3 2 6.2 1.7 6.5-.3.3-.1.6.4.6s1 .9 1.1 2.1c.1 1.1 1.3 5.1 2.7 8.7 1.4 3.7 4.9 14 7.9 22.8 3 8.9 5.6 16.5 5.9 17 .2.5 1 2.9 1.7 5.4.7 2.5 1.7 5.4 2.2 6.5.5 1.1 2.4 6.7 4.3 12.5 2 5.8 5.3 15.8 7.6 22.3 2.2 6.5 4 12.2 4 12.7 0 .7-34.7 1.6-41.5 1.1-1.1-.1-20.7-.1-24 0-4.3 0-39.1.1-40 0-1.1-.1-20.6-.1-24 0-4.3 0-39.1.1-40 0-.9 0-19.4-.1-24-.1-10.6.1-23.2.2-24 .1-.9 0-18.4-.1-23.7-.1h-8c-.7.1-6 0-11.8 0H275.1l1.8-5.3c1.1-2.8 2.8-7.3 4-10 1.1-2.6 2.1-4.9 2.1-5.2.2-1.4 4.6-13.7 6.6-18.3.8-1.8 1.4-3.7 1.4-4.3 0-.6.6-2.5 1.4-4.2.8-1.8 4.7-12 8.6-22.7 3.9-10.7 8.2-22.3 9.6-25.7 1.3-3.4 2.4-6.6 2.4-7.2 0-.6.5-1.9 1-2.9.9-1.4 5.6-13.7 6.4-16.7.3-1.1 1.1-3.3 3.1-8.5 1.6-4.1 2.8-7.3 3-8 .1-.3.4-1.2.8-2 .3-.8 1.7-4.9 3.2-9 1.5-4.1 3.3-8.9 4-10.5 1.8-4.2 2.9-7.9 2.7-8.8-.1-.4.3-.7.9-.7.5 0 .8-.4.5-.8-.3-.5.2-2.2 1-3.8.9-1.6 1.8-4 2.1-5.4.2-1.3.8-2.9 1.2-3.5.4-.5 1.4-3 2.1-5.5.7-2.5 1.7-5 2.2-5.6.4-.6.5-1.4.1-1.7-.3-.4 0-.7.7-.7s1.1-.3.7-.6c-.3-.4 0-1.9.9-3.5.8-1.6 1.2-2.9.8-2.9-.4 0-.2-.6.3-1.3.5-.6 2-4.1 3.3-7.7 1.2-3.6 2.7-7.6 3.3-9 .6-1.4 1.1-2.8 1.2-3.3.2-.4.3-.8.5-1 .1-.1.3-.9.5-1.8.1-.9.9-3.2 1.8-5 1.4-3.4 3.4-8.8 10.1-27.4 2-5.5 4-10.7 4.4-11.5.4-.8 1.7-4.2 2.7-7.5 1.1-3.3 2.2-6.2 2.5-6.5.3-.3.6-1 .7-1.5.2-1 3.8-11 16.3-44.5 10.2-27.4 13-35.1 14.2-38.5.5-1.7 1.6-4.4 2.4-6.2.8-1.7 1.4-3.3 1.4-3.6 0-.3.5-1.8 1.2-3.4 1.4-3.4 1.3-3.1 2.3-6.8.4-1.7 1.1-3.5 1.4-4 .4-.6 2.4-5.7 4.5-11.5s5.5-14.8 7.4-20c2-5.2 3.7-9.7 3.8-10 0-.3.4-1.3.7-2.3.4-.9 1-2.5 1.4-3.5.3-.9.7-1.9.8-2.2 1.2-4.6 5-12.9 5.6-12.3.4.4 2.6 6.2 4.9 12.8z"/></svg>