<svg xmlns="http://www.w3.org/2000/svg" version="1.1" xmlns:xlink="http://www.w3.org/1999/xlink" xmlns:svgjs="http://svgjs.com/svgjs" width="1000" height="1000"><rect width="1000" height="1000" rx="200" ry="200" fill="#ffffff"></rect><g transform="matrix(1,0,0,1,0,0)"><svg xmlns="http://www.w3.org/2000/svg" version="1.1" xmlns:xlink="http://www.w3.org/1999/xlink" xmlns:svgjs="http://svgjs.com/svgjs" width="512.000000pt" height="512.000000pt"><svg version="1.0" xmlns="http://www.w3.org/2000/svg" width="512.000000pt" height="512.000000pt" viewBox="0 0 512.000000 512.000000" preserveAspectRatio="xMidYMid meet">

<g transform="translate(0.000000,512.000000) scale(0.100000,-0.100000)" fill="#000000" stroke="#000000">
<path d="M2325 5109 c-321 -31 -634 -122 -920 -268 -469 -238 -838 -595 -1093
-1056 -142 -258 -236 -538 -289 -867 -23 -142 -23 -548 0 -701 45 -293 122
-543 243 -787 138 -276 282 -477 495 -687 211 -209 401 -344 669 -477 244
-121 451 -187 750 -237 197 -33 543 -33 750 0 292 46 501 112 757 237 1139
558 1695 1868 1306 3078 -176 547 -536 1024 -1014 1344 -130 87 -338 196 -479
252 -359 143 -795 205 -1175 169z m130 -1015 c86 -9 207 -44 290 -84 225 -108
384 -359 460 -726 9 -43 18 -80 20 -82 1 -2 8 27 14 65 7 37 40 226 75 418
l63 350 217 3 218 2 -6 -27 c-4 -16 -69 -368 -145 -784 l-139 -757 74 -388
c41 -214 81 -411 90 -438 30 -93 87 -155 187 -202 20 -10 37 -22 37 -28 0 -10
-149 -375 -157 -385 -2 -3 -32 1 -66 8 -100 20 -203 76 -278 151 -109 108
-144 194 -189 468 -17 103 -32 191 -33 196 -2 5 -16 -25 -31 -65 -135 -349
-343 -606 -567 -696 -115 -46 -176 -57 -339 -57 -132 -1 -169 3 -245 23 -398
103 -657 413 -754 901 -41 207 -46 276 -45 590 0 285 2 315 27 450 62 346 163
586 325 777 218 256 506 358 897 317z"></path>
<path d="M2180 3698 c-230 -72 -385 -323 -446 -723 -36 -231 -33 -689 6 -909
66 -385 201 -576 451 -641 111 -29 275 -4 386 61 193 112 367 429 472 858 58
236 58 240 22 416 -100 486 -236 765 -429 880 -135 79 -322 103 -462 58z"></path>
</g>
</svg></svg></g></svg>