<?xml version="1.0" standalone="no"?>
<!DOCTYPE svg PUBLIC "-//W3C//DTD SVG 20010904//EN"
 "http://www.w3.org/TR/2001/REC-SVG-20010904/DTD/svg10.dtd">
<svg version="1.0" xmlns="http://www.w3.org/2000/svg"
 width="803.000000pt" height="803.000000pt" viewBox="0 0 803.000000 803.000000"
 preserveAspectRatio="xMidYMid meet">
<metadata>
Created by potrace 1.14, written by Peter Selinger 2001-2017
</metadata>
<g transform="translate(0.000000,803.000000) scale(0.100000,-0.100000)"
fill="#000000" stroke="none">
<path d="M3700 8020 c-676 -64 -1232 -245 -1785 -583 -334 -204 -679 -497
-938 -797 -522 -604 -842 -1325 -949 -2137 -29 -226 -32 -711 -5 -933 96 -789
374 -1454 866 -2075 122 -155 452 -484 606 -606 527 -417 1091 -683 1717 -809
297 -60 450 -74 803 -74 273 0 345 3 488 22 772 102 1420 376 2032 861 154
122 484 451 606 606 492 620 770 1286 866 2075 27 222 24 707 -5 933 -101 769
-386 1442 -859 2027 -51 63 -110 134 -132 158 l-39 42 5 -61 c5 -48 3 -60 -7
-54 -9 5 -10 2 -6 -13 6 -18 3 -21 -21 -19 -18 1 -27 -3 -25 -10 3 -16 -10
-17 -25 -2 -12 12 -63 2 -63 -13 0 -6 -9 0 -19 13 -11 13 -23 20 -28 16 -4 -5
0 -14 9 -21 10 -7 15 -16 11 -20 -4 -4 -15 3 -25 16 -25 33 -23 1 2 -37 27
-40 26 -55 -1 -21 -15 20 -24 24 -29 16 -12 -19 0 -153 14 -165 7 -5 26 -32
41 -60 30 -53 48 -79 105 -148 19 -24 62 -84 95 -135 33 -50 65 -91 71 -92 6
0 19 -21 29 -46 33 -87 65 -134 90 -134 33 0 41 -18 11 -22 -25 -3 -25 -4 40
-133 194 -391 303 -705 363 -1045 29 -164 51 -393 52 -550 0 -86 5 -140 12
-149 9 -11 9 -15 0 -18 -7 -3 -13 -14 -13 -24 0 -11 5 -17 10 -14 15 9 12 -4
-4 -20 -8 -8 -27 -99 -46 -222 -27 -170 -77 -445 -94 -513 -52 -206 -147 -455
-259 -676 -52 -104 -116 -223 -141 -264 -25 -41 -57 -97 -72 -124 -31 -58 -75
-115 -198 -255 -50 -58 -118 -137 -152 -175 -81 -94 -123 -137 -219 -221 -44
-38 -82 -73 -85 -76 -6 -6 -149 -122 -234 -188 -45 -35 -56 -50 -57 -75 -2
-30 -2 -30 -6 -3 -2 15 -6 27 -8 27 -3 0 -42 -25 -87 -55 -194 -130 -229 -152
-348 -214 -69 -36 -174 -86 -235 -111 -99 -42 -111 -49 -116 -76 -7 -29 -7
-29 -8 -2 l-1 26 -95 -31 c-86 -28 -95 -34 -96 -57 -2 -24 -2 -24 -6 -2 -3 17
-9 21 -22 17 -131 -41 -494 -105 -603 -105 -67 0 -98 -9 -98 -26 0 -8 -4 -14
-10 -14 -5 0 -10 7 -10 15 0 13 -22 15 -147 15 -195 -1 -261 -8 -266 -29 -4
-15 -5 -15 -6 0 -1 22 -20 26 -140 28 l-101 2 0 -44 0 -44 46 -7 c81 -11 192
-7 197 7 3 8 9 6 19 -7 14 -17 26 -18 204 -12 202 7 285 12 376 22 48 5 58 9
61 27 4 22 4 22 6 1 1 -16 7 -20 24 -18 196 30 331 55 415 79 46 14 52 19 53
43 2 25 2 25 6 3 4 -20 9 -22 36 -17 61 12 167 49 167 58 0 5 4 7 9 3 27 -16
440 181 616 294 325 209 519 361 717 563 118 119 250 272 323 374 17 23 46 63
65 88 142 190 172 238 292 456 94 172 124 240 107 240 -6 0 -2 8 8 17 44 39
169 442 208 669 73 425 91 629 82 944 -7 223 -23 354 -73 585 -37 170 -37 169
-82 162 -25 -5 -32 -3 -22 3 8 5 25 10 36 10 20 0 21 3 12 43 -22 102 -160
479 -189 519 -10 15 -19 33 -19 40 0 18 -96 205 -114 224 -8 7 -22 14 -30 14
-17 0 -22 16 -6 22 19 6 -162 332 -205 368 -10 8 -18 6 -34 -11 -11 -13 -23
-20 -27 -17 -3 3 6 17 19 31 l25 24 -50 74 c-27 41 -60 85 -72 99 -33 36 -40
59 -15 53 10 -3 16 -9 14 -14 -3 -4 23 -47 57 -94 135 -185 176 -246 243 -369
55 -101 76 -130 98 -138 22 -8 25 -13 16 -24 -14 -17 -6 -29 14 -21 8 3 17 24
21 46 3 23 11 41 16 41 6 0 10 -4 10 -10 0 -5 8 -7 18 -3 13 5 15 3 5 -7 -9
-9 -9 -19 -2 -33 6 -11 8 -34 3 -56 -4 -20 -6 -51 -5 -70 2 -20 -1 -31 -7 -27
-16 10 12 -71 66 -195 62 -139 124 -309 151 -409 10 -41 31 -118 45 -170 23
-85 62 -272 81 -388 4 -23 11 -40 16 -36 5 3 9 0 9 -5 0 -6 -4 -11 -9 -11 -9
0 -8 -37 4 -220 14 -200 -14 -581 -60 -845 -29 -166 -37 -203 -70 -335 -64
-255 -162 -516 -259 -690 -31 -55 -56 -103 -56 -106 0 -28 -262 -411 -389
-569 -74 -93 -267 -308 -328 -366 -172 -164 -527 -424 -768 -562 -181 -104
-458 -223 -640 -277 -39 -11 -83 -24 -100 -30 -50 -15 -194 -48 -290 -64 -443
-76 -1028 -73 -1508 9 -180 31 -547 133 -679 189 -11 5 -18 2 -21 -11 -4 -15
-5 -14 -6 4 -1 13 -10 24 -24 29 -26 8 -189 83 -262 121 -80 42 -325 206 -417
280 -46 37 -120 101 -164 142 -43 41 -55 54 -26 30 115 -96 176 -139 189 -135
7 3 13 -1 13 -9 0 -17 115 -104 263 -197 106 -67 336 -188 357 -188 13 0 13
34 -2 81 -8 27 -17 39 -30 39 -10 0 -18 5 -18 10 0 6 -4 10 -10 10 -5 0 -10
-7 -10 -15 0 -8 -5 -15 -11 -15 -6 0 -9 6 -6 14 4 10 -25 32 -96 72 -56 32
-124 73 -152 91 -36 24 -51 29 -57 20 -6 -9 -8 -8 -9 3 0 8 -52 49 -115 90
-62 41 -114 78 -114 82 0 3 -44 38 -97 76 -54 39 -116 89 -138 113 l-40 43 54
-47 c69 -61 191 -147 208 -147 21 0 16 61 -8 86 -21 22 -21 23 -1 18 16 -5 19
-1 16 22 -1 15 -9 32 -16 39 -7 6 -48 45 -92 85 -60 56 -80 70 -87 59 -7 -11
-9 -11 -10 4 -1 9 -2 21 -3 26 0 5 -24 26 -51 48 -27 22 -63 55 -79 72 -17 17
-35 31 -42 31 -7 0 -16 9 -19 20 -3 11 -10 20 -15 20 -5 0 -10 8 -12 19 -2 10
-49 68 -105 128 -104 111 -158 181 -280 356 -37 54 -85 119 -106 145 -20 26
-37 51 -37 57 0 5 10 -2 21 -17 11 -16 26 -28 33 -28 6 0 16 -12 22 -27 8 -22
143 -222 186 -278 51 -65 143 -173 207 -242 64 -69 82 -83 87 -69 3 9 4 79 1
154 -4 75 -7 251 -7 390 0 243 -1 252 -20 252 -10 0 -23 -7 -28 -16 -8 -14
-10 -14 -25 0 -10 10 -35 17 -69 18 l-53 1 64 6 c52 5 65 9 67 24 4 30 14 33
14 4 0 -22 5 -27 24 -27 13 0 27 7 30 16 9 23 7 157 -3 172 -5 8 -42 16 -97
21 l-89 8 93 2 92 1 0 101 c0 98 -1 100 -22 99 -13 -1 -48 -1 -78 1 l-55 2 55
6 c50 5 55 8 58 32 2 21 -1 27 -15 25 -26 -2 -30 40 -4 53 16 9 22 8 31 -8 5
-11 6 -22 2 -25 -13 -8 -1 -77 12 -73 16 5 21 177 4 177 -9 0 -9 3 0 12 8 8
12 47 12 110 l0 98 -215 0 -215 0 -2 -72 -1 -73 -6 55 c-6 50 -8 55 -31 55
-18 0 -26 6 -28 23 -2 12 1 22 7 22 6 0 8 -7 5 -15 -4 -10 0 -15 15 -15 12 0
21 5 21 10 0 6 -5 10 -12 10 -6 0 -9 3 -5 6 3 3 109 5 236 5 l231 -1 0 52 0
51 -25 -23 c-33 -31 -33 -7 0 26 17 17 25 36 25 60 l0 34 -218 0 c-378 -1
-452 0 -452 8 0 4 151 6 335 4 l335 -2 0 111 0 111 -47 -6 c-27 -3 -64 -2 -83
3 -29 7 -22 9 48 10 l82 1 0 190 0 190 -333 0 c-552 -1 -587 0 -587 9 0 4 55
9 122 9 86 1 124 5 130 14 6 10 8 10 8 1 0 -10 28 -13 105 -13 88 0 106 3 114
18 10 16 10 16 11 0 0 -17 17 -18 215 -18 l215 0 0 219 0 220 -42 4 -43 4 43
1 42 2 0 180 c0 151 -2 182 -15 186 -8 4 -15 13 -15 21 0 8 -6 21 -14 29 -8 7
-16 18 -18 23 -1 5 -77 12 -168 16 -91 4 -167 9 -169 11 -2 2 70 4 161 3 153
-1 167 1 199 21 19 12 25 19 14 15 -32 -11 -37 -11 -42 1 -2 6 12 21 32 32 33
20 35 25 35 71 l0 51 -202 3 -203 2 203 3 202 2 0 113 c1 61 3 137 6 168 3 30
1 79 -4 107 -5 29 -6 52 -2 52 4 0 7 153 7 340 1 187 -2 340 -6 340 -15 0
-211 -229 -211 -246 0 -3 -24 -32 -52 -63 -58 -62 -164 -213 -245 -349 -29
-48 -56 -91 -60 -97 -16 -20 -52 -101 -63 -142 -6 -24 -14 -43 -19 -43 -9 0
-66 -123 -77 -164 -3 -14 -10 -26 -14 -26 -5 0 -14 -16 -20 -36 -7 -19 -14
-34 -16 -31 -7 7 16 67 63 167 25 52 54 117 64 143 25 64 77 165 104 202 11
17 48 73 80 125 105 168 267 378 403 520 63 67 72 81 73 116 1 31 2 34 8 15
l6 -24 35 29 c19 16 66 57 104 92 38 35 107 88 153 118 46 29 86 60 89 68 3 7
4 39 2 70 l-3 57 -55 -40 c-182 -132 -170 -119 -165 -170 3 -32 2 -37 -3 -17
-4 16 -12 31 -18 33 -6 2 -42 -23 -80 -55 -59 -50 -69 -63 -66 -88 2 -25 1
-26 -9 -11 -9 16 -19 10 -91 -60 -44 -43 -123 -132 -176 -198 -126 -157 -134
-167 -188 -250 -26 -38 -55 -82 -65 -97 -49 -71 -170 -288 -239 -433 -235
-487 -345 -1005 -342 -1616 1 -233 27 -532 51 -591 6 -13 17 -57 26 -98 60
-277 205 -627 388 -930 96 -159 197 -300 216 -300 12 0 13 -2 2 -12 -15 -15
-36 9 -137 152 -137 196 -244 397 -349 652 -16 40 -32 65 -38 61 -6 -3 -7 -1
-3 5 4 7 -9 60 -28 120 -48 150 -102 375 -123 517 -25 169 -25 723 0 939 29
239 109 582 180 766 14 36 42 109 63 164 94 250 358 709 510 891 33 39 88 106
124 150 35 44 68 83 73 86 6 4 41 38 79 75 65 64 69 71 63 102 -3 18 -9 40
-12 48 -3 8 0 14 6 14 6 0 11 -10 11 -22 0 -50 15 -52 66 -12 104 82 144 119
144 131 0 7 4 12 9 11 10 -3 104 60 153 102 27 23 29 29 26 88 l-3 63 -122
-93 c-266 -204 -466 -391 -557 -523 -27 -38 -83 -111 -125 -162 -152 -186
-250 -334 -384 -583 -78 -146 -198 -437 -231 -562 -8 -29 -19 -66 -26 -83 -21
-55 -99 -379 -119 -500 -42 -243 -68 -793 -40 -811 7 -4 8 -9 1 -13 -14 -8 2
-218 29 -381 35 -213 131 -543 200 -686 16 -34 29 -65 29 -69 0 -13 140 -285
223 -435 75 -135 231 -386 282 -455 13 -16 39 -57 59 -90 l37 -60 -32 35 c-93
102 -355 533 -514 845 -69 136 -100 210 -186 445 -11 31 -52 173 -74 259 -49
191 -85 510 -85 751 1 181 25 497 49 645 45 268 179 730 276 946 145 323 326
617 514 834 34 39 68 84 76 101 32 67 277 323 427 446 197 162 377 292 516
373 289 169 474 253 737 338 262 84 565 149 790 168 134 11 621 10 718 -2 34
-4 123 -15 197 -24 176 -22 353 -62 520 -119 74 -25 136 -46 137 -46 2 0 3 9
3 20 0 11 5 20 11 20 7 0 9 -9 5 -23 -5 -21 5 -27 147 -87 379 -158 744 -369
1034 -597 101 -79 293 -264 293 -281 0 -8 -48 32 -107 88 -60 57 -139 126
-178 156 -38 29 -86 66 -105 82 -64 54 -231 162 -241 157 -5 -4 -9 -17 -9 -31
0 -14 -4 -23 -9 -19 -5 3 -12 -5 -14 -17 -3 -15 -5 -10 -6 14 -1 26 4 40 17
47 16 10 15 12 -8 30 -35 28 -329 191 -344 191 -2 0 -7 -8 -9 -17 -3 -12 -5
-10 -6 7 -1 21 -14 31 -88 66 -86 40 -88 41 -95 20 -6 -21 -6 -21 -7 1 -1 17
-15 30 -58 52 -62 31 -374 149 -461 175 -62 18 -65 15 -60 -64 l3 -53 65 -19
c85 -24 87 -23 95 12 10 44 24 37 18 -9 l-5 -39 68 -22 c38 -12 117 -42 175
-65 139 -57 142 -57 150 -20 7 30 7 30 8 -6 1 -35 4 -38 80 -78 43 -22 84 -41
89 -41 6 0 13 10 15 23 3 17 5 15 6 -8 1 -33 2 -34 106 -90 39 -21 102 -56
140 -78 100 -58 144 -79 155 -72 6 3 10 0 10 -7 0 -7 28 -31 62 -53 100 -64
207 -148 288 -224 41 -39 85 -74 97 -77 12 -3 20 -11 18 -17 -5 -12 119 -156
162 -190 l23 -18 0 73 c0 53 -5 80 -17 98 -12 17 -13 25 -5 28 7 2 12 11 13
20 0 11 2 12 6 4 2 -6 9 -10 13 -7 5 3 7 12 4 20 -4 8 1 18 10 21 9 3 30 31
47 61 41 72 85 88 128 46 7 -8 16 -11 20 -8 10 11 -285 293 -414 396 -611 487
-1290 771 -2065 865 -157 19 -626 27 -770 14z m1090 -240 c0 -5 -5 -10 -11
-10 -5 0 -7 5 -4 10 3 6 8 10 11 10 2 0 4 -4 4 -10z m-1330 -20 c0 -5 -2 -10
-4 -10 -3 0 -8 5 -11 10 -3 6 -1 10 4 10 6 0 11 -4 11 -10z m1290 -30 c0 -5
-4 -10 -10 -10 -5 0 -10 5 -10 10 0 6 5 10 10 10 6 0 10 -4 10 -10z m55 0 c3
-5 1 -10 -4 -10 -6 0 -11 5 -11 10 0 6 2 10 4 10 3 0 8 -4 11 -10z m-1610 -30
c3 -5 1 -10 -4 -10 -6 0 -11 5 -11 10 0 6 2 10 4 10 3 0 8 -4 11 -10z m1675
-14 c0 -3 -4 -8 -10 -11 -5 -3 -10 -1 -10 4 0 6 5 11 10 11 6 0 10 -2 10 -4z
m80 -21 c0 -8 -4 -15 -10 -15 -5 0 -7 7 -4 15 4 8 8 15 10 15 2 0 4 -7 4 -15z
m-2460 -185 c0 -5 -4 -10 -10 -10 -5 0 -10 5 -10 10 0 6 5 10 10 10 6 0 10 -4
10 -10z m2730 -41 c0 -11 -4 -17 -10 -14 -5 3 -10 13 -10 21 0 8 5 14 10 14 6
0 10 -9 10 -21z m-3291 -276 c1 -7 -3 -13 -7 -13 -5 0 -9 15 -9 33 -1 26 1 28
7 12 5 -11 9 -26 9 -32z m4451 -388 c0 -8 -4 -15 -10 -15 -5 0 -10 7 -10 15 0
8 5 15 10 15 6 0 10 -7 10 -15z m110 -30 c0 -2 -10 -9 -22 -15 -22 -11 -22
-10 -4 4 21 17 26 19 26 11z m270 -36 c0 -5 -7 -9 -15 -9 -10 0 -15 -11 -15
-35 0 -30 -3 -35 -22 -35 -21 1 -22 2 -5 14 9 7 17 26 17 42 0 23 5 30 20 31
11 1 20 -2 20 -8z m-5825 -229 c3 -5 1 -10 -4 -10 -6 0 -11 5 -11 10 0 6 2 10
4 10 3 0 8 -4 11 -10z m100 -80 c3 -5 2 -10 -4 -10 -5 0 -13 5 -16 10 -3 6 -2
10 4 10 5 0 13 -4 16 -10z m-235 -29 c-6 -12 -17 -21 -25 -21 -9 0 -7 7 8 24
25 28 34 27 17 -3z m6100 25 c0 -3 -4 -8 -10 -11 -5 -3 -10 -1 -10 4 0 6 5 11
10 11 6 0 10 -2 10 -4z m-5474 -378 c-1 -32 -11 -48 -30 -48 -4 0 -6 7 -3 14
4 11 1 13 -10 9 -18 -7 -12 8 15 40 22 25 29 21 28 -15z m6039 -187 c3 -5 1
-12 -5 -16 -5 -3 -10 1 -10 9 0 18 6 21 15 7z m75 -27 c0 -8 -4 -12 -10 -9 -5
3 -10 13 -10 21 0 8 5 12 10 9 6 -3 10 -13 10 -21z m-90 -264 c-18 -34 -33
-21 -21 18 1 1 8 2 16 2 13 0 14 -4 5 -20z m-6780 -425 c-9 -23 -8 -26 5 -21
18 6 19 2 4 -25 -5 -11 -14 -17 -19 -14 -4 3 -11 -9 -15 -27 -3 -18 -21 -94
-39 -168 -47 -190 -74 -321 -86 -420 -6 -47 -18 -132 -26 -190 -23 -150 -15
-610 14 -797 26 -165 83 -397 127 -517 45 -123 134 -325 158 -358 11 -14 16
-31 12 -37 -3 -6 -2 -10 3 -9 13 4 58 -63 88 -130 30 -69 30 -81 -1 -22 -13
25 -32 55 -44 67 -31 33 -91 152 -163 323 -150 357 -212 640 -222 1010 -2 103
-7 145 -16 148 -8 3 -8 7 -2 11 5 3 15 74 20 156 14 205 57 525 82 610 12 39
39 142 60 230 39 157 59 220 67 212 2 -2 -1 -17 -7 -32z m370 -55 c0 -5 -2
-10 -4 -10 -3 0 -8 5 -11 10 -3 6 -1 10 4 10 6 0 11 -4 11 -10z m210 -460 c0
-5 -5 -10 -11 -10 -5 0 -7 5 -4 10 3 6 8 10 11 10 2 0 4 -4 4 -10z m165 -160
c-3 -5 -11 -10 -16 -10 -6 0 -7 5 -4 10 3 6 11 10 16 10 6 0 7 -4 4 -10z
m-375 -60 c0 -5 -2 -10 -4 -10 -3 0 -8 5 -11 10 -3 6 -1 10 4 10 6 0 11 -4 11
-10z m-95 -320 c3 -5 1 -10 -4 -10 -6 0 -11 5 -11 10 0 6 2 10 4 10 3 0 8 -4
11 -10z m92 -77 c-2 -16 -4 -5 -4 22 0 28 2 40 4 28 2 -13 2 -35 0 -50z m-470
-55 c-3 -8 -6 -5 -6 6 -1 11 2 17 5 13 3 -3 4 -12 1 -19z m473 12 c0 -5 -2
-10 -4 -10 -3 0 -8 5 -11 10 -3 6 -1 10 4 10 6 0 11 -4 11 -10z m210 0 c0 -5
-4 -10 -10 -10 -5 0 -10 5 -10 10 0 6 5 10 10 10 6 0 10 -4 10 -10z m-213
-112 c-2 -13 -4 -3 -4 22 0 25 2 35 4 23 2 -13 2 -33 0 -45z m-470 -85 c-3
-10 -5 -2 -5 17 0 19 2 27 5 18 2 -10 2 -26 0 -35z m473 -3 c0 -5 -4 -10 -10
-10 -5 0 -10 5 -10 10 0 6 5 10 10 10 6 0 10 -4 10 -10z m135 0 c4 -6 -11 -10
-37 -10 -31 0 -39 3 -28 10 20 13 57 13 65 0z m85 0 c12 -8 11 -10 -7 -10 -13
0 -23 5 -23 10 0 13 11 13 30 0z m-683 -112 c-2 -13 -4 -5 -4 17 -1 22 1 32 4
23 2 -10 2 -28 0 -40z m24 -139 c17 -161 72 -360 163 -583 20 -49 34 -91 32
-93 -2 -2 -15 24 -29 59 -14 35 -39 95 -55 134 -61 146 -132 451 -132 566 0
60 10 21 21 -83z m628 -76 c-1 -17 -3 -21 -6 -10 -2 9 -10 17 -16 17 -7 0 -6
4 3 10 20 13 20 13 19 -17z m-32 -35 c-3 -7 -5 -2 -5 12 0 14 2 19 5 13 2 -7
2 -19 0 -25z m-160 -300 c-3 -8 -6 -5 -6 6 -1 11 2 17 5 13 3 -3 4 -12 1 -19z
m0 -175 c-3 -10 -5 -4 -5 12 0 17 2 24 5 18 2 -7 2 -21 0 -30z m401 -104 c-3
-8 -7 -3 -11 10 -4 17 -3 21 5 13 5 -5 8 -16 6 -23z m-138 1 c0 -5 -4 -10 -10
-10 -5 0 -10 5 -10 10 0 6 5 10 10 10 6 0 10 -4 10 -10z m-63 -32 c-3 -8 -6
-5 -6 6 -1 11 2 17 5 13 3 -3 4 -12 1 -19z m13 -88 c0 -5 -2 -10 -4 -10 -3 0
-8 5 -11 10 -3 6 -1 10 4 10 6 0 11 -4 11 -10z m186 -126 c-4 -9 -9 -15 -11
-12 -3 3 -3 13 1 22 4 9 9 15 11 12 3 -3 3 -13 -1 -22z m-333 -149 c-3 -9 -8
-14 -10 -11 -3 3 -2 9 2 15 9 16 15 13 8 -4z m-33 -346 c0 -5 -4 -9 -10 -9 -5
0 -10 7 -10 16 0 8 5 12 10 9 6 -3 10 -10 10 -16z m184 -135 c3 -8 2 -12 -4
-9 -6 3 -10 10 -10 16 0 14 7 11 14 -7z m5596 -299 c0 -8 -4 -15 -10 -15 -5 0
-7 7 -4 15 4 8 8 15 10 15 2 0 4 -7 4 -15z m-5550 -39 c0 -2 -7 -9 -15 -16
-13 -11 -14 -10 -9 4 5 14 24 23 24 12z m5460 -76 c0 -5 -4 -10 -10 -10 -5 0
-10 5 -10 10 0 6 5 10 10 10 6 0 10 -4 10 -10z m-5690 -4 c0 -3 -4 -8 -10 -11
-5 -3 -10 -1 -10 4 0 6 5 11 10 11 6 0 10 -2 10 -4z m264 -80 c9 3 16 1 16 -4
0 -6 9 -14 20 -17 13 -4 20 -15 20 -32 0 -14 7 -31 16 -37 12 -10 14 -22 9
-57 -6 -44 -9 -46 -56 -63 -53 -19 -90 -16 -150 15 -48 24 -64 63 -49 119 6
23 8 55 4 72 -5 24 -3 30 8 26 7 -3 31 -2 53 1 31 6 46 3 67 -11 14 -10 33
-15 42 -12z m5345 7 c0 -25 -1 -26 -9 -8 -12 27 -12 35 0 35 6 0 10 -12 9 -27z
m-5196 -48 c-3 -9 -8 -14 -10 -11 -3 3 -2 9 2 15 9 16 15 13 8 -4z m-62 -28
c-13 -13 -26 -3 -16 12 3 6 11 8 17 5 6 -4 6 -10 -1 -17z m129 -20 c0 -7 15
-21 33 -30 17 -8 25 -16 16 -16 -9 -1 -28 8 -43 20 -26 21 -34 39 -16 39 6 0
10 -6 10 -13z m195 -65 c2 -7 -16 4 -40 25 -25 20 -45 39 -45 41 0 8 80 -54
85 -66z m-175 -27 c-6 -8 -9 -19 -5 -26 4 -6 -5 -3 -20 7 l-28 18 24 7 c38 11
42 10 29 -6z m157 -127 c-3 -8 -6 -5 -6 6 -1 11 2 17 5 13 3 -3 4 -12 1 -19z
m4237 -287 c-7 -7 -34 28 -34 43 1 6 10 0 21 -13 11 -13 17 -27 13 -30z"/>
<path d="M3640 7719 c-378 -31 -871 -167 -1228 -340 -107 -52 -122 -62 -117
-79 7 -21 -10 -28 -18 -7 -7 19 -71 -17 -369 -207 -22 -14 -27 -126 -5 -126 7
0 46 21 87 46 70 44 311 184 316 184 1 0 49 22 106 49 102 48 105 50 100 79
-2 16 1 33 7 36 7 5 11 -4 11 -24 0 -18 4 -30 8 -28 4 2 49 19 100 38 l92 34
0 43 c0 24 5 43 10 43 6 0 10 -16 10 -36 0 -31 2 -35 21 -29 12 4 49 15 84 25
34 10 71 22 81 28 10 5 60 19 109 32 50 12 98 24 108 27 10 2 18 15 18 31 2
24 2 24 6 5 5 -28 -1 -28 162 2 149 28 335 44 543 48 115 2 138 5 138 17 1 12
3 11 11 -2 8 -15 25 -18 92 -18 164 -1 534 -44 672 -79 44 -12 83 -21 88 -21
4 0 7 31 7 68 l0 68 -72 17 c-102 24 -302 54 -441 67 -111 11 -120 10 -133 -7
-12 -16 -13 -16 -14 -2 0 10 -12 19 -31 23 -44 8 -432 5 -559 -5z m444 -35 c3
-8 2 -12 -4 -9 -6 3 -10 10 -10 16 0 14 7 11 14 -7z m-84 -4 c0 -5 -4 -10 -10
-10 -5 0 -10 5 -10 10 0 6 5 10 10 10 6 0 10 -4 10 -10z m58 -38 c2 -7 -2 -10
-12 -6 -9 3 -16 11 -16 16 0 13 23 5 28 -10z m-1101 -124 c-3 -7 -5 -2 -5 12
0 14 2 19 5 13 2 -7 2 -19 0 -25z m0 -40 c-3 -8 -6 -5 -6 6 -1 11 2 17 5 13 3
-3 4 -12 1 -19z m-552 -198 c-3 -5 -11 -10 -16 -10 -6 0 -7 5 -4 10 3 6 11 10
16 10 6 0 7 -4 4 -10z"/>
<path d="M3744 7548 c3 -13 9 -42 12 -65 8 -49 3 -49 172 -37 l92 7 0 58 0 59
-141 0 -141 0 6 -22z"/>
<path d="M4030 7510 l0 -60 100 0 c88 0 100 2 101 18 0 14 2 13 9 -4 7 -19 20
-22 99 -28 50 -4 94 -12 98 -18 4 -7 1 -9 -9 -5 -9 3 -52 9 -97 12 -78 7 -81
7 -81 -14 0 -20 5 -21 104 -21 96 0 104 1 99 18 -4 18 -1 18 59 5 35 -7 86
-15 115 -17 28 -2 56 -7 61 -10 5 -3 39 -13 76 -21 36 -8 77 -20 91 -25 l25
-10 0 69 0 68 -82 18 c-46 10 -92 19 -103 21 -11 1 -63 9 -115 18 -52 9 -98
16 -102 16 -4 0 -9 -12 -11 -27 l-4 -28 -2 27 c-1 30 -8 33 -143 43 l-77 7 -4
-39 -4 -38 -1 36 c-2 35 -3 36 -48 43 -26 3 -71 6 -100 6 l-54 0 0 -60z"/>
<path d="M3563 7553 c-21 -4 -23 -10 -23 -69 l0 -65 93 6 c50 4 98 8 105 10
17 6 15 50 -4 91 -16 34 -17 34 -83 33 -36 -1 -76 -4 -88 -6z"/>
<path d="M3445 7539 c-27 -5 -62 -11 -77 -14 -61 -9 -154 -26 -170 -31 -15 -4
-18 -17 -18 -63 0 -32 2 -60 5 -63 5 -4 107 12 172 27 12 3 23 15 26 28 l4 22
2 -22 c1 -21 5 -22 49 -17 98 11 93 7 90 77 -3 70 -4 70 -83 56z"/>
<path d="M3100 7469 c-19 -6 -57 -16 -85 -24 l-50 -14 3 -61 c2 -33 7 -60 11
-60 4 0 30 6 57 14 27 8 68 20 92 26 l42 11 0 59 c0 66 -2 67 -70 49z"/>
<path d="M4896 7399 c-4 -34 -4 -65 1 -69 7 -7 160 -50 175 -50 4 0 9 10 11
23 4 20 4 19 6 -4 1 -23 10 -29 69 -51 58 -22 68 -23 73 -10 4 13 7 12 11 -5
4 -14 27 -28 84 -48 44 -16 84 -31 89 -35 40 -27 45 -21 45 49 l0 68 -105 41
c-112 45 -425 152 -442 152 -6 0 -14 -28 -17 -61z m62 20 c-2 -6 -8 -10 -13
-10 -5 0 -11 4 -13 10 -2 6 4 11 13 11 9 0 15 -5 13 -11z m-30 -34 c-3 -3 -9
2 -12 12 -6 14 -5 15 5 6 7 -7 10 -15 7 -18z"/>
<path d="M4034 7431 c-2 -2 -4 -27 -4 -54 0 -46 1 -49 23 -43 153 43 182 54
185 74 3 19 -2 21 -98 24 -56 2 -104 1 -106 -1z"/>
<path d="M3795 7419 c-44 -4 -119 -11 -167 -14 l-88 -7 -1 -31 -2 -32 -4 29
-5 29 -61 -7 c-72 -7 -104 -12 -207 -33 -41 -8 -97 -19 -125 -25 -149 -28
-553 -182 -575 -218 -3 -5 -19 -12 -35 -16 -40 -10 -361 -170 -402 -200 -22
-17 -30 -30 -27 -42 4 -12 3 -13 -3 -4 -8 10 -25 5 -82 -25 -39 -21 -87 -51
-106 -68 -19 -16 -77 -59 -129 -95 -53 -36 -96 -71 -96 -78 0 -7 -4 -11 -9 -8
-5 3 -12 -1 -15 -10 -3 -8 -10 -13 -15 -10 -5 3 -31 -18 -57 -46 -26 -29 -44
-47 -39 -39 4 7 -6 3 -24 -10 -34 -25 -40 -34 -14 -25 16 6 16 6 0 -12 -16
-17 -17 -67 -17 -585 l0 -567 94 0 c66 0 96 4 99 13 4 10 6 10 6 0 1 -9 22
-13 71 -13 44 0 70 -4 70 -11 0 -7 -23 -10 -70 -7 -59 4 -70 2 -70 -11 -1 -14
-2 -14 -10 0 -8 13 -28 17 -99 18 l-89 2 -4 -61 c-2 -52 0 -63 17 -75 19 -13
19 -14 1 -14 -17 -1 -16 -3 6 -20 20 -16 49 -20 196 -26 l172 -7 0 96 c0 85
-2 96 -17 96 -17 1 -17 1 0 14 16 12 17 45 17 440 l-1 426 -45 0 c-25 0 -43 4
-40 9 3 5 24 7 46 4 l40 -6 0 43 c0 24 2 41 4 39 8 -8 13 -1189 5 -1189 -4 0
-9 4 -11 9 -1 5 -78 11 -170 13 l-167 3 -6 -33 c-3 -18 -15 -38 -25 -45 -19
-11 -20 -25 -20 -304 0 -224 3 -293 13 -296 9 -4 9 -6 0 -6 -10 -1 -13 -30
-13 -111 l0 -110 95 0 95 0 0 220 0 219 -82 4 -83 3 83 2 82 2 0 127 c0 69 3
124 6 121 3 -4 5 -162 5 -352 l-1 -346 101 0 100 0 -1 118 c-2 165 3 172 10
12 4 -100 8 -134 18 -133 6 2 12 -2 12 -7 0 -6 -7 -10 -15 -10 -12 0 -15 -13
-15 -55 0 -30 -4 -55 -10 -55 -5 0 -10 25 -10 55 l0 55 -195 0 -195 0 0 -190
0 -190 73 -1 c39 -1 86 -1 102 0 l30 1 -5 -112 -5 -113 -3 101 -3 101 -78 7
c-114 9 -111 12 -111 -109 l0 -102 188 -5 c103 -3 190 -3 195 -1 4 2 7 63 7
135 0 72 3 129 6 125 3 -3 6 -112 5 -242 l0 -238 -100 2 -100 2 -4 -48 -3 -48
-2 47 -2 47 -92 4 -93 3 92 2 92 2 4 33 4 32 1 -32 2 -33 95 0 95 0 0 95 0 94
-92 3 c-51 2 -138 2 -195 0 l-103 -3 0 -200 0 -199 100 0 c55 0 100 -3 100 -7
0 -5 -45 -7 -100 -5 l-100 3 0 -95 c0 -82 2 -95 18 -99 16 -4 16 -5 0 -6 -16
-1 -18 -13 -18 -101 l0 -100 72 0 c39 0 69 -3 65 -6 -3 -3 -36 -6 -72 -5 l-66
1 3 -103 3 -102 92 -3 92 -3 4 73 3 73 2 -72 c2 -68 3 -73 25 -74 21 0 21 -1
2 -8 -14 -6 -22 -21 -26 -52 l-6 -44 -1 48 -2 47 -89 0 c-50 0 -93 -5 -96 -10
-4 -6 -7 -188 -7 -405 0 -217 -5 -395 -9 -395 -22 0 -4 -27 53 -83 35 -33 88
-78 118 -101 30 -22 56 -43 57 -46 5 -9 158 1 170 11 7 7 14 6 18 -1 3 -5 34
-10 67 -10 34 0 59 -2 57 -5 -4 -3 -53 -12 -97 -17 -24 -3 -5 -24 99 -106 57
-45 115 -92 127 -102 28 -24 57 -27 48 -5 -3 8 -3 15 0 15 2 0 9 -11 14 -25 5
-14 32 -37 64 -55 30 -17 60 -38 66 -45 18 -22 27 -18 39 13 l10 27 -2 -34
c-2 -31 2 -36 58 -67 33 -19 63 -34 67 -34 5 0 7 93 5 208 l-2 207 -239 2
c-131 2 -241 5 -244 8 -5 5 217 8 326 5 41 -1 57 3 68 17 13 17 15 17 25 0 6
-10 22 -17 39 -17 l29 0 4 113 3 112 2 -112 2 -112 78 -4 77 -3 -77 -2 -78 -2
3 -217 2 -216 90 -33 c50 -19 96 -34 103 -34 19 0 17 256 -3 267 -13 7 -12 11
5 26 20 17 20 16 20 -117 0 -120 2 -135 18 -139 16 -4 16 -5 0 -6 -12 -1 -18
-9 -18 -24 0 -18 8 -26 33 -34 17 -6 62 -22 100 -36 l67 -26 0 54 0 54 -47 4
-48 3 48 2 c41 2 47 5 48 25 1 15 3 17 6 6 5 -21 45 -29 134 -29 l69 0 0 119
c0 99 -3 120 -16 125 -9 3 -53 6 -99 6 -71 0 -84 -3 -88 -18 -4 -16 -5 -16 -6
0 -1 14 -14 18 -78 21 -43 1 4 4 104 5 l182 2 16 28 15 27 -6 -27 c-4 -20 -1
-27 13 -31 15 -4 14 -5 -4 -6 -23 -1 -23 -3 -23 -126 l0 -126 93 3 c62 2 92 7
92 15 0 6 3 15 8 19 4 4 7 -2 7 -14 0 -22 3 -22 160 -22 l160 0 2 83 c1 45 3
64 5 42 2 -22 6 -59 9 -82 l5 -43 114 0 114 0 4 108 3 107 2 -108 2 -108 110
3 110 3 0 -25 c-1 -22 -2 -23 -11 -7 -8 14 -25 17 -109 17 l-100 0 0 -99 0
-100 53 -6 c28 -4 75 -5 102 -3 l50 3 6 65 6 65 1 -67 2 -68 100 0 100 0 0
105 0 104 -97 4 -98 3 98 2 97 2 0 125 0 125 -209 0 c-190 0 -210 -2 -214 -18
-4 -16 -5 -16 -6 1 -1 15 -14 17 -116 17 l-115 0 0 -41 c0 -24 -4 -38 -10 -34
-5 3 -9 21 -7 38 l2 32 -107 3 c-98 2 -108 1 -108 -15 -1 -17 -1 -17 -14 0 -9
11 -27 17 -54 17 l-41 0 -4 -97 -3 -98 -2 98 -2 97 -72 1 c-109 1 -69 9 62 11
112 3 114 3 121 28 l7 25 1 -28 1 -28 107 3 108 3 6 30 c7 30 7 30 8 3 l1 -27
98 -3 c142 -4 132 -12 132 103 l0 98 -102 4 -103 3 102 2 102 2 4 113 3 112 2
-112 2 -113 104 0 105 0 4 43 4 42 1 -42 2 -42 58 -4 57 -3 -57 -2 -58 -2 0
-105 0 -105 101 0 101 0 -4 110 c-1 61 0 110 5 110 4 0 7 -49 7 -110 l0 -110
99 0 100 0 6 57 c9 84 13 87 14 11 l1 -68 124 0 c121 0 125 1 129 23 4 22 4
22 6 0 0 -12 9 -24 19 -26 16 -4 16 -5 -1 -6 -17 -1 -18 -11 -15 -111 2 -61 0
-110 -4 -110 -11 0 -10 -27 0 -32 4 -2 2 -14 -5 -28 -10 -20 -13 -21 -13 -6 0
12 -5 16 -15 13 -8 -4 -17 -2 -20 4 -4 5 -11 7 -16 4 -5 -4 -9 -1 -9 4 0 6 7
11 15 11 8 0 24 9 35 20 17 17 20 33 20 125 l0 105 -125 0 -124 0 -10 -32 -9
-33 -1 33 -1 32 -100 0 -100 0 0 -126 0 -126 108 2 c187 3 282 0 282 -8 0 -4
-38 -6 -85 -4 l-85 3 -1 -43 -2 -43 -6 40 -6 40 -102 3 -103 3 0 -106 c0 -77
3 -105 13 -106 6 -1 48 0 92 0 65 2 83 6 96 21 16 19 17 18 17 -5 0 -23 -5
-25 -42 -25 -22 0 -71 -3 -108 -6 l-67 -7 -4 -46 -3 -46 -2 46 -2 47 -92 6
c-51 3 -148 5 -215 3 -68 -1 -124 1 -125 5 -2 3 -54 9 -115 13 l-113 8 0 -67
c0 -42 4 -66 11 -66 8 0 8 -4 -1 -15 -23 -28 0 -35 111 -35 166 0 136 22 -46
33 -27 2 -4 4 53 5 l102 2 2 43 1 42 6 -45 6 -45 89 -1 c62 0 93 4 102 14 9 8
14 9 14 2 0 -12 209 -13 311 0 35 4 70 4 78 0 7 -4 -14 -8 -49 -9 -34 -1 -67
-4 -72 -7 -8 -5 -87 -10 -250 -14 -5 0 -8 -5 -8 -11 0 -29 501 10 650 51 19 6
74 19 123 30 137 32 137 32 137 85 l0 46 -47 -6 c-27 -4 -64 -11 -83 -15 -19
-5 -64 -11 -100 -14 -79 -7 -42 3 123 30 94 16 107 21 108 39 0 11 4 29 9 40
6 13 7 -14 4 -72 l-7 -93 99 34 c90 31 218 83 302 123 23 11 32 22 33 42 2 22
2 23 6 4 4 -21 6 -20 81 19 119 63 258 146 272 163 7 8 16 15 21 15 4 0 51 30
103 66 l96 67 2 76 2 76 3 -72 c2 -40 7 -73 10 -73 9 0 140 107 220 180 39 36
108 98 152 138 45 41 81 81 81 90 1 18 30 63 30 46 0 -6 -5 -15 -12 -22 -6 -6
-9 -14 -6 -17 13 -13 184 178 173 195 -3 5 0 10 9 10 8 0 34 24 59 53 63 75
218 300 263 382 21 39 47 84 59 100 11 17 31 52 45 78 22 41 23 49 10 57 -13
8 -12 10 3 10 22 0 46 50 107 223 25 70 49 127 53 127 11 0 6 -15 -55 -180
-74 -201 -251 -512 -426 -750 -64 -86 -179 -219 -293 -336 -61 -63 -78 -86
-72 -100 6 -16 5 -17 -9 -6 -14 11 -23 6 -67 -34 -29 -27 -51 -56 -52 -68 0
-17 -2 -18 -7 -4 -6 13 -18 6 -67 -39 -33 -30 -90 -77 -127 -106 -52 -39 -68
-58 -68 -77 -1 -22 -2 -23 -11 -8 -9 16 -19 11 -100 -40 -50 -32 -100 -67
-112 -77 -12 -11 -24 -19 -27 -18 -3 1 -36 -18 -75 -42 -38 -24 -113 -66 -165
-92 l-95 -49 -6 -50 c-5 -44 -6 -45 -7 -11 -1 20 -6 37 -11 37 -13 0 -183 -71
-198 -83 -7 -5 -13 -21 -14 -36 l0 -26 -11 23 c-8 15 -17 21 -27 16 -140 -57
-374 -121 -551 -149 -58 -9 -108 -19 -112 -21 -4 -3 -5 -26 -3 -52 4 -34 3
-42 -4 -27 -5 11 -10 34 -10 51 -1 31 -1 32 -48 27 -127 -11 -153 -15 -153
-26 0 -8 -3 -8 -8 -2 -4 7 -119 11 -334 12 l-328 0 0 -52 0 -52 107 -7 c96 -7
108 -6 120 10 12 16 13 16 13 1 0 -14 10 -17 49 -17 30 0 51 5 54 13 4 9 7 9
15 -1 7 -10 38 -12 133 -8 68 2 134 5 146 5 14 1 23 9 26 24 4 21 4 21 6 -2
l1 -24 98 7 c53 3 151 15 217 26 66 11 123 20 127 20 3 0 9 8 11 17 4 17 5 17
6 0 1 -19 -2 -19 116 10 67 16 275 78 318 95 19 7 27 18 28 37 2 23 2 24 6 4
2 -13 7 -23 9 -23 8 0 175 70 204 85 14 7 68 34 120 60 128 64 160 83 335 198
175 116 201 137 183 149 -9 6 -6 8 7 4 24 -6 204 126 220 162 5 12 14 22 19
22 37 0 345 316 515 527 92 116 205 304 340 568 90 176 138 293 207 504 47
146 46 161 -21 165 -14 0 -25 5 -25 9 0 5 22 6 49 2 58 -8 48 -32 90 225 40
247 53 349 47 366 -3 8 -2 14 2 14 13 0 35 125 35 196 0 52 -4 68 -19 79 -17
13 -17 14 -2 15 15 0 17 13 17 108 0 229 -44 526 -117 792 -59 214 -169 500
-192 500 -5 0 -10 7 -10 15 0 8 -31 81 -70 161 -38 81 -70 149 -70 151 0 8
-35 40 -50 46 -12 4 -11 6 3 6 16 1 16 3 -2 39 -11 20 -60 100 -109 177 l-89
140 -39 -3 c-21 -2 -42 -7 -47 -11 -4 -4 9 -29 30 -56 21 -27 63 -99 93 -160
38 -75 63 -114 80 -122 18 -9 20 -13 8 -13 -10 0 -18 -2 -18 -4 0 -3 18 -41
40 -85 22 -44 40 -83 40 -86 0 -4 6 -21 14 -38 33 -71 66 -157 66 -169 0 -7
-15 23 -33 67 -19 44 -38 89 -45 100 -6 11 -31 64 -56 118 -37 80 -49 97 -68
98 -17 1 -18 3 -5 6 9 2 17 7 17 10 0 8 -101 197 -109 203 -3 3 -13 17 -21 31
-35 63 -112 163 -107 140 6 -24 6 -24 -14 -5 -19 20 -19 21 -2 60 l17 39 4
-29 c2 -16 15 -44 28 -62 l25 -32 32 16 c18 9 34 18 36 19 6 4 -81 117 -107
139 -17 14 -22 25 -17 34 5 8 4 11 -2 7 -13 -8 -63 40 -63 62 0 71 -549 561
-628 561 -8 0 -17 -10 -20 -22 -6 -20 -7 -18 -12 12 -4 31 -14 41 -95 91 -94
59 -261 149 -276 149 -5 0 -9 -27 -9 -60 l0 -60 89 -45 90 -45 4 48 3 47 2
-50 2 -50 93 -52 c83 -48 92 -51 95 -33 5 29 22 25 22 -5 0 -15 8 -29 23 -36
12 -7 51 -30 87 -53 36 -23 74 -46 85 -52 11 -6 20 -17 20 -25 0 -9 10 -13 29
-11 22 2 27 0 23 -11 -8 -22 2 -27 32 -16 l26 9 -22 -17 -22 -18 82 -92 c84
-93 103 -106 109 -75 2 9 8 -4 12 -30 5 -32 12 -48 22 -48 8 0 14 -5 14 -12 0
-17 86 -127 129 -165 20 -18 30 -33 23 -33 -7 0 -10 -5 -6 -11 4 -8 0 -8 -15
0 -11 7 -21 16 -21 21 0 6 -15 11 -32 11 -31 2 -31 2 -5 6 l27 4 -44 57 c-24
31 -54 68 -68 82 -13 14 -35 41 -48 60 -12 19 -62 74 -109 123 -85 86 -113
101 -139 75 -9 -9 -12 -8 -12 6 0 10 9 20 21 23 20 6 20 7 -8 30 -64 55 -225
153 -250 153 -14 0 -24 3 -20 6 13 13 -58 63 -145 102 -5 2 -8 -12 -8 -32 0
-29 4 -36 20 -36 11 0 20 -4 20 -10 0 -5 -18 -10 -40 -10 -40 0 -40 0 -26 23
9 13 12 34 9 50 -5 23 -19 35 -84 68 -43 21 -81 39 -84 39 -3 0 -5 -36 -5 -79
0 -54 4 -81 12 -83 9 -3 8 -9 -5 -22 -15 -15 -17 -15 -17 -2 0 9 -8 16 -17 16
-17 1 -17 1 0 11 14 8 17 24 17 93 l0 82 -86 40 c-48 21 -91 41 -95 42 -5 2
-9 -55 -9 -127 l0 -130 28 -4 27 -4 -27 -2 c-22 -1 -28 -6 -28 -23 0 -12 -3
-19 -6 -15 -3 3 -5 75 -5 161 l2 155 -38 16 c-21 9 -60 23 -88 32 -27 9 -54
20 -60 24 -5 5 -13 9 -17 9 -4 0 -8 -76 -8 -170 0 -155 2 -170 18 -171 9 -1
39 -3 66 -5 75 -5 68 -14 -12 -14 -82 0 -74 15 -73 -125 0 -44 -4 -105 -8
-135 -8 -53 -9 -54 -10 -13 -1 39 -3 42 -33 45 -33 3 -33 3 -29 64 1 12 9 15
31 12 l30 -5 0 73 c0 50 -4 73 -13 77 -22 8 -67 -4 -67 -19 0 -7 -6 -11 -14
-8 -20 8 -27 -9 -16 -44 4 -18 5 -34 0 -37 -9 -5 -20 28 -20 62 0 16 -10 27
-35 37 -33 14 -48 36 -24 36 21 0 4 45 -18 48 -20 3 -21 1 -13 -28 7 -26 6
-31 -5 -26 -8 3 -15 0 -15 -7 0 -8 -3 -7 -9 2 -5 8 -17 16 -26 17 -15 2 -17
-5 -12 -54 3 -32 9 -65 12 -75 4 -9 3 -17 -3 -17 -5 0 -12 23 -16 50 -11 80
-13 83 -47 63 -26 -16 -31 -16 -39 -3 -5 8 -10 23 -10 32 0 9 -5 20 -11 24 -8
5 -10 -1 -7 -19 4 -18 1 -24 -9 -20 -15 6 -18 -8 -4 -23 5 -5 12 -19 15 -31 6
-19 2 -23 -29 -29 -53 -10 -62 -36 -25 -74 30 -31 33 -54 5 -43 -14 5 -19 -7
-18 -43 0 -6 -8 -9 -18 -7 -21 6 -24 14 -9 29 15 15 0 84 -19 84 -30 0 -42
-16 -35 -43 3 -16 2 -27 -4 -27 -5 0 -13 -30 -17 -66 -5 -51 -4 -69 7 -75 9
-6 4 -9 -16 -9 -21 0 -26 3 -19 13 12 14 23 183 14 212 -6 20 -51 35 -51 16 0
-5 -10 -11 -22 -13 -17 -2 -24 -11 -26 -31 -4 -35 -27 -30 -27 5 1 17 -4 24
-13 21 -8 -3 -15 3 -19 15 -5 20 -41 33 -91 32 -13 0 -20 5 -17 10 4 6 18 9
33 8 23 -3 26 0 28 36 3 36 2 38 -13 23 -13 -13 -14 -19 -3 -31 10 -13 10 -16
-4 -16 -9 0 -18 6 -20 13 -18 58 -41 108 -44 98 -3 -8 -9 -5 -19 8 -15 22 -47
28 -58 11 -3 -5 -11 -10 -17 -10 -6 0 -3 11 6 25 18 28 21 39 6 30 -14 -9 -52
4 -45 16 7 10 -35 30 -47 22 -5 -2 -8 1 -8 6 0 13 22 14 73 2 21 -5 37 -5 37
0 0 5 -9 9 -20 9 -11 0 -19 6 -18 13 2 7 -7 12 -22 12 -14 0 -38 9 -54 19 -26
18 -29 19 -38 3 -5 -10 -13 -15 -19 -12 -5 4 -9 1 -9 -6 0 -7 -7 -4 -15 7 -14
18 -14 18 -15 -8 0 -16 -4 -28 -10 -28 -5 0 -10 9 -10 20 0 23 -4 24 -30 10
-15 -8 -19 -5 -24 16 -7 25 -10 26 -49 20 -23 -4 -50 -15 -61 -24 -18 -16 -18
-16 -12 5 7 21 5 21 -26 12 -18 -5 -33 -9 -34 -9 -1 0 -4 9 -7 21 -3 12 -10
18 -15 15 -5 -3 -7 6 -4 19 4 21 1 24 -14 18 -17 -6 -18 -5 -5 11 13 15 16 15
23 2 7 -12 13 -13 34 -4 14 6 23 17 20 25 -3 7 2 17 12 22 9 5 14 12 11 15 -3
4 -18 -3 -33 -15 -15 -12 -29 -19 -32 -16 -9 9 78 75 146 110 l65 34 3 57 3
56 -73 -1 c-40 -1 -109 -5 -153 -10z m-258 -171 c-3 -8 -6 -5 -6 6 -1 11 2 17
5 13 3 -3 4 -12 1 -19z m-887 -112 c0 -3 -4 -8 -10 -11 -5 -3 -10 -1 -10 4 0
6 5 11 10 11 6 0 10 -2 10 -4z m3155 -76 c3 -5 -3 -10 -14 -10 -12 0 -21 5
-21 10 0 6 6 10 14 10 8 0 18 -4 21 -10z m-2268 -62 c-2 -13 -4 -5 -4 17 -1
22 1 32 4 23 2 -10 2 -28 0 -40z m253 37 c0 -8 -7 -15 -15 -15 -9 0 -12 6 -9
15 4 8 10 15 15 15 5 0 9 -7 9 -15z m180 -65 c0 -5 -4 -10 -9 -10 -6 0 -13 5
-16 10 -3 6 1 10 9 10 9 0 16 -4 16 -10z m-1687 -127 c-23 -2 -64 -2 -90 0
-26 2 -7 3 42 3 50 0 71 -1 48 -3z m3310 -10 c-13 -2 -33 -2 -45 0 -13 2 -3 4
22 4 25 0 35 -2 23 -4z m385 -10 c-10 -2 -26 -2 -35 0 -10 3 -2 5 17 5 19 0
27 -2 18 -5z m-131 -35 c-3 -8 -6 -5 -6 6 -1 11 2 17 5 13 3 -3 4 -12 1 -19z
m210 -30 c-3 -7 -5 -2 -5 12 0 14 2 19 5 13 2 -7 2 -19 0 -25z m-1952 -7 c3
-5 1 -12 -5 -16 -5 -3 -10 1 -10 9 0 18 6 21 15 7z m-1491 -28 c5 -11 1 -22
-10 -30 -24 -18 -35 -7 -22 22 13 29 23 32 32 8z m2008 -30 c-10 -4 -10 -8 -1
-19 8 -9 8 -14 1 -14 -15 0 -25 18 -17 30 3 6 12 10 18 9 8 0 8 -2 -1 -6z m88
-13 c0 -5 -4 -10 -10 -10 -5 0 -10 5 -10 10 0 6 5 10 10 10 6 0 10 -4 10 -10z
m-1963 -32 c-3 -8 -6 -5 -6 6 -1 11 2 17 5 13 3 -3 4 -12 1 -19z m3500 -10
c-3 -8 -6 -5 -6 6 -1 11 2 17 5 13 3 -3 4 -12 1 -19z m-4360 -30 c-3 -8 -6 -5
-6 6 -1 11 2 17 5 13 3 -3 4 -12 1 -19z m3606 -137 l21 -15 -24 -6 c-29 -7
-60 -1 -60 11 0 5 7 9 15 9 12 0 15 16 17 78 l2 77 3 -69 c3 -58 8 -72 26 -85z
m177 145 c0 -3 -4 -8 -10 -11 -5 -3 -10 -1 -10 4 0 6 5 11 10 11 6 0 10 -2 10
-4z m408 -3 c-10 -2 -19 -12 -19 -21 -1 -16 -2 -16 -6 0 -2 10 -17 18 -36 21
-18 2 -7 4 23 4 30 0 47 -1 38 -4z m95 0 c-7 -2 -19 -2 -25 0 -7 3 -2 5 12 5
14 0 19 -2 13 -5z m42 -3 c3 -5 -1 -10 -10 -10 -9 0 -13 5 -10 10 3 6 8 10 10
10 2 0 7 -4 10 -10z m-1849 -41 c134 -35 144 -37 150 -28 3 5 10 9 15 9 6 0 7
-5 3 -11 -3 -6 0 -15 7 -20 19 -12 -12 -12 -43 0 -48 19 -167 43 -178 36 -11
-7 -40 11 -40 26 0 12 -6 12 86 -12z m568 -43 c-10 -55 -13 -60 -29 -46 -7 6
-11 18 -8 26 4 10 -3 14 -23 15 -28 0 -28 1 -6 11 12 6 22 15 22 20 0 5 6 15
13 23 18 21 37 -9 31 -49z m-344 34 c0 -23 -22 -26 -39 -6 -10 12 -8 15 11 19
13 2 24 5 26 6 1 0 2 -8 2 -19z m-211 -34 c19 -23 -4 -28 -24 -6 -15 17 -16
20 -3 20 9 0 21 -6 27 -14z m-269 -57 c0 -5 -4 -9 -10 -9 -5 0 -10 7 -10 16 0
8 5 12 10 9 6 -3 10 -10 10 -16z m497 -31 c-3 -7 -5 -2 -5 12 0 14 2 19 5 13
2 -7 2 -19 0 -25z m630 10 c-3 -8 -6 -5 -6 6 -1 11 2 17 5 13 3 -3 4 -12 1
-19z m981 -9 c-17 -10 -28 -2 -21 17 4 11 8 12 20 3 11 -10 11 -14 1 -20z
m-158 13 c0 -15 -11 -21 -27 -15 -12 5 -12 7 -1 14 17 11 28 11 28 1z m245 -2
c3 -5 1 -10 -4 -10 -6 0 -11 5 -11 10 0 6 2 10 4 10 3 0 8 -4 11 -10z m35 0
c0 -5 -4 -10 -10 -10 -5 0 -10 5 -10 10 0 6 5 10 10 10 6 0 10 -4 10 -10z
m-222 -7 c-10 -2 -26 -2 -35 0 -10 3 -2 5 17 5 19 0 27 -2 18 -5z m59 1 c-3
-3 -12 -4 -19 -1 -8 3 -5 6 6 6 11 1 17 -2 13 -5z m328 -57 c11 -12 8 -17 -18
-31 -32 -17 -32 -17 -11 2 20 17 20 19 5 30 -11 7 -12 11 -3 11 7 1 19 -5 27
-12z m-3988 -29 c-3 -7 -5 -2 -5 12 0 14 2 19 5 13 2 -7 2 -19 0 -25z m1760 0
c-3 -7 -5 -2 -5 12 0 14 2 19 5 13 2 -7 2 -19 0 -25z m-2382 2 c3 -5 1 -10 -4
-10 -6 0 -11 5 -11 10 0 6 2 10 4 10 3 0 8 -4 11 -10z m3978 -145 c12 -2 36
-6 52 -8 17 -2 6 -5 -23 -6 l-54 -1 2 -32 c5 -84 -1 -209 -9 -204 -5 3 -8 36
-7 72 3 61 1 66 -21 75 -29 11 -30 37 0 41 28 4 38 47 10 49 -17 1 -17 2 0 6
14 4 17 17 19 76 l2 72 3 -67 c4 -60 6 -68 26 -73z m477 65 c0 -5 -2 -10 -4
-10 -3 0 -8 5 -11 10 -3 6 -1 10 4 10 6 0 11 -4 11 -10z m-4450 -34 c0 -3 -4
-8 -10 -11 -5 -3 -10 -1 -10 4 0 6 5 11 10 11 6 0 10 -2 10 -4z m4885 -16 c3
-5 1 -10 -4 -10 -6 0 -11 5 -11 10 0 6 2 10 4 10 3 0 8 -4 11 -10z m-818 -22
c-3 -8 -6 -5 -6 6 -1 11 2 17 5 13 3 -3 4 -12 1 -19z m-497 -8 c0 -5 -5 -10
-11 -10 -5 0 -7 5 -4 10 3 6 8 10 11 10 2 0 4 -4 4 -10z m1087 -12 c-3 -8 -6
-5 -6 6 -1 11 2 17 5 13 3 -3 4 -12 1 -19z m-1162 -28 c3 -5 1 -10 -4 -10 -6
0 -11 5 -11 10 0 6 2 10 4 10 3 0 8 -4 11 -10z m-3654 -15 c5 4 17 1 26 -4 14
-8 5 -10 -39 -11 -53 0 -68 7 -52 23 3 3 17 1 31 -4 14 -5 29 -7 34 -4z m776
-17 c-3 -8 -6 -5 -6 6 -1 11 2 17 5 13 3 -3 4 -12 1 -19z m2966 -15 c-5 -13
-7 -13 -21 0 -8 8 -11 20 -7 27 10 16 35 -7 28 -27z m-3950 20 c-7 -2 -19 -2
-25 0 -7 3 -2 5 12 5 14 0 19 -2 13 -5z m765 2 c-7 -7 -349 -7 -356 0 -3 3 77
5 178 5 101 0 181 -2 178 -5z m3100 -54 c3 -8 -1 -12 -9 -9 -7 2 -15 10 -17
17 -3 8 1 12 9 9 7 -2 15 -10 17 -17z m-2881 -68 c-2 -16 -4 -5 -4 22 0 28 2
40 4 28 2 -13 2 -35 0 -50z m-907 28 c0 -22 -19 -41 -42 -41 -24 0 -23 26 2
33 11 3 20 13 20 22 0 9 5 13 10 10 6 -3 10 -14 10 -24z m4947 -13 c-3 -7 -5
-2 -5 12 0 14 2 19 5 13 2 -7 2 -19 0 -25z m-3867 -29 c0 -4 -11 -9 -24 -11
-24 -5 -24 -4 -8 17 15 21 31 17 32 -6z m15 21 c3 -5 1 -10 -4 -10 -6 0 -11 5
-11 10 0 6 2 10 4 10 3 0 8 -4 11 -10z m4143 -35 c-3 -3 -9 2 -12 12 -6 14 -5
15 5 6 7 -7 10 -15 7 -18z m-391 9 c-3 -3 -12 -4 -19 -1 -8 3 -5 6 6 6 11 1
17 -2 13 -5z m203 -21 c12 -12 7 -11 -20 2 -45 22 -52 29 -20 20 14 -4 32 -14
40 -22z m-114 -16 c7 2 21 0 31 -6 17 -10 17 -10 1 -11 -16 0 -18 -12 -20 -92
l-2 -93 -3 93 -4 92 -27 2 c-15 0 -35 1 -44 0 -20 -2 -23 9 -7 25 8 8 18 7 36
-2 14 -8 31 -11 39 -8z m-4029 -29 c-3 -8 -6 -5 -6 6 -1 11 2 17 5 13 3 -3 4
-12 1 -19z m3909 10 c4 -5 -6 -9 -22 -9 -46 -2 -71 -6 -89 -13 -11 -4 -15 -2
-13 6 7 20 107 32 124 16z m454 -4 c0 -8 -4 -12 -10 -9 -5 3 -10 10 -10 16 0
5 5 9 10 9 6 0 10 -7 10 -16z m-614 -26 c-16 -12 -37 -40 -47 -62 -10 -23 -19
-34 -19 -25 0 26 58 109 77 109 14 -1 11 -6 -11 -22z m481 16 c-3 -3 -12 -4
-19 -1 -8 3 -5 6 6 6 11 1 17 -2 13 -5z m36 -196 l32 -1 -32 -4 -33 -4 -2 -77
-2 -77 -3 78 -4 78 -94 -3 c-59 -2 -95 1 -95 7 0 6 36 9 95 7 l95 -3 2 93 2
93 3 -92 4 -93 32 -2z m-746 140 c-3 -7 -5 -2 -5 12 0 14 2 19 5 13 2 -7 2
-19 0 -25z m229 -139 l59 -6 -63 -1 -63 -2 3 -224 3 -224 -35 5 c-46 8 -51 13
-12 13 30 0 32 2 32 35 0 32 -2 35 -24 29 -13 -3 -27 -1 -31 6 -10 17 13 39
36 33 19 -5 20 -1 19 163 0 93 0 180 0 194 1 23 2 23 9 5 6 -16 20 -21 67 -26z
m657 -6 c-7 -2 -19 -2 -25 0 -7 3 -2 5 12 5 14 0 19 -2 13 -5z m184 1 c-3 -3
-12 -4 -19 -1 -8 3 -5 6 6 6 11 1 17 -2 13 -5z m-550 -71 c-3 -10 -5 -2 -5 17
0 19 2 27 5 18 2 -10 2 -26 0 -35z m-2599 -100 c-10 -2 -18 -9 -18 -14 0 -14
11 -11 32 8 17 15 20 15 39 -5 21 -23 69 -30 69 -11 0 18 92 5 183 -25 43 -14
81 -25 85 -24 4 1 16 -2 27 -6 11 -5 45 -17 75 -29 60 -22 139 -65 155 -83 6
-6 37 -31 70 -55 83 -60 125 -100 125 -120 0 -10 8 -20 18 -24 11 -3 24 -17
31 -31 8 -19 16 -24 34 -20 12 3 16 3 10 0 -18 -8 -16 -41 2 -48 8 -3 15 -12
15 -20 0 -7 7 -17 16 -20 20 -8 33 2 18 12 -13 9 -26 42 -16 42 14 0 45 -70
44 -100 0 -17 3 -28 8 -25 5 3 14 -11 20 -30 6 -19 16 -35 21 -35 5 0 9 -8 9
-17 0 -10 7 -27 15 -37 8 -11 12 -29 9 -41 -6 -23 26 -98 46 -110 6 -4 10 5
10 21 0 40 8 25 13 -24 2 -24 9 -48 16 -55 6 -6 11 -24 11 -40 0 -25 -3 -28
-22 -22 -13 4 -29 14 -36 24 -12 14 -12 12 -7 -14 5 -21 4 -26 -3 -16 -16 23
-34 2 -28 -32 5 -27 5 -29 -4 -9 -21 49 -48 14 -51 -67 l-1 -26 -10 29 c-8 21
-13 25 -19 15 -5 -8 -9 -25 -10 -39 0 -23 -1 -23 -8 -5 -5 11 -7 23 -4 27 2 4
-3 5 -11 2 -17 -7 -17 -7 -21 -44 -4 -33 -11 -60 -24 -90 -10 -23 -11 -22 -6
12 l6 36 -43 -3 c-24 -2 -46 -4 -50 -4 -5 -1 -8 -26 -8 -56 0 -69 -16 -73 -18
-4 0 28 -3 53 -5 55 -2 2 -17 -2 -34 -8 -28 -10 -31 -16 -29 -49 1 -21 9 -46
17 -56 9 -10 20 -27 24 -38 l8 -20 5 20 c8 39 25 42 19 3 -4 -29 -2 -40 11
-47 16 -9 16 -10 0 -16 -11 -4 -18 -18 -18 -34 0 -14 -9 -59 -19 -98 -10 -40
-15 -73 -11 -73 20 0 77 26 87 39 6 9 14 34 18 56 l8 40 8 -35 c4 -20 4 -36
-2 -38 -5 -2 -9 -8 -9 -14 0 -5 -7 -17 -16 -26 -11 -11 -13 -17 -5 -20 21 -7
41 7 41 28 0 17 3 18 19 9 11 -7 26 -9 37 -4 11 5 22 8 26 7 8 -2 38 92 38
120 0 10 -7 21 -15 24 -8 4 -15 10 -15 15 0 4 6 6 14 3 11 -4 15 8 18 55 2 44
0 61 -9 61 -7 0 -14 -12 -14 -27 -2 -25 -2 -25 -6 -5 -3 13 3 35 12 49 10 14
18 48 20 75 1 27 5 52 9 55 4 4 6 -2 5 -13 -1 -10 -1 -34 -1 -52 2 -29 4 -32
22 -22 16 8 20 8 20 -4 0 -8 -5 -18 -11 -22 -7 -4 -9 -22 -6 -45 3 -25 1 -42
-7 -47 -7 -4 -18 -41 -24 -82 -6 -41 -15 -88 -18 -104 l-7 -30 34 20 c19 11
42 36 51 54 9 19 18 31 19 25 3 -19 18 71 18 113 1 23 5 42 10 42 6 0 8 -15 6
-32 -9 -75 -14 -138 -10 -138 2 0 13 10 25 22 14 15 20 17 20 7 0 -29 -13 -59
-24 -59 -7 0 -20 -20 -30 -45 -20 -48 -42 -51 -32 -4 4 24 3 27 -12 22 -29
-11 -49 -36 -62 -77 -8 -25 -15 -34 -20 -26 -6 9 -11 8 -19 -6 -9 -16 -10 -12
-5 20 6 37 6 38 -17 31 -38 -12 -69 -36 -70 -54 0 -11 -3 -9 -9 6 -8 20 -12
21 -42 10 -18 -7 -39 -18 -46 -24 -16 -15 -36 -17 -27 -3 3 6 1 10 -4 10 -6 0
-12 -8 -12 -17 -1 -17 -2 -17 -6 0 -3 11 -11 16 -26 13 -32 -7 -142 -19 -142
-15 0 1 -10 -3 -21 -9 -20 -10 -22 -9 -20 13 0 14 6 25 13 25 16 0 25 33 17
65 -4 17 -11 24 -20 21 -16 -6 -16 -4 -8 18 3 8 11 13 19 10 15 -6 25 25 25
83 0 34 -3 41 -15 37 -8 -4 -15 -1 -15 5 0 6 7 11 15 11 11 0 15 11 15 39 0
22 3 47 7 57 4 12 2 15 -8 12 -8 -3 -13 -11 -12 -17 2 -6 0 -10 -5 -10 -4 1
-9 1 -12 0 -3 -1 -25 -3 -49 -5 -25 -1 -46 -7 -48 -13 -5 -13 -43 -5 -43 8 0
5 7 9 15 9 8 0 15 4 15 9 0 12 -29 23 -41 15 -5 -3 -9 0 -9 5 0 6 7 11 15 11
20 0 19 16 0 24 -9 3 -15 16 -14 28 3 35 0 58 -8 58 -5 0 -8 -28 -8 -62 -1
-34 -5 -63 -11 -65 -5 -2 -8 13 -6 37 4 35 2 40 -17 40 -12 0 -21 5 -21 10 0
6 9 10 20 10 17 0 20 7 20 45 0 34 -4 45 -16 45 -14 0 -14 1 0 16 29 28 12 57
-30 52 -29 -4 -29 -4 -6 -14 23 -10 22 -11 -20 -27 -43 -17 -43 -17 -18 3 22
17 23 19 7 26 -28 10 -1 34 39 34 42 0 47 26 8 40 -34 13 -39 13 -25 -4 9 -11
7 -12 -13 -9 -17 4 -26 14 -30 36 -5 23 -9 28 -15 18 -6 -10 -13 -11 -27 -3
-11 6 -27 7 -41 1 -18 -7 -22 -5 -21 9 4 57 1 61 -44 49 -24 -6 -46 -15 -49
-20 -4 -5 -9 -5 -13 2 -4 6 -28 11 -54 12 -26 0 -56 5 -67 10 -14 6 -2 8 45 8
91 -2 100 -1 100 13 0 6 -3 8 -6 5 -7 -7 -29 20 -57 71 -10 18 -13 32 -8 32 6
0 11 8 12 18 0 9 5 1 11 -18 10 -34 10 -34 19 -11 7 19 12 22 21 13 17 -17 28
-15 22 3 -8 19 3 19 21 1 9 -9 10 -17 3 -24 -6 -6 -6 -12 0 -16 5 -3 15 1 22
9 9 11 8 19 -7 38 -10 13 -24 22 -30 20 -13 -5 -28 40 -19 55 3 5 0 14 -7 20
-17 15 -95 41 -102 34 -3 -3 -6 -44 -6 -91 -1 -47 -4 -74 -6 -58 -5 28 -21 35
-40 16 -9 -9 -10 -6 -6 10 4 16 11 21 24 18 17 -5 19 1 19 61 0 47 -3 63 -10
52 -8 -13 -10 -12 -10 3 0 9 -2 17 -4 17 -2 0 -12 3 -22 7 -13 5 -15 3 -9 -7
6 -9 4 -11 -4 -6 -7 5 -18 0 -26 -10 -8 -11 -15 -14 -15 -8 0 6 -20 22 -44 35
-38 19 -47 21 -60 10 -10 -8 -14 -21 -11 -32 5 -13 1 -19 -10 -19 -9 0 -15 -6
-12 -12 2 -7 9 -12 15 -11 6 2 30 -4 53 -12 24 -9 50 -13 59 -10 11 5 12 3 3
-6 -8 -8 -19 -9 -43 -1 -35 13 -80 -1 -80 -24 0 -8 -6 -11 -17 -7 -12 5 -15 2
-10 -10 3 -9 2 -19 -4 -22 -5 -4 -13 4 -18 17 -6 13 -10 17 -10 8 -1 -9 -16
-24 -33 -35 -18 -10 -38 -26 -45 -34 -7 -9 -13 -11 -13 -5 0 16 -83 26 -92 11
-5 -8 -8 -6 -8 6 0 10 8 17 19 17 11 0 22 8 26 19 7 23 45 68 45 54 0 -6 -9
-22 -20 -36 -29 -36 -25 -47 16 -47 29 0 44 8 70 36 19 19 34 39 34 43 0 11
-63 12 -70 1 -8 -13 -60 38 -59 58 0 14 3 13 16 -5 13 -19 17 -20 29 -9 7 8
19 16 26 18 9 3 7 12 -7 34 -39 60 -53 63 -57 10 -1 -14 -8 -26 -14 -26 -7 0
-10 8 -7 20 4 16 2 19 -12 14 -9 -4 -15 -14 -12 -23 3 -11 -2 -17 -14 -17 -11
0 -19 3 -19 7 0 4 -10 5 -22 2 -18 -4 -20 -2 -8 6 12 9 12 11 -3 17 -9 3 -14
10 -11 15 10 16 -6 31 -21 19 -10 -9 -13 -4 -12 22 2 26 -2 33 -15 32 -10 -1
-18 2 -18 7 0 5 5 9 11 9 6 0 9 7 5 15 -3 8 -1 15 3 15 5 0 12 -7 15 -16 4
-10 12 -14 22 -10 14 5 15 4 5 -8 -13 -16 -5 -39 27 -77 21 -24 34 -24 63 2
l24 20 -30 -6 c-20 -4 -27 -3 -20 3 6 6 19 12 29 14 23 4 34 28 13 28 -9 0
-19 9 -22 20 -7 22 -20 26 -30 10 -12 -20 -35 -11 -31 12 2 17 10 23 31 25 15
1 33 7 39 14 8 9 8 10 -1 5 -6 -3 -14 -2 -18 4 -3 5 -1 10 4 10 6 0 11 5 11
10 0 6 -17 11 -37 11 -36 1 -36 2 -9 8 l29 6 -26 14 c-36 19 -40 36 -9 39 14
1 34 10 45 20 19 16 20 16 14 0 -5 -14 -1 -18 18 -18 13 0 30 7 39 15 19 20
32 19 16 0 -17 -21 -4 -33 43 -40 33 -6 37 -4 37 14 0 12 2 21 4 21 2 0 13 3
23 7 16 6 17 5 3 -13 -14 -18 -14 -18 3 -5 10 8 16 19 14 25 -2 6 5 19 15 30
25 27 23 36 -9 37 -24 1 -23 3 12 12 56 17 63 23 57 53 -2 14 -7 22 -11 17 -9
-12 -101 -15 -101 -3 0 6 -11 10 -25 10 -14 0 -25 5 -25 10 0 6 -5 10 -11 10
-5 0 -8 -4 -5 -9 3 -5 -1 -11 -9 -15 -8 -3 -17 0 -21 5 -4 6 -20 8 -38 5 -17
-4 -52 -8 -78 -9 -38 -3 -44 -1 -30 9 45 31 100 39 255 39 149 0 160 1 176 21
13 16 25 20 55 16 33 -4 38 -2 33 12 -5 13 0 16 26 15 18 -1 24 -3 15 -6z
m-193 -29 c13 -5 14 -8 3 -15 -22 -14 -48 -11 -42 6 7 17 14 18 39 9z m1702
-46 c-3 -7 -5 -2 -5 12 0 14 2 19 5 13 2 -7 2 -19 0 -25z m-3780 -25 c-3 -10
-5 -2 -5 17 0 19 2 27 5 18 2 -10 2 -26 0 -35z m1722 -33 c65 -23 68 -26 41
-35 -12 -4 -24 -4 -27 -1 -4 3 2 6 13 6 18 1 18 1 2 11 -30 17 -88 0 -100 -30
-9 -22 -12 -23 -15 -8 -3 10 -2 25 1 33 3 8 5 17 5 20 0 4 5 11 13 15 7 5 13
9 13 9 0 0 24 -9 54 -20z m-1722 -27 c-3 -10 -5 -4 -5 12 0 17 2 24 5 18 2 -7
2 -21 0 -30z m1882 6 c-38 -35 -68 -53 -77 -45 -3 3 0 6 6 6 19 0 14 18 -5 23
-11 3 -8 5 9 6 15 0 42 10 60 21 45 27 46 25 7 -11z m2098 -1 c-3 -8 -6 -5 -6
6 -1 11 2 17 5 13 3 -3 4 -12 1 -19z m886 13 c4 0 7 -8 7 -16 0 -9 -9 -15 -25
-15 -14 0 -28 -1 -32 -2 -5 -2 -9 7 -11 19 -3 22 2 23 61 14z m-2873 -21 c0
-5 -2 -10 -4 -10 -3 0 -8 5 -11 10 -3 6 -1 10 4 10 6 0 11 -4 11 -10z m-440
-15 c0 -8 6 -12 14 -9 11 4 13 0 9 -17 -5 -17 -3 -21 8 -17 10 4 15 -1 16 -14
1 -14 -3 -18 -14 -14 -8 4 -22 1 -29 -5 -8 -6 -14 -7 -14 -2 0 5 -10 9 -22 8
-13 -2 -22 -8 -20 -14 1 -7 -2 -10 -8 -6 -5 3 -10 12 -10 20 0 7 -10 17 -22
21 -21 6 -20 8 13 35 37 31 79 38 79 14z m388 -12 c-10 -2 -28 -2 -40 0 -13 2
-5 4 17 4 22 1 32 -1 23 -4z m3038 -28 c-10 -8 -24 -11 -29 -8 -6 4 -2 10 9
14 31 12 40 9 20 -6z m-3275 -10 c-42 -19 -52 -19 -27 0 11 8 29 15 40 15 16
-1 12 -5 -13 -15z m3966 -154 c4 -74 9 -117 14 -106 5 13 8 -6 8 -49 1 -47 16
-127 51 -263 54 -210 57 -228 35 -199 -14 19 -15 17 -16 -20 l-1 -39 -8 45
c-4 25 -17 71 -28 103 -15 46 -21 54 -25 37 -3 -12 -10 -19 -16 -15 -6 3 -8
17 -5 31 5 21 2 26 -25 35 -17 6 -31 17 -31 25 0 10 8 9 33 -6 34 -21 62 -26
71 -11 3 5 -8 55 -25 112 -17 57 -31 117 -32 132 0 17 -3 24 -7 17 -8 -13 -12
-8 -24 24 -5 16 -4 17 9 6 13 -10 15 -9 15 7 0 10 -5 24 -12 31 -9 9 -9 12 1
12 13 0 12 65 -5 220 -4 38 -3 41 6 21 6 -13 13 -81 17 -150z m-4007 119 l25
-20 -32 12 c-18 7 -33 16 -33 20 0 13 13 9 40 -12z m3860 -12 c0 -5 -4 -8 -10
-8 -5 0 -10 10 -10 23 0 18 2 19 10 7 5 -8 10 -18 10 -22z m-1180 8 c0 -3 -4
-8 -10 -11 -5 -3 -10 -1 -10 4 0 6 5 11 10 11 6 0 10 -2 10 -4z m-2804 -28 c4
-6 3 -8 -4 -4 -6 3 -13 2 -17 -4 -3 -5 -11 -10 -16 -10 -11 0 12 29 23 30 4 0
10 -5 14 -12z m-1290 -65 c-10 -10 -19 5 -10 18 6 11 8 11 12 0 2 -7 1 -15 -2
-18z m3574 7 c0 -5 -9 -14 -20 -20 -19 -10 -20 -10 -8 9 13 22 28 28 28 11z
m-2135 -10 c-28 -12 -37 -12 -30 0 3 6 16 10 28 9 21 0 21 -1 2 -9z m3740 0
c-3 -5 -11 -10 -16 -10 -6 0 -7 5 -4 10 3 6 11 10 16 10 6 0 7 -4 4 -10z
m-2270 -10 c3 -5 1 -10 -4 -10 -6 0 -11 5 -11 10 0 6 2 10 4 10 3 0 8 -4 11
-10z m2237 -22 c-6 -6 -19 -7 -29 -3 -17 7 -17 8 2 15 24 9 41 2 27 -12z
m-3990 -58 c-12 -12 -22 -25 -22 -30 0 -6 -9 -10 -20 -10 -11 0 -20 5 -20 10
0 6 9 10 21 10 15 0 19 5 15 16 -3 8 -2 12 3 9 5 -3 12 -1 16 5 3 5 11 10 17
10 7 0 2 -9 -10 -20z m151 13 c-7 -2 -19 -2 -25 0 -7 3 -2 5 12 5 14 0 19 -2
13 -5z m3153 -9 c7 3 17 -1 24 -8 8 -11 3 -15 -25 -18 -26 -3 -35 0 -36 12 0
10 -2 11 -6 3 -3 -9 -27 -13 -71 -12 -71 0 -62 17 11 18 20 1 37 5 37 11 0 6
10 6 27 -1 14 -5 32 -8 39 -5z m-3193 -35 l22 0 -22 -11 c-18 -9 -21 -16 -16
-37 6 -26 6 -26 -14 -8 -16 14 -22 15 -27 5 -3 -7 -3 -2 0 11 5 21 3 23 -15
18 -12 -3 -19 -1 -16 3 3 5 -1 10 -7 13 -7 2 0 4 16 4 18 0 33 8 40 19 10 18
11 18 14 2 2 -10 13 -18 25 -19z m3367 12 c0 -5 -9 -7 -20 -4 -11 3 -20 7 -20
9 0 2 9 4 20 4 11 0 20 -4 20 -9z m-3250 -21 c0 -5 -2 -10 -4 -10 -3 0 -8 5
-11 10 -3 6 -1 10 4 10 6 0 11 -4 11 -10z m-1421 -47 c0 -5 -4 -17 -9 -28 -8
-18 -9 -17 -9 8 -1 15 4 27 9 27 6 0 10 -3 9 -7z m1451 -8 c0 -11 -54 -65 -64
-65 -6 1 0 10 13 21 13 11 21 22 17 26 -3 3 -14 -1 -24 -10 -10 -10 -22 -14
-25 -10 -4 4 10 15 30 24 40 19 53 22 53 14z m1705 -110 c24 -44 46 -96 50
-115 6 -28 -1 -21 -30 35 -21 39 -41 74 -46 80 -5 5 -9 19 -9 32 0 13 -4 23
-8 23 -9 0 -32 44 -32 58 1 13 31 -33 75 -113z m-1815 72 c9 -4 5 -6 -10 -4
-16 1 -26 9 -28 22 -2 18 -1 18 10 4 7 -9 20 -19 28 -22z m3672 -1 c5 -7 8 -6
8 3 0 11 4 11 18 -2 10 -10 24 -17 30 -17 6 0 15 -6 19 -12 12 -19 92 -58 106
-52 7 2 24 0 38 -5 13 -5 18 -10 11 -10 -7 -1 -10 -5 -7 -11 9 -14 42 -12 48
3 3 9 8 7 18 -5 8 -9 33 -26 57 -38 43 -23 62 -40 42 -40 -6 0 -24 7 -41 15
-22 12 -34 13 -49 5 -16 -9 -20 -21 -20 -69 0 -81 -12 -211 -19 -211 -7 0 -6
73 4 162 4 37 4 83 1 102 -7 35 -7 35 -38 21 -27 -11 -34 -11 -43 1 -5 8 -30
17 -55 20 -25 3 -60 9 -77 14 -20 5 -35 5 -39 -1 -3 -5 -13 -5 -24 1 -25 14
-121 -5 -138 -28 -9 -11 -12 -34 -9 -64 2 -27 1 -48 -2 -49 -3 0 -18 -2 -33
-4 -19 -2 -28 1 -28 11 0 8 7 14 15 14 8 0 15 7 15 15 0 8 5 15 10 15 6 0 10
13 10 29 0 33 -13 46 -32 34 -7 -4 -25 -6 -40 -4 -26 2 -84 -30 -73 -41 3 -3
-1 -5 -8 -5 -27 0 -127 -47 -127 -60 0 -17 15 -17 33 1 11 12 15 11 25 -4 9
-15 20 -18 49 -15 l38 5 -37 -13 c-20 -6 -40 -15 -43 -19 -4 -4 -23 -1 -42 7
-51 21 -78 4 -54 -34 8 -12 14 -13 36 -3 37 17 41 15 19 -9 -15 -17 -16 -22
-4 -29 11 -7 11 -13 3 -32 l-12 -23 0 26 c-1 32 -44 60 -63 41 -7 -7 -20 -12
-30 -12 -31 0 -120 -50 -125 -71 -3 -10 -14 -19 -24 -19 -28 0 -33 -24 -15
-61 19 -37 14 -48 -11 -28 -14 11 -14 9 2 -11 11 -13 29 -33 40 -43 20 -18 19
-18 -13 0 -18 10 -42 26 -53 36 -10 10 -19 14 -19 10 0 -4 -5 -1 -10 7 -14 22
-12 92 5 140 8 23 15 60 15 81 l0 39 -77 0 c-43 0 -84 4 -92 9 -10 6 -2 9 23
9 20 0 43 5 51 12 9 8 29 9 53 5 47 -8 76 14 67 49 -5 16 -4 18 4 6 8 -12 14
-10 39 13 15 15 32 24 36 20 4 -4 4 0 1 8 -13 34 155 147 230 156 17 2 80 9
140 17 117 15 255 10 267 -8z m95 -8 c-3 -7 -5 -2 -5 12 0 14 2 19 5 13 2 -7
2 -19 0 -25z m-3748 -34 c-6 -8 -19 -13 -28 -13 -14 1 -14 2 1 6 10 2 15 10
11 19 -4 10 0 12 11 8 13 -5 14 -9 5 -20z m-327 -19 c-2 -14 -8 -23 -12 -20
-10 6 -1 45 10 45 4 0 5 -11 2 -25z m3085 -7 c-3 -8 -6 -5 -6 6 -1 11 2 17 5
13 3 -3 4 -12 1 -19z m-3007 -38 c0 -5 -4 -10 -10 -10 -5 0 -10 5 -10 10 0 6
5 10 10 10 6 0 10 -4 10 -10z m240 -24 c0 -8 -7 -20 -17 -27 -15 -13 -15 -12
-4 9 6 12 9 28 5 34 -4 7 -3 8 4 4 7 -4 12 -13 12 -20z m170 14 c12 -8 11 -10
-7 -10 -13 0 -23 5 -23 10 0 13 11 13 30 0z m-1526 -134 c0 -70 -2 -126 -6
-126 -5 0 -8 59 -8 132 0 72 3 129 6 125 4 -3 7 -62 8 -131z m1419 127 c-7 -2
-19 -2 -25 0 -7 3 -2 5 12 5 14 0 19 -2 13 -5z m61 -7 c-3 -7 3 -16 13 -20 14
-6 15 -9 4 -15 -20 -13 -54 19 -39 36 14 17 29 17 22 -1z m283 -58 c-3 -7 -5
-2 -5 12 0 14 2 19 5 13 2 -7 2 -19 0 -25z m-158 -35 c1 -7 -3 -13 -8 -13 -11
0 -19 31 -13 50 4 11 7 10 13 -5 4 -11 8 -26 8 -32z m2064 35 c8 -22 -12 -48
-31 -41 -33 12 -43 25 -31 39 14 17 56 18 62 2z m-2673 -26 c0 -4 -9 -8 -19
-8 -15 0 -17 3 -9 13 10 12 28 9 28 -5z m2200 3 c0 -8 -2 -15 -4 -15 -2 0 -6
7 -10 15 -3 8 -1 15 4 15 6 0 10 -7 10 -15z m-1695 -16 c-4 -5 -13 -9 -22 -9
-13 0 -13 3 -3 15 13 15 35 11 25 -6z m-328 -5 c-3 -3 -12 -4 -19 -1 -8 3 -5
6 6 6 11 1 17 -2 13 -5z m56 -5 c7 -1 -1 -4 -18 -8 -23 -5 -30 -12 -29 -29 0
-15 -3 -19 -9 -13 -15 15 12 63 31 56 7 -3 19 -6 25 -6z m645 -31 c2 -12 -11
-16 -59 -21 -34 -3 -71 -1 -83 4 -19 8 -18 9 9 8 62 -2 85 1 97 16 16 17 32
14 36 -7z m-1077 -11 c-10 -9 -11 -8 -5 6 3 10 9 15 12 12 3 -3 0 -11 -7 -18z
m769 7 c0 -8 -5 -12 -10 -9 -6 4 -8 11 -5 16 9 14 15 11 15 -7z m40 -6 c0 -13
-5 -30 -10 -38 -7 -11 -9 -5 -8 23 1 39 18 53 18 15z m-354 -14 c-9 -9 -20
-14 -23 -10 -4 3 2 13 13 20 25 18 31 12 10 -10z m2709 16 c3 -5 1 -10 -4 -10
-6 0 -11 5 -11 10 0 6 2 10 4 10 3 0 8 -4 11 -10z m-2538 -21 c-5 -17 -2 -20
14 -16 30 8 22 -11 -12 -28 -35 -19 -45 -15 -30 12 5 10 12 26 15 36 8 24 19
21 13 -4z m227 12 c4 -5 -3 -7 -14 -4 -23 6 -26 13 -6 13 8 0 17 -4 20 -9z
m314 2 c-10 -2 -28 -2 -40 0 -13 2 -5 4 17 4 22 1 32 -1 23 -4z m2602 -23 c0
-5 -4 -10 -10 -10 -5 0 -10 5 -10 10 0 6 5 10 10 10 6 0 10 -4 10 -10z m-2813
-22 c-3 -8 -6 -5 -6 6 -1 11 2 17 5 13 3 -3 4 -12 1 -19z m167 -7 c-2 -3 -12
3 -22 13 -16 17 -16 18 5 5 12 -7 20 -15 17 -18z m3476 15 c0 -8 -4 -18 -10
-21 -6 -4 -4 -19 5 -42 l15 -35 -28 7 c-40 10 -45 19 -31 64 8 29 18 41 31 41
10 0 18 -6 18 -14z m-4020 -6 c0 -5 -4 -10 -10 -10 -5 0 -10 5 -10 10 0 6 5
10 10 10 6 0 10 -4 10 -10z m3709 -59 c-10 -3 -69 53 -69 65 0 3 18 -10 40
-28 21 -18 34 -35 29 -37z m-3332 17 c-3 -8 -6 -5 -6 6 -1 11 2 17 5 13 3 -3
4 -12 1 -19z m223 11 c0 -6 -7 -8 -16 -5 -9 4 -24 1 -33 -6 -14 -12 -14 -11
-2 5 15 19 51 23 51 6z m68 -90 c14 0 14 -2 2 -6 -8 -3 -18 -11 -22 -17 -5 -8
-8 -7 -8 2 0 6 -8 13 -17 13 -17 1 -17 2 0 6 13 3 17 16 19 56 l2 52 3 -52 c3
-41 8 -53 21 -54z m2079 59 c-3 -7 -5 -2 -5 12 0 14 2 19 5 13 2 -7 2 -19 0
-25z m-1884 -18 c-4 -25 -2 -30 13 -31 17 0 17 -1 2 -7 -9 -4 -54 -5 -100 -3
-46 2 -77 6 -70 8 10 4 10 8 0 21 -11 14 -9 14 12 -1 15 -11 44 -17 77 -17
l53 0 0 36 c0 20 4 33 10 29 5 -3 7 -19 3 -35z m82 30 c-3 -5 -21 -9 -38 -9
l-32 1 30 8 c43 11 47 11 40 0z m2729 -6 c5 -14 4 -15 -9 -4 -17 14 -19 20 -6
20 5 0 12 -7 15 -16z m276 6 c0 -5 -4 -10 -10 -10 -5 0 -10 5 -10 10 0 6 5 10
10 10 6 0 10 -4 10 -10z m289 -33 l-1 -32 -13 30 c-13 31 -11 50 6 40 5 -4 9
-21 8 -38z m-4399 2 c0 -5 -7 -9 -15 -9 -9 0 -12 6 -9 15 6 15 24 11 24 -6z
m117 -11 c-3 -8 -6 -5 -6 6 -1 11 2 17 5 13 3 -3 4 -12 1 -19z m433 12 c0 -5
-2 -10 -4 -10 -3 0 -8 5 -11 10 -3 6 -1 10 4 10 6 0 11 -4 11 -10z m-240 -35
c0 -19 -4 -35 -10 -35 -5 0 -8 15 -6 33 6 39 5 37 11 37 3 0 5 -16 5 -35z
m-613 3 c-3 -8 -6 -5 -6 6 -1 11 2 17 5 13 3 -3 4 -12 1 -19z m441 -13 c-3
-14 -2 -25 1 -25 3 0 12 -14 19 -30 8 -17 18 -28 23 -24 5 3 -2 -11 -16 -32
-14 -20 -25 -40 -25 -44 0 -26 117 -19 138 7 10 15 12 12 11 -18 0 -32 -16
-85 -19 -64 -2 13 -18 -26 -19 -45 0 -11 5 -9 18 7 17 20 20 21 37 7 18 -14
18 -15 -5 -8 -20 5 -23 3 -17 -11 18 -48 18 -63 -3 -74 -11 -7 -20 -15 -20
-19 4 -23 -15 -68 -29 -69 -9 -1 -27 -4 -39 -8 -14 -4 -23 -3 -23 3 0 9 36 25
53 23 4 -1 7 3 7 9 0 6 -4 10 -10 10 -5 0 -10 12 -11 28 0 15 -3 21 -6 15 -7
-18 -20 -16 -27 3 -9 23 13 46 35 39 11 -4 19 -3 19 2 -1 15 -27 43 -34 36 -4
-4 -5 -1 -2 7 13 35 -37 65 -101 61 -34 -2 -43 1 -43 13 0 12 6 15 25 10 14
-3 25 -2 26 2 3 34 11 51 31 68 24 19 25 40 3 62 -18 18 -25 7 -25 -37 0 -21
-4 -41 -10 -44 -9 -5 -7 43 4 90 13 59 44 105 34 50z m423 -5 c10 0 19 4 19 9
0 5 9 7 20 4 11 -3 27 0 35 7 22 18 31 4 12 -18 -20 -22 -22 -42 -5 -42 6 0 8
-3 5 -7 -4 -3 -2 -12 5 -20 8 -10 8 -20 -2 -38 -11 -21 -11 -27 4 -43 9 -11
14 -26 10 -36 -7 -19 -16 -20 -32 -4 -9 9 -12 9 -12 -2 0 -7 -3 -10 -7 -7 -3
4 2 17 13 29 17 19 17 21 2 15 -15 -5 -18 0 -18 28 0 19 -5 35 -11 35 -5 0 -7
5 -4 10 4 6 16 8 27 4 15 -4 18 -3 13 6 -4 7 -19 10 -35 6 -15 -3 -30 -2 -33
1 -8 7 18 33 32 33 6 0 11 5 11 11 0 7 -9 9 -22 5 -13 -3 -29 -6 -35 -6 -8 0
-14 -15 -14 -37 l-2 -38 -6 40 c-6 41 0 106 7 73 2 -10 12 -18 23 -18z m-654
-10 c2 -14 -3 -20 -17 -20 -16 0 -20 -7 -21 -32 -1 -32 -2 -31 -11 9 -5 25
-16 43 -26 46 -9 3 0 3 21 2 28 -2 37 1 37 13 0 21 13 7 17 -18z m138 20 c3
-5 -1 -10 -10 -10 -9 0 -13 5 -10 10 3 6 8 10 10 10 2 0 7 -4 10 -10z m347
-29 c-5 -3 -12 -15 -15 -26 -3 -11 -5 -3 -4 17 1 30 4 35 14 26 8 -6 10 -14 5
-17z m1655 -53 c-2 -18 -4 -6 -4 27 0 33 2 48 4 33 2 -15 2 -42 0 -60z m-1297
62 c-20 -13 -43 -13 -35 0 3 6 16 10 28 10 18 0 19 -2 7 -10z m2705 0 c3 -5 2
-10 -4 -10 -5 0 -13 5 -16 10 -3 6 -2 10 4 10 5 0 13 -4 16 -10z m948 -69 c3
-42 4 -77 3 -79 -2 -2 -8 25 -13 60 -6 35 -13 70 -17 79 -4 10 -2 16 7 16 11
0 16 -20 20 -76z m-3900 62 c-7 -2 -21 -2 -30 0 -10 3 -4 5 12 5 17 0 24 -2
18 -5z m180 0 c-7 -2 -21 -2 -30 0 -10 3 -4 5 12 5 17 0 24 -2 18 -5z m367
-16 c10 -4 8 -6 -7 -6 -19 -1 -23 -7 -23 -32 0 -28 2 -30 18 -18 16 13 16 12
1 -6 -9 -11 -19 -27 -22 -35 -3 -8 -6 12 -6 46 -1 58 6 84 18 66 3 -5 13 -12
21 -15z m3079 -8 c17 -17 31 -32 31 -33 0 -2 -11 -1 -24 1 -16 3 -28 15 -35
34 -13 36 -10 36 28 -2z m-2139 -72 c0 -18 -13 2 -27 41 -19 55 -15 63 7 13
11 -24 20 -48 20 -54z m580 89 c0 -3 -4 -8 -10 -11 -5 -3 -10 -1 -10 4 0 6 5
11 10 11 6 0 10 -2 10 -4z m98 -3 c-10 -2 -28 -2 -40 0 -13 2 -5 4 17 4 22 1
32 -1 23 -4z m162 -3 c0 -5 -2 -10 -4 -10 -3 0 -8 5 -11 10 -3 6 -1 10 4 10 6
0 11 -4 11 -10z m137 -6 c-3 -3 -12 -4 -19 -1 -8 3 -5 6 6 6 11 1 17 -2 13 -5z
m-2952 -75 c-4 -10 -1 -29 5 -41 11 -22 11 -22 -5 -3 -16 20 -16 20 -36 -5
-17 -21 -19 -22 -10 -3 6 12 16 25 21 28 15 10 12 52 -5 59 -8 3 -15 13 -15
23 0 14 5 12 25 -11 16 -18 23 -36 20 -47z m792 39 c-3 -7 -5 -2 -5 12 0 14 2
19 5 13 2 -7 2 -19 0 -25z m-1942 1 c11 -16 1 -19 -13 -3 -7 8 -8 14 -3 14 5
0 13 -5 16 -11z m-35 -9 c0 -5 -4 -10 -10 -10 -5 0 -10 5 -10 10 0 6 5 10 10
10 6 0 10 -4 10 -10z m1905 0 c7 -11 -9 -11 -45 0 -24 8 -24 8 7 9 17 1 35 -3
38 -9z m2092 -32 c-3 -7 -5 -2 -5 12 0 14 2 19 5 13 2 -7 2 -19 0 -25z m-1703
-9 c-32 -13 -50 -9 -24 5 14 7 29 10 34 8 5 -3 1 -9 -10 -13z m-2616 -16 c-15
-2 -42 -2 -60 0 -18 2 -6 4 27 4 33 0 48 -2 33 -4z m2029 -15 c-3 -8 -6 -5 -6
6 -1 11 2 17 5 13 3 -3 4 -12 1 -19z m1305 -21 c-6 -12 -13 -29 -15 -37 -3 -8
-6 -3 -6 13 -1 15 4 27 9 27 6 0 10 10 11 23 0 12 3 16 6 9 3 -8 1 -24 -5 -35z
m163 -45 c-9 -63 -21 -43 -16 30 3 53 5 59 13 38 5 -14 7 -44 3 -68z m52 66
c-3 -8 -6 -5 -6 6 -1 11 2 17 5 13 3 -3 4 -12 1 -19z m1807 -28 c9 -13 9 -13
-5 -3 -9 7 -19 10 -22 6 -9 -8 -9 11 0 34 7 17 8 17 11 -2 2 -11 9 -27 16 -35z
m-1044 0 c-16 -31 -23 -18 -8 15 7 15 14 23 16 17 2 -6 -2 -21 -8 -32z m403
-10 c-7 -8 -22 24 -16 34 4 5 10 1 13 -10 4 -10 6 -21 3 -24z m-3458 10 c3 -5
1 -10 -4 -10 -6 0 -11 5 -11 10 0 6 2 10 4 10 3 0 8 -4 11 -10z m772 -37 c-3
-10 -5 -2 -5 17 0 19 2 27 5 18 2 -10 2 -26 0 -35z m3870 15 c-3 -7 -5 -2 -5
12 0 14 2 19 5 13 2 -7 2 -19 0 -25z m-3697 2 c0 -5 7 -10 16 -10 8 0 12 -4 9
-10 -3 -5 -13 -10 -22 -10 -9 0 -13 3 -10 7 4 3 2 12 -4 20 -9 9 -8 13 0 13 6
0 11 -4 11 -10z m2450 -11 c0 -11 -3 -11 -24 -3 -23 9 -20 23 4 17 11 -3 20
-9 20 -14z m-4500 -29 c0 -5 -4 -10 -9 -10 -6 0 -13 5 -16 10 -3 6 1 10 9 10
9 0 16 -4 16 -10z m2148 -32 c1 -29 -1 -38 -7 -28 -7 12 -8 50 -2 68 4 11 7
-5 9 -40z m1762 38 c0 -3 -4 -8 -10 -11 -5 -3 -10 -1 -10 4 0 6 5 11 10 11 6
0 10 -2 10 -4z m228 -3 c-10 -2 -26 -2 -35 0 -10 3 -2 5 17 5 19 0 27 -2 18
-5z m112 3 c0 -3 -4 -8 -10 -11 -5 -3 -10 -1 -10 4 0 6 5 11 10 11 6 0 10 -2
10 -4z m240 -6 c3 -1 9 -2 14 -1 5 1 4 -5 -3 -13 -7 -9 -18 -13 -24 -9 -5 3
-18 -5 -29 -18 -18 -23 -19 -23 -13 -2 3 12 1 24 -5 28 -17 11 -3 21 27 19 15
-1 30 -3 33 -4z m320 -11 c7 -11 9 -27 6 -36 -9 -22 -36 3 -36 33 0 30 16 31
30 3z m-2933 -56 c-2 -16 -4 -5 -4 22 0 28 2 40 4 28 2 -13 2 -35 0 -50z
m-658 31 c13 -28 6 -48 -9 -24 -6 10 -10 6 -13 -16 -3 -20 -4 -14 -6 19 -1 52
10 61 28 21z m558 20 c-3 -3 -12 -4 -19 -1 -8 3 -5 6 6 6 11 1 17 -2 13 -5z
m26 -5 c-6 -6 -9 -19 -6 -28 4 -13 3 -13 -5 -2 -12 16 -5 41 11 41 8 0 8 -3 0
-11z m50 4 c-7 -2 -19 -2 -25 0 -7 3 -2 5 12 5 14 0 19 -2 13 -5z m525 -10
c-9 -2 -19 -14 -21 -26 -4 -18 -5 -17 -6 6 -1 22 3 27 22 26 15 -1 17 -3 5 -6z
m2142 -3 c0 -5 -4 -10 -10 -10 -5 0 -10 5 -10 10 0 6 5 10 10 10 6 0 10 -4 10
-10z m-1940 -24 c0 -3 -4 -8 -10 -11 -5 -3 -10 -1 -10 4 0 6 5 11 10 11 6 0
10 -2 10 -4z m480 -11 c-7 -9 -15 -13 -17 -11 -7 7 7 26 19 26 6 0 6 -6 -2
-15z m-1685 -5 c-3 -5 -11 -10 -16 -10 -6 0 -7 5 -4 10 3 6 11 10 16 10 6 0 7
-4 4 -10z m345 -31 c0 -5 -9 -1 -20 8 -11 10 -20 22 -20 27 0 5 9 1 20 -9 11
-10 20 -22 20 -26z m2440 -229 c44 0 80 3 80 8 0 4 -9 15 -20 25 -13 11 -20
29 -20 51 0 29 3 34 25 34 24 0 25 -3 25 -60 l0 -59 58 1 c83 2 106 1 99 -6
-3 -4 -40 -6 -82 -5 l-75 1 0 -59 c0 -50 3 -59 15 -55 8 4 15 1 15 -5 0 -6 19
-11 45 -11 l45 0 2 48 2 47 3 -47 c2 -28 9 -48 16 -49 7 -1 19 -2 27 -3 8 -2
35 -3 59 -4 24 -1 41 -5 38 -9 -4 -4 -32 -5 -62 -4 -45 2 -55 0 -55 -14 0 -27
72 -105 97 -105 13 0 23 -5 23 -11 0 -5 -6 -7 -12 -4 -17 9 29 -33 70 -64 78
-59 168 -195 202 -306 7 -22 16 -44 19 -50 4 -5 8 -28 9 -50 l1 -40 -10 34
c-13 44 -24 32 -20 -25 2 -31 -1 -44 -8 -40 -6 4 -11 16 -11 26 0 10 -4 22
-10 25 -5 3 -7 0 -4 -8 3 -8 1 -18 -5 -22 -6 -3 -11 0 -11 8 0 16 -91 41 -120
32 -25 -8 -26 -26 0 -55 11 -13 20 -29 20 -37 0 -7 6 -13 14 -13 8 0 17 -3 19
-7 3 -5 -6 -8 -19 -8 -16 0 -24 6 -24 18 0 9 -4 17 -10 17 -5 0 -10 -9 -10
-19 0 -11 -4 -23 -10 -26 -5 -3 -10 0 -10 7 0 9 -20 14 -66 16 l-66 2 4 -30
c3 -16 3 -30 2 -30 -1 0 -15 20 -30 44 -16 25 -39 48 -51 51 -13 3 -23 10 -23
16 0 6 5 7 10 4 6 -3 10 0 10 8 0 11 -11 14 -47 11 -27 -2 -56 -3 -67 -4 -13
0 -17 -5 -13 -19 2 -10 1 -25 -4 -32 -6 -10 -10 -4 -15 19 -6 31 -9 33 -37 28
-16 -3 -38 -6 -49 -6 -17 0 -19 -5 -14 -26 6 -23 5 -25 -8 -12 -8 8 -27 14
-43 12 -143 -12 -204 -13 -198 -4 3 5 -3 10 -14 10 -10 0 -28 3 -38 6 -16 6
-16 5 2 -9 19 -15 18 -16 -15 -11 -19 4 -48 6 -63 5 -23 0 -27 3 -18 13 8 9
-11 26 -82 71 -102 65 -112 73 -148 127 -14 21 -29 35 -34 30 -15 -14 5 78 30
134 58 132 219 263 368 299 15 4 27 14 27 22 0 12 3 13 14 4 15 -12 69 -5 61
9 -7 11 15 80 26 80 5 0 12 -7 15 -15 4 -8 11 -15 17 -15 6 0 1 10 -11 23 -12
13 -22 31 -22 39 0 13 -10 16 -50 14 -27 -1 -50 2 -50 6 0 4 41 8 90 8 l90 0
0 85 0 85 -67 2 -68 2 68 3 67 4 2 47 c1 26 4 -15 5 -90 l4 -138 79 0z m-970
235 c-7 -9 -15 -13 -17 -11 -7 7 7 26 19 26 6 0 6 -6 -2 -15z m-1420 1 c0 -3
-4 -8 -10 -11 -5 -3 -10 -1 -10 4 0 6 5 11 10 11 6 0 10 -2 10 -4z m1617 -38
c-3 -7 -5 -2 -5 12 0 14 2 19 5 13 2 -7 2 -19 0 -25z m-1622 -16 c-2 -3 -11 1
-20 8 -10 8 -15 9 -15 1 0 -6 -5 -11 -10 -11 -6 0 -5 8 2 20 11 18 14 18 30 3
10 -9 16 -18 13 -21z m2805 31 c5 -78 3 -123 -5 -126 -5 -2 -23 -1 -40 3 -23
4 -26 7 -13 12 9 4 26 5 37 3 18 -3 19 -1 8 15 -9 15 -9 27 0 49 8 21 8 32 0
40 -8 8 -8 11 1 11 7 0 12 -3 12 -7z m-4245 -14 c-30 -11 -157 -11 -150 1 3 5
43 9 88 8 51 0 75 -4 62 -9z m195 -16 c0 -12 -3 -14 -8 -6 -4 7 -39 13 -82 16
l-75 3 83 2 c72 2 82 0 82 -15z m946 3 c3 -8 12 -17 21 -20 11 -4 13 -2 9 9
-3 8 -1 15 4 15 6 0 10 -11 10 -25 0 -14 -5 -25 -11 -25 -11 0 -59 46 -59 56
0 10 21 3 26 -10z m2804 -12 c0 -2 -39 -3 -87 -2 l-88 2 75 5 c70 6 100 4 100
-5z m1487 -31 c-3 -10 -5 -2 -5 17 0 19 2 27 5 18 2 -10 2 -26 0 -35z m-4318
-33 c1 -13 0 -13 -9 0 -5 8 -9 24 -9 35 l0 20 9 -20 c5 -11 9 -27 9 -35z m241
24 c0 -8 -4 -12 -10 -9 -5 3 -10 10 -10 16 0 5 5 9 10 9 6 0 10 -7 10 -16z
m-62 -44 c7 -12 8 -20 2 -20 -5 0 -10 5 -10 11 0 5 -4 8 -9 5 -5 -3 -11 3 -14
13 -6 24 14 18 31 -9z m1140 24 c-4 -4 -76 -8 -160 -9 -84 -2 -126 0 -93 4 96
10 261 14 253 5z m-1258 -29 c19 -14 27 -25 19 -25 -8 0 -27 11 -43 25 -38 32
-20 32 24 0z m70 11 c0 -8 7 -22 16 -30 8 -9 12 -21 8 -27 -4 -8 0 -7 16 1 19
10 21 10 11 -7 -19 -36 4 -107 39 -117 12 -3 11 -4 -2 -5 -10 0 -25 10 -34 25
-10 14 -23 23 -31 20 -9 -4 -11 -1 -7 6 5 8 2 9 -10 5 -10 -4 -26 -7 -35 -7
-10 0 -23 -10 -29 -22 -10 -21 -11 -20 -5 7 6 27 5 29 -10 16 -9 -7 -19 -28
-23 -47 -6 -34 -17 -43 -29 -24 -3 6 -1 10 6 10 9 0 10 17 6 63 -5 42 -4 57 3
47 5 -8 10 -24 11 -35 0 -15 2 -16 6 -5 4 8 23 34 44 58 25 29 35 49 32 62 -3
11 0 20 6 20 6 0 11 -6 11 -14z m315 4 c7 -12 -2 -12 -30 0 -19 8 -19 9 2 9
12 1 25 -3 28 -9z m265 0 c0 -5 -4 -10 -10 -10 -5 0 -10 5 -10 10 0 6 5 10 10
10 6 0 10 -4 10 -10z m-417 -7 c-7 -2 -19 -2 -25 0 -7 3 -2 5 12 5 14 0 19 -2
13 -5z m627 -3 c0 -5 -2 -10 -4 -10 -3 0 -8 5 -11 10 -3 6 -1 10 4 10 6 0 11
-4 11 -10z m-493 -32 c-3 -8 -6 -5 -6 6 -1 11 2 17 5 13 3 -3 4 -12 1 -19z
m282 -80 c-2 -91 -3 -96 -8 -43 -6 54 -6 71 -2 128 0 9 3 17 6 17 3 0 4 -46 4
-102z m-2129 72 c13 -8 13 -10 -2 -10 -9 0 -20 5 -23 10 -8 13 5 13 25 0z
m1280 -5 c10 -12 10 -15 -4 -15 -9 0 -16 7 -16 15 0 8 2 15 4 15 2 0 9 -7 16
-15z m575 -25 c3 -11 1 -28 -5 -37 -9 -16 -10 -15 -8 7 1 14 -1 31 -5 38 -5 6
-4 12 2 12 5 0 12 -9 16 -20z m245 10 c0 -5 -2 -10 -4 -10 -3 0 -8 5 -11 10
-3 6 -1 10 4 10 6 0 11 -4 11 -10z m170 -10 c0 -5 -2 -10 -4 -10 -3 0 -8 5
-11 10 -3 6 -1 10 4 10 6 0 11 -4 11 -10z m3467 -12 c-3 -8 -6 -5 -6 6 -1 11
2 17 5 13 3 -3 4 -12 1 -19z m-5832 -8 c-3 -5 -12 -7 -20 -3 -21 7 -19 13 6
13 11 0 18 -4 14 -10z m132 3 c-20 -2 -52 -2 -70 0 -17 2 0 4 38 4 39 0 53 -2
32 -4z m73 -9 c0 -14 -3 -14 -15 -4 -8 7 -15 14 -15 16 0 2 7 4 15 4 8 0 15
-7 15 -16z m1100 0 c0 -8 -5 -12 -10 -9 -6 4 -8 11 -5 16 9 14 15 11 15 -7z
m185 6 c3 -5 -1 -10 -9 -10 -9 0 -16 5 -16 10 0 6 4 10 9 10 6 0 13 -4 16 -10z
m608 -6 c-6 -17 32 -27 56 -15 33 18 39 13 37 -33 0 -24 -3 -43 -7 -40 -13 8
-69 -21 -64 -34 2 -7 -2 -15 -10 -18 -10 -4 -13 -14 -9 -33 l6 -26 -16 22 c-9
12 -23 20 -30 17 -7 -3 -16 2 -19 10 -4 9 -13 16 -21 16 -12 0 -14 -5 -6 -26
6 -14 10 -40 9 -57 0 -24 -4 -16 -18 33 l-17 65 26 5 25 6 -30 28 -30 28 40
-21 c50 -26 57 -26 83 2 22 23 22 24 4 40 -10 10 -22 14 -25 10 -4 -3 -7 -1
-7 6 0 8 -7 10 -21 6 -19 -6 -20 -5 -8 8 16 18 59 19 52 1z m549 -24 c3 -16 1
-35 -4 -42 -4 -8 -8 4 -8 30 0 49 6 55 12 12z m2123 10 c18 -8 17 -9 -8 -9
-17 -1 -26 -5 -22 -12 4 -6 19 -7 36 -4 22 5 29 3 29 -9 0 -9 5 -16 11 -16 5
0 7 -4 4 -10 -9 -14 -78 -13 -93 2 -7 7 -12 25 -12 40 0 30 16 35 55 18z
m-1419 -41 c-9 -19 -15 -29 -16 -22 0 15 22 64 27 60 2 -2 -3 -19 -11 -38z
m-1401 12 c3 -5 1 -12 -5 -16 -5 -3 -10 1 -10 9 0 18 6 21 15 7z m742 -7 c-3
-3 -12 -4 -19 -1 -8 3 -5 6 6 6 11 1 17 -2 13 -5z m-607 -8 c0 -3 -4 -8 -10
-11 -5 -3 -10 -1 -10 4 0 6 5 11 10 11 6 0 10 -2 10 -4z m234 -20 c-3 -9 -12
-12 -22 -9 -15 6 -9 11 25 22 1 1 0 -5 -3 -13z m-364 -34 c-3 -44 -1 -52 16
-52 12 0 14 -3 6 -13 -6 -7 -9 -31 -8 -54 2 -26 -2 -44 -9 -47 -8 -3 -11 9 -9
41 1 35 -1 43 -13 39 -8 -3 -19 -6 -24 -6 -5 0 -9 -5 -9 -11 0 -21 -31 -40
-72 -45 -34 -3 -39 -2 -25 7 9 5 15 14 12 20 -4 5 -2 9 4 9 5 0 13 -5 16 -10
8 -13 33 0 75 39 34 31 35 65 2 74 -12 3 -10 5 6 6 19 1 22 5 17 22 -5 15 -4
19 5 14 6 -4 11 -19 10 -33z m778 30 l23 -7 -20 -21 c-11 -12 -25 -24 -31 -26
-7 -2 -7 -19 -1 -53 10 -53 1 -85 -24 -85 -17 0 -20 16 -5 25 14 9 12 42 -2
49 -10 5 -10 7 0 12 17 8 15 39 -3 54 -20 17 -26 10 -28 -33 -2 -31 -6 -36
-31 -40 -27 -4 -28 -3 -8 12 11 9 22 28 26 44 6 26 4 27 -31 29 l-38 1 38 4
c26 3 37 9 38 21 0 14 2 13 8 -3 7 -19 8 -19 27 3 19 23 24 24 62 14z m493
-19 c-12 -20 -14 -14 -5 12 4 9 9 14 11 11 3 -2 0 -13 -6 -23z m-926 -32 c-11
-5 -23 -7 -27 -4 -5 2 -8 -6 -8 -18 0 -18 -3 -20 -12 -11 -23 23 -28 11 -28
-78 0 -49 4 -90 9 -90 5 0 16 -3 24 -6 8 -3 23 3 32 13 13 13 20 14 23 5 2 -7
21 -12 43 -12 28 0 38 4 33 12 -5 8 -2 9 9 5 13 -5 18 2 24 31 l7 37 6 -34 c5
-33 6 -34 23 -17 17 18 18 17 11 -8 -6 -25 -4 -26 32 -27 l39 -1 -40 -13 c-22
-7 -34 -13 -27 -14 17 -1 15 -18 -3 -18 -8 0 -15 4 -15 9 0 5 -4 6 -10 3 -5
-3 -10 -15 -10 -26 0 -10 -4 -19 -10 -19 -5 0 -10 7 -10 16 0 8 -5 12 -11 9
-6 -4 -13 2 -16 14 -4 16 -13 21 -38 21 -29 0 -32 -2 -27 -25 2 -14 0 -25 -7
-25 -5 0 -8 -7 -5 -15 4 -8 2 -15 -4 -15 -5 0 -12 7 -16 15 -3 8 -2 15 3 15 5
0 9 11 9 26 0 23 -4 25 -37 22 l-36 -3 0 -90 c-1 -49 -4 -95 -8 -102 -4 -6 -4
-14 0 -16 10 -6 53 10 53 19 0 3 -7 4 -15 0 -8 -3 -15 -1 -15 3 0 13 34 24 38
12 4 -13 22 -15 22 -2 0 5 -16 15 -35 21 -19 6 -35 17 -35 23 0 8 4 7 12 -1
19 -19 48 -14 85 14 33 25 34 27 17 45 -24 26 -12 34 17 11 20 -17 21 -21 9
-35 -24 -25 -50 -57 -50 -62 0 -3 20 -5 44 -5 44 0 44 0 44 36 0 20 5 41 11
47 7 7 9 -3 8 -34 l-2 -44 40 -3 c25 -2 48 3 60 13 19 15 19 15 -7 9 -18 -4
-28 -2 -28 5 0 6 3 10 8 10 4 -1 15 -1 25 0 25 2 22 45 -5 64 -13 8 -20 18
-17 21 3 3 17 -3 32 -14 29 -23 48 -25 65 -8 14 14 16 88 2 88 -5 0 -10 5 -10
10 0 6 7 10 15 10 9 0 12 6 9 15 -8 21 9 19 30 -4 13 -15 14 -20 3 -29 -7 -6
-13 -21 -14 -34 -2 -19 2 -24 21 -23 24 0 105 59 95 69 -12 12 -48 -8 -53 -30
-9 -35 -23 -29 -22 9 1 26 6 32 26 35 49 5 70 13 70 24 0 6 8 20 18 31 9 10
25 38 35 60 10 23 15 31 13 17 -3 -14 -6 -35 -6 -48 0 -13 -4 -20 -10 -17 -5
3 -10 1 -10 -4 0 -6 5 -11 10 -11 6 0 10 -7 10 -15 0 -8 6 -15 13 -15 9 0 9
-2 0 -8 -12 -8 -29 -152 -17 -152 3 0 15 5 27 11 14 7 10 0 -12 -21 -22 -20
-30 -34 -23 -39 7 -4 8 -19 2 -46 -10 -45 0 -59 37 -50 29 7 21 -21 -9 -31
-11 -3 -17 -8 -14 -11 2 -3 19 3 36 13 21 13 30 25 26 37 -3 11 0 17 7 14 7
-2 11 -12 10 -21 0 -11 4 -15 13 -12 31 12 12 -6 -21 -20 -20 -8 -33 -19 -30
-24 3 -4 -5 -17 -18 -27 -13 -10 -22 -23 -20 -30 2 -6 -1 -14 -6 -18 -26 -15
-8 -22 19 -7 16 9 30 21 30 26 0 13 62 67 69 60 3 -2 -6 -15 -20 -27 -14 -12
-37 -38 -51 -57 -26 -36 -42 -52 -90 -95 -16 -13 -23 -27 -18 -30 6 -3 10 -2
10 3 0 5 9 12 20 15 62 16 -26 -57 -127 -105 -35 -17 -63 -36 -63 -43 0 -8 -9
-10 -25 -7 -17 3 -27 -1 -31 -12 -5 -13 -14 -15 -41 -10 -29 6 -35 3 -40 -15
-6 -25 -7 -25 -33 -9 -16 10 -24 9 -50 -11 -62 -45 -349 -75 -395 -41 -5 4
-29 11 -52 15 -27 4 -43 12 -43 21 0 8 -11 15 -27 15 -24 2 -25 2 -5 6 23 5
31 23 10 24 -51 2 -103 11 -117 20 -13 8 -11 9 11 5 15 -4 29 -2 32 3 7 10
-38 31 -67 31 -13 0 -30 9 -40 20 -21 25 -38 26 -31 3 4 -13 0 -12 -15 5 -14
16 -27 22 -41 17 -12 -4 -20 -2 -20 5 0 6 4 9 9 5 19 -11 24 18 6 32 -25 17
-11 17 18 -1 28 -18 127 -29 127 -15 0 6 -15 25 -32 42 -18 17 -27 27 -20 23
17 -10 15 15 -4 42 -8 12 -11 22 -6 22 4 0 16 -15 25 -32 9 -18 24 -46 34 -63
10 -16 19 -32 20 -34 2 -4 127 -31 129 -28 1 1 -2 12 -7 25 -7 18 -16 22 -49
22 -23 0 -40 5 -40 11 0 8 12 10 35 6 19 -3 37 -1 41 4 3 5 11 6 17 2 25 -15
44 -9 55 19 8 22 7 28 -3 28 -7 0 -15 -9 -18 -21 -4 -14 -10 -18 -19 -13 -7 5
-16 9 -20 9 -15 0 -20 15 -5 15 10 0 17 8 17 19 0 20 -13 37 -90 118 -22 23
-40 45 -40 50 1 4 9 -2 20 -15 10 -13 28 -24 38 -25 11 0 18 -6 16 -12 -3 -6
13 -29 34 -51 22 -22 41 -45 43 -51 3 -7 12 -7 27 -2 18 7 22 14 17 31 -10 32
-21 42 -40 34 -14 -5 -15 -9 -5 -21 18 -21 -4 -19 -22 3 -21 23 -29 72 -12 65
7 -2 10 -11 7 -19 -3 -8 1 -14 11 -14 9 0 16 5 16 11 0 6 6 7 12 2 18 -10 87
-13 112 -3 14 5 22 18 24 35 2 24 0 26 -15 14 -13 -11 -17 -11 -20 -1 -3 7
-22 12 -46 12 -34 1 -38 3 -24 11 9 5 21 8 26 5 15 -10 40 5 34 20 -3 8 0 14
6 14 6 0 11 -4 11 -10 0 -5 5 -10 11 -10 7 0 8 11 4 31 -7 29 -5 30 15 24 15
-5 20 -4 16 4 -9 14 -46 15 -46 1 0 -5 -4 -10 -10 -10 -5 0 -10 8 -10 18 0 10
-5 23 -12 30 -18 18 13 16 38 -3 21 -16 70 -20 78 -6 8 13 -19 44 -40 46 -32
4 -57 17 -45 24 14 9 -17 91 -35 91 -7 0 -16 5 -20 11 -5 9 1 10 20 5 25 -6
27 -5 21 16 -7 22 -6 21 18 -4 14 -16 35 -28 45 -28 12 0 22 -9 25 -22 8 -28
-1 -42 -17 -29 -7 6 -15 9 -18 6 -3 -3 -11 2 -19 11 -13 16 -12 17 8 12 13 -4
25 -3 28 2 3 4 -9 10 -25 12 -17 3 -30 2 -30 -1 0 -16 34 -91 41 -91 5 0 6 6
3 13 -3 8 4 13 17 14 17 2 19 0 8 -14 -11 -13 -10 -18 10 -34 28 -23 40 -24
47 -5 3 8 13 12 25 9 17 -5 19 0 19 40 0 39 -3 46 -24 51 -14 3 -32 3 -40 0
-9 -3 -16 -1 -16 5 0 6 14 11 30 11 35 0 35 1 14 43 l-17 32 27 -24 26 -24 0
90 c0 49 3 93 7 96 3 4 27 7 52 6 34 0 41 -3 26 -8z m138 -9 c-14 -14 -20 -15
-28 -5 -5 6 -26 14 -45 16 -21 2 -10 4 28 5 59 2 61 1 45 -16z m565 -36 c-7
-6 -19 -23 -25 -38 -7 -16 -19 -28 -28 -28 -19 0 -19 2 3 28 9 11 25 30 35 41
9 12 18 29 18 39 1 9 4 6 6 -7 3 -14 -1 -30 -9 -35z m2821 -53 c-5 -56 -13
-117 -19 -135 -10 -33 -10 -33 -5 7 3 22 8 78 11 125 5 82 11 117 18 109 1 -2
-1 -50 -5 -106z m-1082 55 c-3 -7 -5 -2 -5 12 0 14 2 19 5 13 2 -7 2 -19 0
-25z m286 25 c-7 -2 -21 -2 -30 0 -10 3 -4 5 12 5 17 0 24 -2 18 -5z m-3783
-13 c0 -5 -5 -10 -11 -10 -5 0 -7 5 -4 10 3 6 8 10 11 10 2 0 4 -4 4 -10z
m283 3 c-7 -2 -13 -9 -13 -15 0 -5 -9 -21 -19 -34 -19 -25 -20 -25 -31 -5 -9
17 -8 20 5 15 9 -4 17 1 22 12 7 21 23 34 38 33 6 0 4 -3 -2 -6z m1511 -25
c-4 -13 -8 -31 -9 -42 -1 -10 -15 -24 -34 -32 -46 -19 -63 -17 -23 2 17 9 32
23 32 30 0 22 1 28 11 47 14 25 32 21 23 -5z m-1807 -20 c-3 -8 -6 -5 -6 6 -1
11 2 17 5 13 3 -3 4 -12 1 -19z m3723 2 c0 -8 -41 -22 -47 -16 -2 2 -1 10 2
18 6 16 45 14 45 -2z m-1744 -25 c-11 -8 -22 -12 -25 -9 -6 6 19 24 34 24 6
-1 1 -7 -9 -15z m-1058 -15 c7 -11 11 -20 9 -20 -2 0 -12 9 -22 20 -10 11 -14
20 -9 20 5 0 15 -9 22 -20z m176 4 c11 -27 7 -37 -9 -24 -16 14 -20 40 -6 40
5 0 12 -7 15 -16z m-329 -5 c11 -17 -1 -21 -15 -4 -8 9 -8 15 -2 15 6 0 14 -5
17 -11z m2634 -41 c1 -5 -3 -8 -9 -8 -5 0 -10 12 -9 28 0 24 1 25 9 7 5 -11 9
-23 9 -27z m113 17 c3 -14 1 -25 -3 -25 -5 0 -9 11 -9 25 0 14 2 25 4 25 2 0
6 -11 8 -25z m246 -18 c9 -3 1 -5 -18 -5 -19 0 -29 2 -22 5 6 2 13 14 13 26
l2 22 4 -22 c2 -12 12 -24 21 -26z m729 -122 c-2 -60 -17 -168 -31 -240 -28
-135 -76 -308 -84 -301 -2 3 3 26 12 53 42 130 95 435 97 558 1 44 4 71 6 60
3 -11 3 -69 0 -130z m-2663 97 c-33 -30 -40 -43 -39 -69 2 -23 -2 -33 -16 -36
-11 -3 -19 -1 -19 4 0 5 4 9 9 9 13 0 20 35 11 51 -7 10 -11 10 -24 -1 -9 -7
-17 -11 -19 -9 -33 58 -36 76 -7 40 17 -19 23 -21 35 -11 8 7 15 19 15 26 0 8
5 14 10 14 6 0 10 -7 10 -16 0 -12 7 -10 31 10 47 40 49 31 3 -12z m-689 18
c3 -5 1 -10 -4 -10 -6 0 -11 5 -11 10 0 6 2 10 4 10 3 0 8 -4 11 -10z m342 4
c-3 -3 -12 -4 -19 -1 -8 3 -5 6 6 6 11 1 17 -2 13 -5z m1980 0 c-3 -3 -12 -4
-19 -1 -8 3 -5 6 6 6 11 1 17 -2 13 -5z m-2733 -53 c-10 -18 -10 -29 -2 -38 7
-9 7 -13 -1 -13 -6 0 -11 5 -11 10 0 14 -18 12 -23 -2 -2 -7 -3 -5 -2 5 2 9
-1 17 -6 17 -5 0 -9 5 -9 11 0 6 6 9 14 6 9 -4 16 4 20 24 5 25 8 28 19 17 11
-10 11 -17 1 -37z m1196 39 c0 -5 -5 -10 -11 -10 -5 0 -7 5 -4 10 3 6 8 10 11
10 2 0 4 -4 4 -10z m-1265 -20 c3 -6 -1 -7 -9 -4 -18 7 -21 14 -7 14 6 0 13
-4 16 -10z m-388 -37 c-3 -10 -5 -4 -5 12 0 17 2 24 5 18 2 -7 2 -21 0 -30z
m303 -3 c0 -5 -4 -10 -10 -10 -5 0 -10 5 -10 10 0 6 5 10 10 10 6 0 10 -4 10
-10z m1115 -40 c-3 -5 -11 -10 -16 -10 -6 0 -7 5 -4 10 3 6 11 10 16 10 6 0 7
-4 4 -10z m-1005 -25 c6 17 8 15 12 -13 2 -18 1 -35 -3 -38 -8 -5 -39 52 -38
70 0 6 5 0 11 -14 10 -24 10 -24 18 -5z m3877 -57 c-2 -13 -4 -3 -4 22 0 25 2
35 4 23 2 -13 2 -33 0 -45z m-3968 -4 c-6 -7 -7 -19 -3 -26 6 -9 3 -9 -9 1
-14 11 -23 11 -42 3 -15 -7 -26 -8 -30 -2 -4 6 -1 10 4 10 6 0 11 8 11 17 0
13 3 14 12 5 13 -13 48 -16 48 -4 0 4 -8 19 -17 32 l-16 25 26 -24 c20 -18 24
-28 16 -37z m1217 30 c19 7 18 -1 -6 -31 l-20 -26 1 44 c1 24 3 36 6 26 3 -11
11 -16 19 -13z m-3049 -21 c-3 -10 -5 -4 -5 12 0 17 2 24 5 18 2 -7 2 -21 0
-30z m2963 32 c0 -8 -61 -37 -67 -32 -3 3 8 12 24 21 29 16 43 19 43 11z
m-476 -31 c8 -21 -12 -17 -24 6 -8 16 -8 18 4 14 8 -3 17 -12 20 -20z m-836
-34 c9 0 12 6 8 17 -6 14 -2 12 17 -5 18 -17 26 -19 35 -10 9 9 12 9 12 0 0
-7 -5 -12 -11 -12 -6 0 -8 -7 -5 -16 4 -10 2 -13 -7 -7 -6 4 -23 8 -35 8 -21
1 -23 -3 -18 -27 9 -44 -2 -33 -14 15 -21 79 -21 85 -9 60 7 -13 19 -23 27
-23z m-171 12 c12 -9 24 -30 28 -47 5 -27 4 -28 -6 -8 -6 12 -21 23 -33 25
-13 2 -22 12 -24 26 -4 26 5 28 35 4z m1400 12 c-3 -3 -12 -4 -19 -1 -8 3 -5
6 6 6 11 1 17 -2 13 -5z m-1452 -14 c3 -5 1 -10 -4 -10 -6 0 -11 5 -11 10 0 6
2 10 4 10 3 0 8 -4 11 -10z m4340 0 c3 -5 1 -10 -4 -10 -6 0 -11 5 -11 10 0 6
2 10 4 10 3 0 8 -4 11 -10z m-4365 -21 c0 -4 -7 -6 -15 -3 -8 4 -15 10 -15 15
0 4 7 6 15 3 8 -4 15 -10 15 -15z m1610 -19 c0 -5 -4 -10 -10 -10 -5 0 -10 5
-10 10 0 6 5 10 10 10 6 0 10 -4 10 -10z m-1077 -35 c-3 -8 -1 -15 5 -15 5 0
9 -12 8 -26 l-1 -26 -28 34 c-22 26 -25 34 -12 36 8 2 15 8 15 13 0 6 4 8 10
4 5 -3 7 -12 3 -20z m-436 -37 c-3 -8 -6 -5 -6 6 -1 11 2 17 5 13 3 -3 4 -12
1 -19z m3 -61 c0 -7 -6 -3 -12 8 -6 11 -16 27 -22 35 -6 9 -1 5 12 -8 12 -13
22 -28 22 -35z m4281 -35 c-6 -2 -11 -11 -11 -19 0 -9 -3 -14 -6 -11 -3 3 0
26 7 49 13 42 13 43 17 14 2 -16 -1 -31 -7 -33z m-2786 18 c3 -5 1 -10 -4 -10
-6 0 -11 5 -11 10 0 6 2 10 4 10 3 0 8 -4 11 -10z m-55 -30 c-8 -5 -22 -9 -30
-9 -10 0 -8 3 5 9 27 12 43 12 25 0z m-2943 -67 c-3 -10 -5 -4 -5 12 0 17 2
24 5 18 2 -7 2 -21 0 -30z m5760 5 c-3 -7 -5 -2 -5 12 0 14 2 19 5 13 2 -7 2
-19 0 -25z m-5867 12 c0 -5 -4 -10 -9 -10 -6 0 -13 5 -16 10 -3 6 1 10 9 10 9
0 16 -4 16 -10z m3755 -27 c14 -34 23 -83 15 -83 -4 0 -10 8 -13 18 -3 9 -10
32 -15 50 -11 33 0 46 13 15z m755 -23 c0 -5 -5 -10 -11 -10 -5 0 -7 5 -4 10
3 6 8 10 11 10 2 0 4 -4 4 -10z m1317 -60 c-4 -29 -2 -38 6 -34 9 5 9 4 0 -6
-20 -22 -29 -6 -20 38 10 53 21 55 14 2z m-2102 -7 c5 -19 2 -23 -14 -23 -21
0 -26 15 -15 45 8 19 19 10 29 -22z m717 -63 c4 8 9 22 11 30 4 12 6 12 6 -2
2 -32 -18 -68 -34 -62 -9 4 -15 1 -15 -7 0 -10 -3 -10 -12 -1 -10 10 -10 15
-1 20 6 4 15 30 19 57 l9 50 5 -50 c3 -27 9 -43 12 -35z m-145 48 c-3 -8 -6
-5 -6 6 -1 11 2 17 5 13 3 -3 4 -12 1 -19z m-537 -24 c-18 -21 -24 -10 -8 15
7 12 14 17 16 11 2 -6 -2 -17 -8 -26z m-3653 -26 c-3 -7 -5 -2 -5 12 0 14 2
19 5 13 2 -7 2 -19 0 -25z m3608 2 c3 -5 1 -10 -4 -10 -6 0 -11 5 -11 10 0 6
2 10 4 10 3 0 8 -4 11 -10z m955 -6 c0 -8 -4 -12 -10 -9 -5 3 -10 10 -10 16 0
5 5 9 10 9 6 0 10 -7 10 -16z m-923 -16 c-3 -8 -6 -5 -6 6 -1 11 2 17 5 13 3
-3 4 -12 1 -19z m2066 -22 c-3 -22 -9 -33 -13 -26 -6 11 10 74 17 67 1 -2 0
-20 -4 -41z m-1023 27 c0 -5 -5 -15 -10 -23 -8 -12 -10 -11 -10 8 0 12 5 22
10 22 6 0 10 -3 10 -7z m894 -104 c-33 -96 -63 -165 -50 -114 12 45 79 225 83
222 2 -2 -13 -51 -33 -108z m-3764 51 c8 -5 11 -10 5 -10 -5 0 -17 5 -25 10
-8 5 -10 10 -5 10 6 0 17 -5 25 -10z m2816 -10 c12 0 25 6 27 13 3 7 6 4 6 -6
1 -15 -6 -18 -36 -15 -22 2 -38 9 -41 18 -4 12 -2 13 9 3 7 -7 23 -13 35 -13z
m-4626 -7 c0 -5 -26 -7 -57 -5 -101 5 -111 9 -25 11 45 0 82 -2 82 -6z m4008
-31 c18 -23 15 -32 -9 -32 -17 0 -19 3 -10 14 8 10 9 16 1 21 -5 3 -13 -1 -16
-9 -9 -24 -21 -19 -18 7 1 12 3 23 3 24 3 7 38 -12 49 -25z m80 -29 c-10 -2
-26 -2 -35 0 -10 3 -2 5 17 5 19 0 27 -2 18 -5z m-4015 -144 l72 -2 -85 -7
c-78 -7 -114 -4 -82 7 7 3 13 28 14 66 l2 62 3 -62 4 -63 72 -1z m-230 84 c-5
-12 -2 -15 9 -10 12 4 14 1 11 -14 -3 -10 -9 -19 -13 -19 -12 0 -23 38 -15 50
10 16 15 12 8 -7z m154 -145 c-3 -7 -5 -2 -5 12 0 14 2 19 5 13 2 -7 2 -19 0
-25z m3909 -13 c-20 -21 -26 -19 -26 9 0 28 21 40 33 19 5 -8 2 -19 -7 -28z
m-4076 -67 c0 -16 -3 -19 -11 -11 -6 6 -8 16 -5 22 11 17 16 13 16 -11z m85
-18 c-3 -5 -12 -10 -18 -10 -7 0 -6 4 3 10 19 12 23 12 15 0z m4995 -33 c0 -5
-4 -5 -10 -2 -5 3 -10 14 -10 23 0 15 2 15 10 2 5 -8 10 -19 10 -23z m-2000
-37 c0 -5 -2 -10 -4 -10 -3 0 -8 5 -11 10 -3 6 -1 10 4 10 6 0 11 -4 11 -10z
m-3040 -30 c0 -5 -4 -10 -10 -10 -5 0 -10 5 -10 10 0 6 5 10 10 10 6 0 10 -4
10 -10z m5515 -40 c-4 -6 -1 -18 7 -27 10 -14 10 -15 0 -9 -8 5 -19 1 -28 -10
-13 -17 -13 -16 -4 10 12 34 19 46 26 46 3 0 2 -5 -1 -10z m-95 -187 c-55
-103 -87 -151 -128 -193 -24 -24 -24 -24 -13 -2 7 12 9 27 6 32 -3 5 1 7 9 4
17 -6 61 57 129 185 20 39 40 71 43 71 3 0 -18 -44 -46 -97z m-5360 51 c0 -11
-8 -14 -32 -12 -46 4 -49 28 -4 28 26 0 36 -4 36 -16z m3238 -1 c-10 -2 -26
-2 -35 0 -10 3 -2 5 17 5 19 0 27 -2 18 -5z m-3318 -55 c0 -16 -3 -19 -11 -11
-6 6 -8 16 -5 22 11 17 16 13 16 -11z m310 -58 c0 -5 -4 -10 -10 -10 -5 0 -10
5 -10 10 0 6 5 10 10 10 6 0 10 -4 10 -10z m2747 -32 c-3 -8 -6 -5 -6 6 -1 11
2 17 5 13 3 -3 4 -12 1 -19z m1990 -80 c-2 -13 -4 -3 -4 22 0 25 2 35 4 23 2
-13 2 -33 0 -45z m-283 11 c-6 -11 -24 -2 -24 11 0 5 7 7 15 4 8 -4 12 -10 9
-15z m-409 2 c3 -5 1 -12 -5 -16 -5 -3 -10 1 -10 9 0 18 6 21 15 7z m-1292
-38 c-1 -21 -2 -121 -2 -222 -1 -101 -4 -182 -7 -178 -3 3 -6 81 -5 174 0 92
-4 175 -9 183 -5 9 -5 19 2 27 6 7 8 22 5 33 -3 11 0 20 6 20 7 0 11 -15 10
-37z m624 31 c-3 -3 -12 -4 -19 -1 -8 3 -5 6 6 6 11 1 17 -2 13 -5z m140 0
c-3 -3 -12 -4 -19 -1 -8 3 -5 6 6 6 11 1 17 -2 13 -5z m344 -92 c-4 -54 -11
-53 -11 3 0 27 3 45 7 41 4 -4 6 -24 4 -44z m121 31 c22 -20 25 -73 4 -73 -20
0 -27 13 -31 55 -3 39 1 42 27 18z m295 -440 c16 -12 16 -13 -1 -13 -15 0 -17
-9 -15 -75 2 -41 0 -77 -4 -81 -4 -4 -7 0 -7 9 0 10 -6 17 -12 18 -10 0 -10 2
0 6 18 7 16 122 -3 129 -13 5 -13 8 0 21 18 17 19 55 3 71 -9 9 -9 12 0 12 15
0 17 176 2 185 -6 4 -7 12 -3 18 4 7 8 19 8 27 1 8 3 40 6 70 2 30 5 -44 6
-165 3 -192 5 -222 20 -232z m683 428 c-5 -11 -15 -23 -21 -27 -6 -3 -3 5 6
20 20 30 30 35 15 7z m-50 -81 c-6 -11 -13 -20 -16 -20 -2 0 0 9 6 20 6 11 13
20 16 20 2 0 0 -9 -6 -20z m-1048 -25 c2 -19 0 -35 -4 -35 -4 0 -8 16 -8 35 0
19 2 35 4 35 2 0 6 -16 8 -35z m-344 -26 c13 0 13 -2 -3 -8 -29 -12 -48 -3
-32 14 7 7 14 9 15 4 2 -5 11 -9 20 -10z m162 -684 l-5 -40 -3 38 -3 38 -77
-3 -77 -3 -6 -42 c-8 -62 -14 -60 -14 5 l0 57 88 -3 87 -3 0 100 c0 74 -3 101
-12 102 -10 0 -10 2 0 6 8 3 12 35 12 109 0 101 -1 104 -22 105 l-23 2 23 4
c21 4 22 9 22 104 0 96 -1 99 -22 100 -22 1 -22 1 2 8 l25 7 5 -326 c3 -179 3
-343 0 -365z m370 686 c0 -6 -4 -13 -10 -16 -5 -3 -10 1 -10 9 0 9 5 16 10 16
6 0 10 -4 10 -9z m-933 -7 c-3 -3 -12 -4 -19 -1 -8 3 -5 6 6 6 11 1 17 -2 13
-5z m126 -1 c-7 -2 -19 -2 -25 0 -7 3 -2 5 12 5 14 0 19 -2 13 -5z m214 1 c-3
-3 -12 -4 -19 -1 -8 3 -5 6 6 6 11 1 17 -2 13 -5z m146 -1 c-13 -2 -33 -2 -45
0 -13 2 -3 4 22 4 25 0 35 -2 23 -4z m210 0 c-18 -2 -48 -2 -65 0 -18 2 -4 4
32 4 36 0 50 -2 33 -4z m100 0 c-7 -2 -19 -2 -25 0 -7 3 -2 5 12 5 14 0 19 -2
13 -5z m90 0 c-13 -2 -33 -2 -45 0 -13 2 -3 4 22 4 25 0 35 -2 23 -4z m360 0
c-7 -2 -21 -2 -30 0 -10 3 -4 5 12 5 17 0 24 -2 18 -5z m87 3 c0 -3 -4 -8 -10
-11 -5 -3 -10 -1 -10 4 0 6 5 11 10 11 6 0 10 -2 10 -4z m295 -41 c-1 -24 -4
-47 -8 -51 -4 -4 -7 16 -7 44 0 29 3 52 8 52 4 0 7 -20 7 -45z m99 -24 l-27
-26 21 29 c12 16 23 36 23 45 1 12 2 11 6 -3 3 -12 -5 -28 -23 -45z m-966 2
c9 -8 11 -13 4 -13 -7 0 -12 -10 -13 -22 -1 -22 -1 -22 -9 2 -4 14 -8 39 -8
55 0 19 2 23 5 10 3 -11 12 -26 21 -32z m560 -130 c-1 -87 -3 -103 -7 -63 -6
56 -3 180 5 180 2 0 3 -53 2 -117z m-936 -126 c2 -73 -1 -117 -7 -117 -6 0 -9
41 -7 110 l3 110 -108 2 -108 2 108 3 107 4 2 62 2 62 3 -60 c1 -33 4 -113 5
-178z m-2182 213 c0 -5 -4 -10 -10 -10 -5 0 -10 5 -10 10 0 6 5 10 10 10 6 0
10 -4 10 -10z m-40 -20 c0 -5 -7 -10 -16 -10 -8 0 -12 5 -9 10 3 6 10 10 16
10 5 0 9 -4 9 -10z m2053 -7 c-13 -2 -33 -2 -45 0 -13 2 -3 4 22 4 25 0 35 -2
23 -4z m-806 -80 c-3 -10 -5 -4 -5 12 0 17 2 24 5 18 2 -7 2 -21 0 -30z m720
5 c-3 -7 -5 -2 -5 12 0 14 2 19 5 13 2 -7 2 -19 0 -25z m809 5 c-2 -2 -21 -6
-42 -9 -40 -5 -38 10 1 18 21 5 49 -1 41 -9z m-4119 -107 c44 -39 82 -75 82
-80 1 -10 -50 34 -136 116 -35 33 -60 64 -57 70 4 5 11 0 18 -13 6 -12 48 -54
93 -93z m3078 104 c3 -5 1 -10 -4 -10 -6 0 -11 5 -11 10 0 6 2 10 4 10 3 0 8
-4 11 -10z m1148 3 c-18 -2 -48 -2 -65 0 -18 2 -4 4 32 4 36 0 50 -2 33 -4z
m-586 -9 c-3 -3 -12 -4 -19 -1 -8 3 -5 6 6 6 11 1 17 -2 13 -5z m40 0 c-3 -3
-12 -4 -19 -1 -8 3 -5 6 6 6 11 1 17 -2 13 -5z m211 -1 c-27 -2 -69 -2 -95 0
-27 2 -5 3 47 3 52 0 74 -1 48 -3z m-2201 -90 c-3 -10 -5 -4 -5 12 0 17 2 24
5 18 2 -7 2 -21 0 -30z m1141 -124 c14 0 13 -2 -3 -9 -11 -4 -22 -5 -25 -1 -3
3 -3 44 0 91 l5 85 3 -82 c2 -70 5 -83 20 -84z m-1120 4 c14 -11 11 -13 -18
-13 -26 0 -31 3 -22 12 7 7 13 21 13 33 1 20 1 20 6 0 3 -11 12 -26 21 -32z
m-748 3 c0 -3 -4 -8 -10 -11 -5 -3 -10 -1 -10 4 0 6 5 11 10 11 6 0 10 -2 10
-4z m522 -18 c-7 -7 -12 -8 -12 -2 0 14 12 26 19 19 2 -3 -1 -11 -7 -17z m108
12 c0 -5 -5 -10 -11 -10 -5 0 -7 5 -4 10 3 6 8 10 11 10 2 0 4 -4 4 -10z m330
0 c0 -5 -4 -10 -10 -10 -5 0 -10 5 -10 10 0 6 5 10 10 10 6 0 10 -4 10 -10z
m1155 0 c3 -5 1 -10 -4 -10 -6 0 -11 5 -11 10 0 6 2 10 4 10 3 0 8 -4 11 -10z
m245 0 c0 -5 -4 -10 -10 -10 -5 0 -10 5 -10 10 0 6 5 10 10 10 6 0 10 -4 10
-10z m-302 -7 c-10 -2 -26 -2 -35 0 -10 3 -2 5 17 5 19 0 27 -2 18 -5z m-128
-84 c0 -5 -6 -7 -12 -4 -7 4 -2 -3 12 -15 22 -19 22 -22 5 -18 -33 5 -51 48
-20 48 8 0 15 -5 15 -11z m-2555 -9 c3 -5 1 -10 -4 -10 -6 0 -11 5 -11 10 0 6
2 10 4 10 3 0 8 -4 11 -10z m3224 -55 l0 -20 -9 20 c-5 11 -9 27 -9 35 -1 13
0 13 9 0 5 -8 9 -24 9 -35z m-252 -17 c-2 -13 -4 -5 -4 17 -1 22 1 32 4 23 2
-10 2 -28 0 -40z m790 0 c-3 -8 -6 -5 -6 6 -1 11 2 17 5 13 3 -3 4 -12 1 -19z
m-569 -34 c-6 -21 -13 -33 -15 -26 -3 8 -34 12 -104 12 l-99 0 1 -151 c1 -82
-2 -153 -5 -156 -3 -4 -6 3 -6 15 0 13 -6 22 -16 22 -8 0 -12 5 -9 10 4 6 11
8 16 5 5 -4 9 46 9 124 0 93 -3 131 -12 131 -6 0 -9 3 -5 6 3 4 57 6 120 5
l115 -2 6 27 c4 14 9 24 11 22 3 -2 -1 -22 -7 -44z m-2919 -14 c4 0 12 5 19
12 20 20 15 -7 -8 -44 -20 -32 -21 -32 -14 -5 6 25 4 27 -27 28 -31 0 -32 1
-11 9 12 5 23 15 23 22 1 7 3 5 6 -4 2 -10 8 -18 12 -18z m-74 -8 c-3 -3 -11
0 -18 7 -9 10 -8 11 6 5 10 -3 15 -9 12 -12z m353 11 c-15 -2 -42 -2 -60 0
-18 2 -6 4 27 4 33 0 48 -2 33 -4z m2345 0 c-24 -2 -62 -2 -85 0 -24 2 -5 4
42 4 47 0 66 -2 43 -4z m-2716 -55 c-3 -7 -5 -2 -5 12 0 14 2 19 5 13 2 -7 2
-19 0 -25z m1130 -5 c-8 -15 -23 -56 -32 -91 -10 -34 -20 -61 -22 -58 -6 5 26
113 45 153 9 18 17 31 20 29 2 -2 -3 -17 -11 -33z m2680 -55 c-3 -7 -5 -2 -5
12 0 14 2 19 5 13 2 -7 2 -19 0 -25z m-760 -50 c-2 -13 -4 -5 -4 17 -1 22 1
32 4 23 2 -10 2 -28 0 -40z m2 -90 c-1 -40 -3 -54 -8 -39 -6 23 -3 101 5 101
2 0 4 -28 3 -62z m441 22 c0 -5 -5 -10 -11 -10 -5 0 -7 5 -4 10 3 6 8 10 11
10 2 0 4 -4 4 -10z m-599 -33 c-10 -9 -11 -8 -5 6 3 10 9 15 12 12 3 -3 0 -11
-7 -18z m-431 -21 c0 -3 -4 -8 -10 -11 -5 -3 -10 -1 -10 4 0 6 5 11 10 11 6 0
10 -2 10 -4z m0 -46 c-17 -17 -19 -24 -9 -36 7 -9 8 -14 1 -14 -6 0 -14 5 -17
11 -4 6 -14 8 -24 5 -9 -3 2 10 24 28 43 37 60 41 25 6z m590 -10 c0 -5 -2
-10 -4 -10 -3 0 -8 5 -11 10 -3 6 -1 10 4 10 6 0 11 -4 11 -10z m-763 -57 c-3
-10 -5 -2 -5 17 0 19 2 27 5 18 2 -10 2 -26 0 -35z m28 -42 c-5 -17 0 -20 37
-24 l43 -4 -47 -1 c-41 -2 -48 1 -48 16 0 17 8 32 17 32 3 0 2 -9 -2 -19z
m512 -107 c-3 -3 -12 -4 -19 -1 -8 3 -5 6 6 6 11 1 17 -2 13 -5z"/>
<path d="M3887 5494 c4 -10 13 -14 27 -10 11 3 26 6 31 7 15 1 -27 17 -47 18
-12 1 -15 -4 -11 -15z"/>
<path d="M3845 5490 c3 -5 8 -10 11 -10 2 0 4 5 4 10 0 6 -5 10 -11 10 -5 0
-7 -4 -4 -10z"/>
<path d="M3640 5480 c8 -5 26 -10 40 -10 20 0 22 2 10 10 -8 5 -26 10 -40 10
-20 0 -22 -2 -10 -10z"/>
<path d="M3820 5429 c0 -5 5 -7 10 -4 6 3 10 8 10 11 0 2 -4 4 -10 4 -5 0 -10
-5 -10 -11z"/>
<path d="M3870 5420 c0 -5 5 -10 11 -10 5 0 7 5 4 10 -3 6 -8 10 -11 10 -2 0
-4 -4 -4 -10z"/>
<path d="M3748 5369 c-24 -26 -23 -29 10 -28 15 0 21 3 15 6 -9 3 -10 10 -3
24 13 24 0 23 -22 -2z"/>
<path d="M3434 5248 c-2 -3 14 -9 36 -13 36 -6 67 -25 41 -25 -14 0 -13 -11 2
-32 16 -20 49 -27 54 -10 3 7 -5 12 -19 13 -23 0 -23 0 -2 9 28 11 35 22 25
39 -6 10 -10 10 -16 1 -5 -8 -11 -5 -21 9 -11 16 -24 20 -55 18 -23 -1 -43 -5
-45 -9z"/>
<path d="M3626 5092 c-3 -5 1 -9 9 -9 8 0 12 4 9 9 -3 4 -7 8 -9 8 -2 0 -6 -4
-9 -8z"/>
<path d="M3542 5048 c3 -7 13 -15 24 -17 16 -3 17 -1 5 13 -16 19 -34 21 -29
4z"/>
<path d="M3770 5035 c0 -17 35 -55 51 -55 25 0 46 39 28 51 -15 9 -79 12 -79
4z"/>
<path d="M4866 5025 c4 -8 8 -15 10 -15 2 0 4 7 4 15 0 8 -4 15 -10 15 -5 0
-7 -7 -4 -15z"/>
<path d="M3578 4998 c9 -9 15 -9 24 0 9 9 7 12 -12 12 -19 0 -21 -3 -12 -12z"/>
<path d="M3637 4972 c-13 -14 -15 -22 -7 -27 16 -10 33 9 28 30 -3 16 -5 15
-21 -3z"/>
<path d="M4925 4970 c9 -30 13 -35 21 -27 3 3 -2 16 -11 29 l-17 23 7 -25z"/>
<path d="M3590 4930 c-8 -5 -11 -12 -7 -16 4 -4 13 -2 19 4 15 15 7 24 -12 12z"/>
<path d="M3660 4900 c0 -5 4 -10 9 -10 6 0 13 5 16 10 3 6 -1 10 -9 10 -9 0
-16 -4 -16 -10z"/>
<path d="M4930 4899 c0 -5 -4 -7 -10 -4 -5 3 -10 -1 -10 -9 0 -8 4 -17 10 -21
5 -3 7 -12 3 -20 -3 -8 -1 -15 5 -15 6 0 13 6 15 13 3 7 6 5 6 -5 1 -22 21
-24 21 -3 0 17 -27 75 -35 75 -3 0 -5 -5 -5 -11z"/>
<path d="M4191 4848 c-1 -10 9 -28 21 -40 14 -14 18 -23 10 -26 -18 -6 -14
-19 8 -25 11 -3 18 0 17 7 -1 6 3 11 8 10 6 -1 18 7 28 17 15 17 15 19 1 19
-9 0 -23 8 -31 18 -12 15 -13 14 -7 -13 l5 -30 -18 21 c-10 12 -23 30 -30 40
-11 17 -12 18 -12 2z"/>
<path d="M4152 4830 c0 -14 2 -19 5 -12 2 6 2 18 0 25 -3 6 -5 1 -5 -13z"/>
<path d="M5011 4824 c0 -11 3 -14 6 -6 3 7 2 16 -1 19 -3 4 -6 -2 -5 -13z"/>
<path d="M4125 4820 c3 -5 8 -10 11 -10 2 0 4 5 4 10 0 6 -5 10 -11 10 -5 0
-7 -4 -4 -10z"/>
<path d="M4030 4771 c0 -5 7 -11 15 -15 9 -3 15 0 15 9 0 8 -7 15 -15 15 -8 0
-15 -4 -15 -9z"/>
<path d="M5021 4752 c-10 -19 -9 -25 15 -47 20 -19 23 -25 10 -25 -18 0 -21
-15 -5 -26 6 -3 15 -1 19 6 6 9 9 9 15 0 4 -6 -1 -18 -11 -25 -17 -13 -17 -14
-2 -15 9 0 20 5 23 10 8 13 -13 80 -25 80 -5 0 -13 15 -18 33 -8 32 -9 32 -21
9z"/>
<path d="M4297 4706 c-4 -10 1 -20 12 -26 15 -8 19 -6 17 5 -4 25 -23 39 -29
21z"/>
<path d="M4260 4703 c0 -5 5 -15 10 -23 8 -12 10 -11 10 8 0 12 -4 22 -10 22
-5 0 -10 -3 -10 -7z"/>
<path d="M4340 4685 c0 -8 29 -12 39 -5 9 5 4 8 -13 8 -14 0 -26 -2 -26 -3z"/>
<path d="M4146 4655 c4 -8 8 -15 10 -15 2 0 4 7 4 15 0 8 -4 15 -10 15 -5 0
-7 -7 -4 -15z"/>
<path d="M4317 4646 c-8 -21 7 -28 24 -13 8 7 12 11 10 10 -2 -2 -10 2 -16 7
-9 8 -14 6 -18 -4z"/>
<path d="M4370 4649 c0 -5 5 -7 10 -4 6 3 10 8 10 11 0 2 -4 4 -10 4 -5 0 -10
-5 -10 -11z"/>
<path d="M4261 4633 c-7 -8 -11 -16 -8 -19 2 -2 10 2 17 11 17 20 9 27 -9 8z"/>
<path d="M4397 4634 c-3 -3 -4 -11 -1 -17 2 -7 -11 -22 -30 -35 -31 -21 -33
-26 -26 -59 10 -44 21 -56 51 -51 27 3 36 46 13 55 -19 7 -7 24 14 21 9 -2 18
4 20 13 3 19 -32 82 -41 73z"/>
<path d="M5000 4611 c0 -5 7 -15 17 -22 15 -13 15 -12 4 9 -12 23 -21 28 -21
13z"/>
<path d="M4950 4510 c0 -5 5 -10 11 -10 5 0 7 5 4 10 -3 6 -8 10 -11 10 -2 0
-4 -4 -4 -10z"/>
<path d="M4342 4444 c-1 -15 4 -24 12 -24 21 0 26 25 7 37 -14 9 -17 6 -19
-13z"/>
<path d="M4790 4450 c0 -5 5 -10 11 -10 5 0 7 5 4 10 -3 6 -8 10 -11 10 -2 0
-4 -4 -4 -10z"/>
<path d="M4856 4414 c-9 -23 -8 -24 14 -24 13 0 20 7 20 20 0 24 -25 27 -34 4z"/>
<path d="M4696 4394 c-9 -24 -7 -34 6 -34 6 0 8 3 5 6 -3 4 -2 15 4 25 6 11 6
19 0 19 -5 0 -12 -7 -15 -16z"/>
<path d="M4780 4395 c0 -8 2 -15 4 -15 2 0 6 7 10 15 3 8 1 15 -4 15 -6 0 -10
-7 -10 -15z"/>
<path d="M4580 4320 c-8 -5 -12 -12 -9 -15 8 -8 39 5 39 16 0 11 -11 11 -30
-1z"/>
<path d="M4495 4286 c-11 -7 -29 -16 -40 -19 -17 -4 -16 -5 5 -6 14 0 35 6 46
14 12 8 24 11 28 8 3 -3 6 -1 6 5 0 16 -21 15 -45 -2z"/>
<path d="M4674 4251 c4 -6 1 -11 -7 -11 -19 0 -30 -25 -32 -77 -1 -28 3 -44
12 -47 8 -4 12 -13 9 -23 -4 -14 0 -18 19 -18 29 0 30 1 9 22 -15 15 -13 18
22 35 48 23 48 23 34 47 -9 18 -17 20 -50 15 -26 -4 -40 -3 -40 4 0 6 6 9 14
6 8 -3 17 0 21 5 3 6 11 9 16 6 5 -4 9 1 9 9 0 8 -10 20 -21 27 -15 8 -19 8
-15 0z"/>
<path d="M5012 4230 c0 -14 2 -19 5 -12 2 6 2 18 0 25 -3 6 -5 1 -5 -13z"/>
<path d="M4598 4233 c6 -2 18 -2 25 0 6 3 1 5 -13 5 -14 0 -19 -2 -12 -5z"/>
<path d="M4583 4205 c-25 -27 -10 -48 15 -23 13 13 16 38 5 38 -5 -1 -14 -7
-20 -15z"/>
<path d="M4580 4145 c-19 -23 -26 -105 -9 -105 30 1 52 29 51 65 -2 55 -17 70
-42 40z"/>
<path d="M4728 4123 c-10 -2 -18 -11 -18 -19 0 -22 44 -14 48 9 4 17 1 18 -30
10z"/>
<path d="M4698 4053 c-27 -13 -48 -30 -48 -37 0 -7 -11 -18 -25 -24 -14 -6
-25 -16 -25 -21 0 -5 -10 -11 -22 -13 -18 -2 -24 -11 -26 -36 -3 -31 -2 -32
25 -28 15 3 50 8 76 12 33 4 52 13 62 28 13 20 40 135 33 140 -1 2 -24 -8 -50
-21z"/>
<path d="M6562 4789 c2 -6 8 -10 13 -10 5 0 11 4 13 10 2 6 -4 11 -13 11 -9 0
-15 -5 -13 -11z"/>
<path d="M6415 4760 c-3 -5 1 -10 9 -10 9 0 16 5 16 10 0 6 -4 10 -9 10 -6 0
-13 -4 -16 -10z"/>
<path d="M6231 4737 c-13 -21 -12 -21 5 -5 10 10 16 20 13 22 -3 3 -11 -5 -18
-17z"/>
<path d="M6343 4682 c-20 -16 -27 -32 -24 -59 2 -22 41 -14 51 10 5 12 9 16 9
10 1 -7 6 -13 12 -13 6 0 8 9 3 23 -9 31 -14 34 -25 17 -8 -12 -10 -10 -6 8 3
12 4 22 4 22 -1 0 -12 -8 -24 -18z"/>
<path d="M6284 4615 c-4 -8 -10 -12 -15 -9 -5 3 -6 -2 -3 -10 5 -12 9 -13 25
-3 20 13 26 37 9 37 -6 0 -13 -7 -16 -15z"/>
<path d="M3325 4280 c-3 -5 -1 -10 4 -10 6 0 11 5 11 10 0 6 -2 10 -4 10 -3 0
-8 -4 -11 -10z"/>
<path d="M5854 3893 c3 -21 6 -46 6 -55 0 -25 27 -22 41 3 11 21 11 21 28 -8
11 -18 27 -29 43 -30 24 -2 26 1 30 45 7 78 6 79 -79 81 l-76 1 7 -37z"/>
<path d="M5790 3911 c0 -12 29 -23 41 -15 18 10 9 24 -16 24 -14 0 -25 -4 -25
-9z"/>
<path d="M5760 3805 c-10 -12 -10 -15 4 -15 9 0 16 7 16 15 0 8 -2 15 -4 15
-2 0 -9 -7 -16 -15z"/>
<path d="M6120 3754 c0 -8 5 -12 10 -9 6 3 10 10 10 16 0 5 -4 9 -10 9 -5 0
-10 -7 -10 -16z"/>
<path d="M6430 3352 c0 -7 -5 -11 -12 -9 -6 1 -13 -5 -15 -14 -3 -10 10 -24
32 -38 l37 -21 -7 32 c-7 34 -35 74 -35 50z"/>
<path d="M6314 3326 c-6 -17 2 -36 17 -36 12 0 12 37 -1 45 -6 3 -13 -1 -16
-9z"/>
<path d="M6498 3287 c-3 -19 -2 -25 4 -19 6 6 8 18 6 28 -3 14 -5 12 -10 -9z"/>
<path d="M6372 3289 c2 -7 10 -15 17 -17 8 -3 12 1 9 9 -2 7 -10 15 -17 17 -8
3 -12 -1 -9 -9z"/>
<path d="M6520 3268 c0 -7 5 -20 10 -28 8 -12 10 -11 10 7 0 12 -4 25 -10 28
-5 3 -10 0 -10 -7z"/>
<path d="M6415 3260 c3 -5 14 -10 23 -10 15 0 15 2 2 10 -20 13 -33 13 -25 0z"/>
<path d="M6300 3250 c0 -5 9 -10 21 -10 11 0 17 5 14 10 -3 6 -13 10 -21 10
-8 0 -14 -4 -14 -10z"/>
<path d="M6340 3232 c-12 -14 -11 -15 10 -9 13 3 29 2 36 -4 12 -10 32 6 21
17 -12 13 -54 10 -67 -4z"/>
<path d="M6285 3220 c-3 -5 1 -10 9 -10 9 0 16 5 16 10 0 6 -4 10 -9 10 -6 0
-13 -4 -16 -10z"/>
<path d="M6055 3179 c-11 -17 1 -21 15 -4 8 9 8 15 2 15 -6 0 -14 -5 -17 -11z"/>
<path d="M5940 3160 c0 -5 5 -10 10 -10 6 0 10 5 10 10 0 6 -4 10 -10 10 -5 0
-10 -4 -10 -10z"/>
<path d="M6280 3140 c0 -5 5 -10 10 -10 6 0 10 5 10 10 0 6 -4 10 -10 10 -5 0
-10 -4 -10 -10z"/>
<path d="M6313 3121 c-11 -31 -2 -51 24 -51 21 0 20 46 -1 67 -9 10 -14 7 -23
-16z"/>
<path d="M5700 3108 c0 -4 14 -8 30 -8 17 0 30 2 30 4 0 2 -13 6 -30 8 -16 3
-30 1 -30 -4z"/>
<path d="M6250 3089 c0 -5 5 -7 10 -4 6 3 10 8 10 11 0 2 -4 4 -10 4 -5 0 -10
-5 -10 -11z"/>
<path d="M4500 3649 c0 -5 5 -7 10 -4 6 3 10 8 10 11 0 2 -4 4 -10 4 -5 0 -10
-5 -10 -11z"/>
<path d="M4485 3620 c-3 -5 -2 -10 4 -10 5 0 13 5 16 10 3 6 2 10 -4 10 -5 0
-13 -4 -16 -10z"/>
<path d="M4442 3577 c-27 -18 -31 -27 -27 -49 2 -16 0 -28 -5 -28 -6 0 -10 -5
-10 -11 0 -7 10 -9 25 -5 18 5 25 2 25 -8 0 -9 -12 -16 -27 -18 -33 -4 -46
-38 -14 -38 11 0 22 -8 24 -17 4 -17 5 -17 6 -1 0 10 7 15 14 12 21 -8 49 54
55 122 4 58 3 64 -14 63 -11 0 -34 -11 -52 -22z"/>
<path d="M3890 3445 c0 -17 -2 -17 -10 -5 -6 9 -10 10 -10 3 0 -7 9 -17 20
-23 22 -12 27 3 10 30 -8 12 -10 12 -10 -5z"/>
<path d="M3839 3420 c-16 -10 -12 -15 19 -24 25 -8 28 -1 9 19 -9 8 -19 10
-28 5z"/>
<path d="M4270 3419 c0 -5 5 -7 10 -4 6 3 10 8 10 11 0 2 -4 4 -10 4 -5 0 -10
-5 -10 -11z"/>
<path d="M4484 3405 c-17 -25 -12 -47 9 -39 11 4 22 64 12 64 -3 0 -12 -11
-21 -25z"/>
<path d="M3797 3389 c-4 -16 -1 -28 8 -35 10 -8 11 -14 4 -21 -15 -15 -1 -37
14 -25 7 5 22 8 34 6 31 -5 40 26 13 48 -12 10 -28 18 -36 18 -7 0 -17 7 -22
16 -8 14 -10 13 -15 -7z"/>
<path d="M4013 3387 c-2 -4 -22 -15 -44 -24 -21 -8 -39 -18 -38 -22 0 -3 14
-17 30 -30 26 -20 34 -22 55 -13 13 7 24 8 24 3 0 -5 -5 -11 -12 -13 -6 -2 -8
-10 -4 -16 11 -19 26 -14 26 8 0 27 28 26 32 -2 2 -12 9 -23 16 -24 7 -1 8 0
2 3 -16 8 -12 33 6 33 11 0 14 6 9 20 -3 11 -2 28 4 37 9 15 10 12 11 -16 0
-33 0 -33 24 -17 17 11 27 12 32 5 4 -6 0 -15 -7 -20 -21 -12 -4 -22 41 -22
51 0 100 42 100 84 0 32 -17 38 -122 38 -53 0 -68 -3 -68 -14 0 -8 -4 -15 -10
-15 -5 0 -10 6 -10 14 0 10 -13 13 -46 12 -25 0 -48 -5 -51 -9z"/>
<path d="M4380 3370 c0 -5 5 -10 10 -10 6 0 10 5 10 10 0 6 -4 10 -10 10 -5 0
-10 -4 -10 -10z"/>
<path d="M4505 3320 c3 -5 8 -10 11 -10 2 0 4 5 4 10 0 6 -5 10 -11 10 -5 0
-7 -4 -4 -10z"/>
<path d="M3910 3310 c0 -5 5 -10 10 -10 6 0 10 5 10 10 0 6 -4 10 -10 10 -5 0
-10 -4 -10 -10z"/>
<path d="M4368 3303 c-10 -2 -18 -12 -18 -20 0 -14 3 -14 20 2 17 15 26 28 18
24 -2 -1 -11 -3 -20 -6z"/>
<path d="M4415 3300 c-3 -5 -1 -10 4 -10 6 0 11 5 11 10 0 6 -2 10 -4 10 -3 0
-8 -4 -11 -10z"/>
<path d="M3948 3292 c7 -5 10 -16 6 -25 -3 -10 -1 -17 6 -17 17 0 8 43 -10 47
-11 4 -12 2 -2 -5z"/>
<path d="M3906 3274 c-10 -26 -7 -34 14 -34 25 0 27 20 3 21 -11 0 -13 3 -5 6
14 5 16 23 3 23 -5 0 -12 -7 -15 -16z"/>
<path d="M4518 3278 c9 -9 15 -9 24 0 9 9 7 12 -12 12 -19 0 -21 -3 -12 -12z"/>
<path d="M3850 3264 c0 -8 5 -12 10 -9 6 4 8 11 5 16 -9 14 -15 11 -15 -7z"/>
<path d="M4325 3250 c-3 -6 1 -7 9 -4 18 7 21 14 7 14 -6 0 -13 -4 -16 -10z"/>
<path d="M3750 3241 c0 -8 -14 -9 -42 -5 -37 6 -41 5 -35 -10 4 -10 7 -20 7
-22 0 -10 29 -3 33 9 3 9 8 9 18 1 8 -6 26 -11 41 -12 24 -1 27 2 24 21 -3 22
-46 39 -46 18z"/>
<path d="M3709 3188 c-4 -14 -4 -48 0 -48 17 1 33 20 28 34 -5 13 -25 23 -28
14z"/>
<path d="M3767 3153 c-8 -12 16 -36 26 -26 10 10 8 25 -2 19 -5 -4 -11 -1 -13
6 -3 8 -6 9 -11 1z"/>
<path d="M3650 3109 c0 -5 5 -7 10 -4 6 3 10 8 10 11 0 2 -4 4 -10 4 -5 0 -10
-5 -10 -11z"/>
<path d="M3616 3071 c-3 -5 1 -14 9 -21 8 -7 15 -9 15 -5 0 4 7 2 15 -5 21
-18 29 -6 13 19 -13 21 -42 28 -52 12z"/>
<path d="M3690 3076 c0 -2 7 -9 15 -16 13 -11 14 -10 9 4 -5 14 -24 23 -24 12z"/>
<path d="M4447 3073 c-4 -3 -7 -11 -7 -17 0 -6 5 -5 12 2 6 6 9 14 7 17 -3 3
-9 2 -12 -2z"/>
<path d="M3420 3020 c0 -5 12 -10 28 -9 24 0 25 1 7 9 -27 12 -35 12 -35 0z"/>
<path d="M3512 3014 c14 -14 21 -15 30 -6 8 8 9 12 1 12 -6 0 -20 3 -30 6 -17
7 -17 6 -1 -12z"/>
<path d="M3528 2953 c7 -3 16 -2 19 1 4 3 -2 6 -13 5 -11 0 -14 -3 -6 -6z"/>
<path d="M3604 2944 c9 -8 14 -20 11 -25 -4 -5 1 -9 11 -9 13 0 14 3 4 15 -10
12 -9 15 4 15 10 0 14 5 11 10 -3 6 -17 10 -31 10 -23 0 -24 -1 -10 -16z"/>
<path d="M3685 2895 c17 -7 34 -10 39 -7 12 7 -21 21 -49 20 -15 0 -13 -3 10
-13z"/>
<path d="M2840 7391 l-85 -27 -3 -66 -3 -67 93 31 c51 17 99 33 106 35 20 4
12 117 -8 120 -8 0 -53 -11 -100 -26z"/>
<path d="M4474 7391 c3 -5 32 -12 63 -16 32 -4 75 -13 96 -20 20 -7 37 -9 37
-4 0 4 -19 13 -42 19 -24 6 -56 15 -72 20 -36 12 -89 13 -82 1z"/>
<path d="M4690 7346 c0 -8 15 -23 33 -32 17 -9 58 -34 89 -55 32 -22 60 -39
63 -39 3 0 5 20 5 43 l0 44 -80 22 c-45 12 -87 24 -95 28 -9 3 -15 -1 -15 -11z"/>
<path d="M2660 7324 c-36 -13 -82 -32 -102 -41 l-38 -16 0 -69 c0 -48 4 -68
13 -68 6 1 55 22 107 48 l95 48 3 62 c2 34 -1 61 -5 61 -4 -1 -37 -12 -73 -25z"/>
<path d="M4890 7259 c0 -45 4 -51 100 -157 35 -39 65 -77 66 -85 4 -30 72
-142 86 -142 9 0 27 -6 41 -14 54 -29 58 -17 57 164 l-2 166 -46 23 c-70 34
-100 40 -105 19 -4 -16 -6 -15 -12 4 -5 17 -24 26 -84 42 -43 12 -83 21 -89
21 -7 0 -12 -16 -12 -41z"/>
<path d="M2320 7164 c-102 -53 -193 -103 -202 -112 -20 -17 -26 -116 -8 -127
5 -3 47 13 92 37 61 32 84 49 89 68 5 18 7 19 8 6 1 -21 -5 -22 119 34 l92 43
0 73 c0 41 -1 74 -2 74 -2 0 -86 -44 -188 -96z"/>
<path d="M5475 7208 c1 -29 2 -61 3 -70 2 -16 133 -88 160 -88 7 0 12 14 13
33 0 17 2 45 3 61 2 29 -9 36 -175 114 -3 1 -5 -21 -4 -50z"/>
<path d="M3820 7105 c-10 -12 -10 -15 3 -15 8 0 17 7 21 15 3 8 2 15 -3 15 -5
0 -14 -7 -21 -15z"/>
<path d="M3865 7100 c-3 -5 -2 -10 4 -10 5 0 13 5 16 10 3 6 2 10 -4 10 -5 0
-13 -4 -16 -10z"/>
<path d="M2005 6984 c-112 -64 -115 -67 -115 -132 0 -46 2 -53 16 -48 14 5 15
4 4 -9 -7 -8 -9 -15 -6 -15 12 0 185 115 189 125 2 6 1 36 -2 67 l-6 58 -80
-46z"/>
<path d="M4867 6900 c-20 -19 -15 -70 7 -70 26 1 36 17 30 48 -8 40 -14 44
-37 22z"/>
<path d="M4805 6900 c3 -5 8 -10 11 -10 2 0 4 5 4 10 0 6 -5 10 -11 10 -5 0
-7 -4 -4 -10z"/>
<path d="M4390 6868 c0 -4 6 -8 14 -8 8 0 17 4 20 8 2 4 -4 8 -15 8 -10 0 -19
-4 -19 -8z"/>
<path d="M4780 6789 c0 -5 5 -7 10 -4 6 3 10 8 10 11 0 2 -4 4 -10 4 -5 0 -10
-5 -10 -11z"/>
<path d="M4590 6770 c-12 -8 -10 -10 8 -10 13 0 20 4 17 10 -7 12 -6 12 -25 0z"/>
<path d="M6770 6615 c7 -9 15 -13 17 -11 7 7 -7 26 -19 26 -6 0 -6 -6 2 -15z"/>
<path d="M7340 5658 c0 -9 5 -20 11 -23 17 -11 20 0 4 21 -13 17 -14 17 -15 2z"/>
<path d="M1722 1401 c2 -5 38 -41 81 -81 l77 -72 0 75 c0 69 -2 75 -22 81 -35
9 -140 7 -136 -3z"/>
<path d="M3950 1295 l0 -105 105 0 105 0 0 105 0 105 -105 0 -105 0 0 -105z"/>
<path d="M1890 1304 c0 -36 4 -73 10 -83 5 -10 32 -33 60 -51 27 -18 50 -36
50 -42 0 -5 4 -7 8 -4 9 5 75 -39 116 -76 11 -10 28 -20 38 -24 11 -3 48 -25
83 -49 46 -32 66 -40 74 -32 8 8 11 5 11 -10 0 -17 19 -31 90 -66 l90 -44 0
69 0 69 -36 15 c-20 8 -54 26 -75 40 -22 13 -39 22 -39 19 0 -3 -6 -1 -12 5
-69 59 -215 147 -225 136 -2 -2 -16 8 -31 23 -57 54 -196 171 -204 171 -4 0
-8 -30 -8 -66z m461 -325 c-5 -13 -10 -19 -10 -12 -1 15 10 45 15 40 3 -2 0
-15 -5 -28z"/>
<path d="M1890 1138 c0 -69 17 -92 116 -158 50 -33 94 -60 98 -60 3 0 6 26 6
58 l0 57 -94 67 c-125 90 -126 91 -126 36z m115 -108 c8 -13 -15 -13 -35 0
-12 8 -11 10 7 10 12 0 25 -4 28 -10z"/>
<path d="M2127 1013 c-4 -3 -7 -27 -7 -53 0 -41 3 -48 28 -61 15 -7 57 -33 95
-57 37 -23 72 -40 77 -37 6 3 10 0 10 -8 0 -8 12 -20 28 -26 15 -6 34 -15 42
-20 29 -18 122 -52 127 -47 3 3 2 25 -1 49 -7 42 -9 45 -73 77 -36 18 -111 63
-167 100 -136 90 -147 96 -159 83z m298 -253 c3 -5 1 -10 -4 -10 -6 0 -11 5
-11 10 0 6 2 10 4 10 3 0 8 -4 11 -10z"/>
<path d="M2536 942 c-8 -7 -7 -81 0 -109 4 -15 29 -31 89 -57 115 -50 115 -49
115 29 0 52 -3 66 -19 74 -37 20 -180 69 -185 63z"/>
<path d="M2960 861 c0 -48 3 -61 18 -65 22 -7 164 -36 175 -36 4 0 7 35 5 78
l-3 77 -97 3 -98 3 0 -60z"/>
<path d="M3177 913 c-4 -3 -7 -42 -7 -85 l0 -78 38 -1 37 -2 -35 -6 -35 -6 -3
-61 -3 -62 38 -7 c21 -5 49 -9 63 -11 14 -1 40 -6 58 -10 32 -6 32 -6 32 34 0
36 -2 40 -22 34 -14 -3 -19 -2 -14 6 4 7 15 12 24 12 37 0 -7 21 -56 27 -48 5
-52 4 -52 -16 0 -11 -5 -21 -11 -21 -6 0 -8 9 -4 20 4 11 2 20 -4 20 -6 0 -11
3 -11 8 0 4 34 6 75 4 49 -2 75 0 75 7 0 6 -24 12 -57 13 l-58 1 55 6 55 6 3
88 3 87 -89 0 c-49 0 -92 -3 -95 -7z"/>
<path d="M3370 835 l0 -85 43 -1 c23 -1 94 -5 157 -9 l115 -7 -102 -1 -103 -2
0 -84 0 -84 43 -6 c23 -3 71 -6 107 -8 l65 -2 0 97 c0 91 1 96 20 92 11 -2 66
-7 123 -10 l102 -7 0 101 0 101 -115 0 c-103 0 -115 -2 -115 -17 -1 -17 -1
-17 -11 0 -8 14 -25 17 -110 17 -94 0 -100 -1 -109 -22 -7 -18 -9 -19 -9 -5
-1 9 -9 18 -18 18 -10 1 -33 3 -50 5 l-33 4 0 -85z m340 -41 c0 -8 -5 -12 -10
-9 -6 4 -8 11 -5 16 9 14 15 11 15 -7z"/>
<path d="M2752 793 l3 -66 54 -18 c29 -10 57 -16 62 -13 5 3 17 -2 26 -11 15
-16 18 -15 34 16 l18 34 1 -37 c0 -41 0 -41 125 -68 28 -6 58 -13 68 -16 16
-5 18 1 15 58 l-3 63 -94 23 c-68 17 -96 20 -101 12 -5 -8 -9 -5 -12 7 -4 13
-32 29 -90 51 -46 18 -90 32 -96 32 -9 0 -12 -19 -10 -67z"/>
<path d="M2540 748 c0 -23 4 -37 10 -33 5 3 7 0 5 -7 -8 -19 118 -81 230 -113
50 -15 98 -31 107 -36 27 -14 28 -12 30 34 l1 42 6 -45 6 -45 105 -27 c57 -15
106 -25 109 -22 5 5 2 87 -4 93 -6 5 -206 51 -226 51 -10 0 -19 3 -19 8 0 4
-33 18 -72 31 -40 13 -82 27 -93 32 -11 5 -59 24 -107 43 l-88 34 0 -40z"/>
<path d="M3370 650 l0 -80 28 0 c15 0 37 -3 50 -6 22 -6 22 -5 22 80 l0 86
-50 0 -50 0 0 -80z"/>
<path d="M2520 658 c0 -21 4 -25 19 -21 10 3 22 0 25 -6 4 -6 0 -11 -8 -11
-43 0 -28 -54 24 -80 35 -18 304 -110 321 -110 4 0 10 8 12 18 4 13 5 13 6 -4
1 -19 15 -25 106 -48 139 -35 135 -35 135 19 0 25 -2 45 -4 45 -6 0 -177 46
-205 55 -16 5 -23 1 -30 -17 l-10 -23 0 26 c-1 24 -9 29 -98 59 -107 36 -145
51 -213 83 -25 12 -49 21 -55 22 -5 0 -13 5 -17 10 -4 6 -8 -2 -8 -17z m130
-68 c0 -5 -6 -10 -13 -10 -7 0 -18 -9 -25 -20 -7 -12 -17 -18 -23 -14 -7 4 -2
15 12 30 25 24 49 31 49 14z"/>
<path d="M3170 532 c0 -47 1 -50 31 -56 48 -9 59 -7 59 10 0 8 5 12 11 9 6 -4
8 -13 5 -20 -5 -14 23 -25 67 -25 26 0 27 2 27 50 0 36 -4 50 -14 50 -7 0 -28
3 -45 6 -27 6 -31 4 -31 -14 0 -12 -5 -24 -11 -28 -8 -5 -10 1 -7 20 6 31 6
32 -49 41 l-43 7 0 -50z m67 -38 c-3 -3 -12 -4 -19 -1 -8 3 -5 6 6 6 11 1 17
-2 13 -5z"/>
<path d="M3950 550 c0 -6 40 -10 100 -10 60 0 100 4 100 10 0 6 -40 10 -100
10 -60 0 -100 -4 -100 -10z"/>
<path d="M3380 497 c0 -53 1 -55 31 -61 48 -9 57 -8 62 12 4 15 5 15 6 0 1
-17 20 -22 144 -33 l67 -7 0 55 0 55 -42 6 c-24 3 -70 6 -102 8 -51 1 -61 -1
-67 -18 -7 -17 -8 -17 -8 4 -1 18 -7 22 -30 22 -16 0 -36 3 -45 6 -13 5 -16
-3 -16 -49z"/>
<path d="M3170 406 c0 -50 -14 -44 145 -71 161 -28 153 -27 158 -8 4 15 5 16
6 1 1 -17 16 -21 135 -34 66 -7 76 -1 76 53 0 38 -2 39 -130 48 -47 4 -149 18
-228 31 -79 13 -148 24 -153 24 -5 0 -9 -20 -9 -44z"/>
</g>
</svg>
