<?xml version="1.0" standalone="no"?>
<!DOCTYPE svg PUBLIC "-//W3C//DTD SVG 20010904//EN"
 "http://www.w3.org/TR/2001/REC-SVG-20010904/DTD/svg10.dtd">
<svg version="1.0" xmlns="http://www.w3.org/2000/svg"
 width="700.000000pt" height="700.000000pt" viewBox="0 0 700.000000 700.000000"
 preserveAspectRatio="xMidYMid meet">
<metadata>
Created by potrace 1.14, written by Peter Selinger 2001-2017
</metadata>
<g transform="translate(0.000000,700.000000) scale(0.100000,-0.100000)"
fill="#000000" stroke="none">
<path d="M3278 6995 c-2 -1 -42 -6 -89 -9 -47 -4 -96 -8 -108 -11 -13 -2 -49
-7 -80 -11 -31 -3 -58 -8 -61 -9 -3 -2 -25 -6 -48 -10 -38 -5 -186 -37 -234
-50 -10 -3 -26 -7 -35 -9 -155 -35 -429 -136 -630 -232 -833 -398 -1483 -1115
-1786 -1969 -54 -152 -107 -336 -123 -425 -3 -14 -11 -53 -19 -88 -8 -34 -17
-81 -20 -103 -3 -23 -7 -44 -9 -48 -5 -7 -17 -122 -22 -211 -6 -95 -6 -536 0
-600 3 -30 8 -86 11 -124 3 -37 7 -71 9 -75 2 -3 7 -26 10 -51 14 -107 39
-216 110 -480 16 -57 97 -281 126 -345 147 -328 302 -588 489 -820 126 -156
410 -443 531 -535 18 -14 42 -33 54 -44 150 -132 561 -367 841 -482 249 -102
631 -201 875 -228 179 -20 469 -26 655 -14 160 10 226 18 375 43 22 3 96 18
155 31 11 2 29 6 40 8 47 10 85 20 165 43 701 203 1345 636 1785 1198 55 70
178 245 212 300 70 115 98 165 145 255 48 93 93 191 133 285 7 17 25 64 40
105 15 41 34 93 42 115 8 22 16 47 18 55 2 8 11 42 21 75 10 33 19 65 20 70 1
6 9 37 17 70 67 262 101 542 101 840 -1 124 -10 316 -19 380 -2 17 -6 48 -9
70 -22 173 -73 402 -128 580 -18 55 -32 102 -33 105 -3 10 -18 49 -62 160 -51
127 -134 302 -188 395 -19 33 -38 67 -41 75 -13 28 -172 267 -225 336 -48 64
-102 130 -174 214 -105 121 -300 305 -460 435 -54 43 -266 192 -295 207 -14 6
-32 17 -40 24 -41 32 -340 185 -466 239 -164 70 -456 163 -594 189 -14 3 -61
12 -105 20 -44 9 -98 18 -120 21 -22 3 -51 8 -65 11 -14 2 -52 7 -85 10 -33 3
-76 7 -95 10 -38 5 -507 13 -512 9z m85 -1399 c134 -16 340 -83 448 -146 172
-101 313 -267 420 -495 35 -75 108 -280 124 -350 4 -16 9 -38 11 -47 2 -10 6
-28 9 -40 2 -13 10 -45 17 -73 7 -27 11 -54 10 -58 -1 -5 2 -6 6 -3 5 3 13 27
16 53 4 27 9 55 11 63 2 8 10 58 20 110 9 52 18 106 20 120 38 208 56 309 60
330 6 32 24 127 30 160 10 61 25 147 30 170 3 13 7 42 11 65 9 67 -29 60 381
66 117 1 215 1 217 -2 3 -2 1 -22 -4 -44 -5 -22 -11 -56 -14 -75 -3 -19 -14
-80 -25 -135 -10 -55 -22 -116 -25 -135 -3 -19 -8 -46 -11 -60 -3 -14 -18 -99
-35 -190 -16 -91 -32 -175 -34 -186 -2 -12 -7 -37 -10 -55 -10 -58 -17 -93
-21 -109 -2 -8 -7 -37 -11 -65 -3 -27 -8 -53 -10 -56 -2 -3 -6 -21 -9 -40 -3
-19 -12 -70 -20 -114 -8 -44 -17 -93 -20 -110 -2 -16 -7 -41 -10 -55 -3 -14
-21 -110 -40 -215 -40 -220 -40 -222 -55 -295 -6 -30 -13 -73 -16 -95 -2 -22
-9 -54 -13 -72 -5 -18 -5 -48 0 -70 5 -21 22 -112 39 -203 17 -91 40 -208 50
-260 27 -134 52 -262 54 -280 2 -8 8 -40 14 -70 21 -95 39 -183 47 -233 23
-126 127 -252 267 -323 27 -14 48 -31 48 -40 0 -15 -71 -202 -105 -279 -8 -16
-19 -43 -25 -60 -7 -16 -27 -64 -45 -105 -31 -72 -34 -75 -66 -76 -40 -1 -177
39 -234 69 -62 31 -145 90 -195 138 -131 126 -184 233 -236 474 -6 25 -74 427
-74 434 0 13 -28 -38 -44 -79 -53 -137 -155 -340 -228 -452 -220 -337 -475
-521 -784 -568 -126 -19 -483 -14 -518 8 -5 3 -19 6 -31 7 -12 2 -64 17 -116
35 -445 152 -746 506 -892 1050 -18 64 -43 180 -51 230 -3 19 -8 46 -11 60 -3
14 -8 48 -11 75 -3 28 -8 61 -11 75 -3 14 -7 225 -9 470 -2 456 1 505 41 703
8 40 16 83 19 97 10 62 69 271 102 363 40 112 120 284 159 341 14 20 25 40 25
44 0 4 9 18 20 32 11 14 46 59 78 100 68 87 163 182 242 241 47 36 76 54 170
109 88 51 290 111 425 126 33 3 61 7 63 9 5 5 309 -3 365 -9z"/>
<path d="M3086 5083 c-2 -2 -16 -6 -32 -9 -256 -43 -469 -264 -588 -611 -57
-165 -85 -295 -111 -518 -22 -189 -23 -738 0 -940 11 -105 16 -146 25 -190 5
-27 11 -61 14 -75 2 -14 11 -54 20 -90 99 -388 259 -595 531 -686 200 -67 465
-22 640 110 97 73 209 210 290 356 26 47 51 92 56 100 58 98 200 495 234 653
2 12 11 51 20 86 54 223 58 304 21 476 -3 11 -12 53 -20 93 -45 210 -130 499
-177 600 -11 24 -27 62 -36 85 -68 171 -219 364 -349 446 -63 40 -182 86 -264
102 -60 11 -266 20 -274 12z"/>
</g>
</svg>
